M48
;GenerationSoftware,Autodesk,EAGLE,9.7.0*%
;CreationDate,2023-05-08T18:39:44Z*%
FMAT,2
ICI,OFF
METRIC,TZ,000.000
T11C0.350
T10C0.400
T9C0.650
T8C0.813
T7C0.900
T6C1.000
T5C1.016
T4C1.200
T3C1.700
T2C1.900
T1C5.500
%
G90
M71
T1
X105410Y83820
X105410Y95250
X-7620Y83820
X-7617Y96267
T2
X100633Y7190
T3
X105133Y7190
T4
X104013Y22606
X104013Y27686
X104013Y32766
X104140Y45720
X104140Y50800
X104140Y55880
T5
X45339Y96520
X45339Y93980
X45339Y91440
X39903Y96774
X39903Y94234
X39903Y91694
X34290Y96647
X34290Y94107
X28829Y96774
X28829Y94234
X51308Y91440
X51308Y93980
X28829Y91694
X23622Y96774
X51308Y96520
X43307Y-16510
X7620Y91794
X7620Y94334
X7620Y96874
X56896Y91364
X56896Y93904
X56896Y96444
X62611Y91186
X62611Y93726
X62611Y96266
X68199Y91186
X68199Y93726
X68199Y96266
X74041Y91186
X74041Y93726
X74041Y96266
X80137Y91237
X80137Y93777
X80137Y96317
X86106Y91059
X86106Y93599
X86106Y96139
X91857Y91022
X91857Y93562
X91857Y96102
X10160Y53340
X10160Y50800
X10160Y48260
X10160Y45720
X10160Y43180
X10160Y40640
X10160Y38100
X10160Y35560
X10160Y33020
X10160Y30480
X10160Y27940
X10160Y25400
X10160Y22860
X10160Y20320
X34290Y91567
X43307Y-19050
X43307Y-21590
X43307Y-24130
X43307Y-26670
X43307Y-29210
X43307Y-31750
X43307Y-34290
X43307Y-36830
X43307Y-39370
X43307Y-41910
X43307Y-44450
X63754Y-6223
X63754Y-8763
X63754Y-11303
X63754Y-13843
X63754Y-16383
X63754Y-18923
X63754Y-21463
X63754Y-24003
X63754Y-26543
X63754Y-29083
X63754Y-31623
X63754Y-34163
X63754Y-36703
X63754Y-39243
X63754Y-41783
X63754Y-44323
X12700Y91821
X12700Y94361
X12700Y96901
X18034Y91821
X18034Y94361
X18034Y96901
X23622Y91694
X23622Y94234
T6
X105410Y16510
X99060Y16510
X88900Y1270
X-2540Y68580
T7
X29210Y12700
X21590Y12700
X21590Y10160
X21590Y7620
X29210Y7620
X29210Y10160
T8
X15240Y-26670
X15240Y-34290
T9
X2540Y71120
T10
X29210Y63500
X57150Y67310
X64008Y63119
X64135Y59309
X64135Y55245
X64135Y51108
X30480Y64770
X32639Y67056
X20320Y-1270
X71120Y53340
X43180Y77470
X22860Y-16510
X58420Y62230
X58420Y54610
X32258Y68199
X20320Y71120
T11
X58420Y73660
M30