G04 EAGLE Gerber RS-274X export*
G75*
%MOMM*%
%FSLAX34Y34*%
%LPD*%
%INTop Copper*%
%IPPOS*%
%AMOC8*
5,1,8,0,0,1.08239X$1,22.5*%
G01*
G04 Define Apertures*
%ADD10R,2.715300X1.164600*%
%ADD11R,1.860300X0.897900*%
%ADD12R,1.860300X3.189100*%
%ADD13R,2.050000X2.050000*%
%ADD14C,1.524000*%
%ADD15R,1.420200X1.031200*%
%ADD16R,1.031200X1.420200*%
%ADD17C,1.320800*%
%ADD18C,1.800000*%
%ADD19R,1.473200X0.355600*%
%ADD20R,1.408000X1.408000*%
%ADD21C,1.408000*%
%ADD22C,0.254000*%
%ADD23C,1.016000*%
%ADD24C,0.806400*%
%ADD25C,0.812800*%
%ADD26C,1.270000*%
%ADD27C,1.056400*%
%ADD28C,0.756400*%
%ADD29C,1.500000*%
%ADD30C,2.540000*%
%ADD31C,0.406400*%
%ADD32C,0.508000*%
%ADD33C,0.609600*%
D10*
X63500Y683746D03*
X63500Y713254D03*
D11*
X108950Y734200D03*
X108950Y711200D03*
X108950Y688200D03*
D12*
X170450Y711200D03*
D13*
X1051329Y16904D03*
X989829Y16904D03*
X1051329Y126904D03*
X989829Y126904D03*
D14*
X83820Y917945D02*
X68580Y917945D01*
X68580Y943345D02*
X83820Y943345D01*
X83820Y968745D02*
X68580Y968745D01*
X561340Y913640D02*
X576580Y913640D01*
X576580Y939040D02*
X561340Y939040D01*
X561340Y964440D02*
X576580Y964440D01*
X618490Y911860D02*
X633730Y911860D01*
X633730Y937260D02*
X618490Y937260D01*
X618490Y962660D02*
X633730Y962660D01*
X674370Y911860D02*
X689610Y911860D01*
X689610Y937260D02*
X674370Y937260D01*
X674370Y962660D02*
X689610Y962660D01*
X732790Y911860D02*
X748030Y911860D01*
X748030Y937260D02*
X732790Y937260D01*
X732790Y962660D02*
X748030Y962660D01*
X793750Y912370D02*
X808990Y912370D01*
X808990Y937770D02*
X793750Y937770D01*
X793750Y963170D02*
X808990Y963170D01*
X853440Y910590D02*
X868680Y910590D01*
X868680Y935990D02*
X853440Y935990D01*
X853440Y961390D02*
X868680Y961390D01*
X910953Y910219D02*
X926193Y910219D01*
X926193Y935619D02*
X910953Y935619D01*
X910953Y961019D02*
X926193Y961019D01*
X109220Y533400D02*
X93980Y533400D01*
X93980Y508000D02*
X109220Y508000D01*
X109220Y482600D02*
X93980Y482600D01*
X93980Y457200D02*
X109220Y457200D01*
X109220Y431800D02*
X93980Y431800D01*
X93980Y406400D02*
X109220Y406400D01*
X109220Y381000D02*
X93980Y381000D01*
X93980Y355600D02*
X109220Y355600D01*
X109220Y330200D02*
X93980Y330200D01*
X93980Y304800D02*
X109220Y304800D01*
X109220Y279400D02*
X93980Y279400D01*
X93980Y254000D02*
X109220Y254000D01*
X109220Y228600D02*
X93980Y228600D01*
X93980Y203200D02*
X109220Y203200D01*
X425450Y-165100D02*
X440690Y-165100D01*
X440690Y-190500D02*
X425450Y-190500D01*
X425450Y-215900D02*
X440690Y-215900D01*
X440690Y-241300D02*
X425450Y-241300D01*
X425450Y-266700D02*
X440690Y-266700D01*
X440690Y-292100D02*
X425450Y-292100D01*
X425450Y-317500D02*
X440690Y-317500D01*
X440690Y-342900D02*
X425450Y-342900D01*
X425450Y-368300D02*
X440690Y-368300D01*
X440690Y-393700D02*
X425450Y-393700D01*
X425450Y-419100D02*
X440690Y-419100D01*
X440690Y-444500D02*
X425450Y-444500D01*
X629920Y-62230D02*
X645160Y-62230D01*
X645160Y-87630D02*
X629920Y-87630D01*
X629920Y-113030D02*
X645160Y-113030D01*
X645160Y-138430D02*
X629920Y-138430D01*
X629920Y-163830D02*
X645160Y-163830D01*
X645160Y-189230D02*
X629920Y-189230D01*
X629920Y-214630D02*
X645160Y-214630D01*
X645160Y-240030D02*
X629920Y-240030D01*
X629920Y-265430D02*
X645160Y-265430D01*
X645160Y-290830D02*
X629920Y-290830D01*
X629920Y-316230D02*
X645160Y-316230D01*
X645160Y-341630D02*
X629920Y-341630D01*
X629920Y-367030D02*
X645160Y-367030D01*
X645160Y-392430D02*
X629920Y-392430D01*
X629920Y-417830D02*
X645160Y-417830D01*
X645160Y-443230D02*
X629920Y-443230D01*
X134620Y918210D02*
X119380Y918210D01*
X119380Y943610D02*
X134620Y943610D01*
X134620Y969010D02*
X119380Y969010D01*
X172720Y918210D02*
X187960Y918210D01*
X187960Y943610D02*
X172720Y943610D01*
X172720Y969010D02*
X187960Y969010D01*
X228600Y916940D02*
X243840Y916940D01*
X243840Y942340D02*
X228600Y942340D01*
X228600Y967740D02*
X243840Y967740D01*
X280670Y916940D02*
X295910Y916940D01*
X295910Y942340D02*
X280670Y942340D01*
X280670Y967740D02*
X295910Y967740D01*
X335280Y915670D02*
X350520Y915670D01*
X350520Y941070D02*
X335280Y941070D01*
X335280Y966470D02*
X350520Y966470D01*
X391414Y916940D02*
X406654Y916940D01*
X406654Y942340D02*
X391414Y942340D01*
X391414Y967740D02*
X406654Y967740D01*
X445770Y914400D02*
X461010Y914400D01*
X461010Y939800D02*
X445770Y939800D01*
X445770Y965200D02*
X461010Y965200D01*
X505460Y914400D02*
X520700Y914400D01*
X520700Y939800D02*
X505460Y939800D01*
X505460Y965200D02*
X520700Y965200D01*
D15*
X76200Y870255D03*
X76200Y851865D03*
X567690Y863905D03*
X567690Y845515D03*
X623570Y862635D03*
X623570Y844245D03*
X683260Y862635D03*
X683260Y844245D03*
X737870Y863905D03*
X737870Y845515D03*
X801370Y863905D03*
X801370Y845515D03*
X861060Y862635D03*
X861060Y844245D03*
D16*
X638505Y673100D03*
X656895Y673100D03*
X244805Y685800D03*
X263195Y685800D03*
X194005Y-165100D03*
X212395Y-165100D03*
D15*
X127000Y870255D03*
X127000Y851865D03*
X899594Y249394D03*
X899594Y231004D03*
X196850Y-47955D03*
X196850Y-66345D03*
X180340Y868985D03*
X180340Y850595D03*
X236220Y868985D03*
X236220Y850595D03*
X289560Y868985D03*
X289560Y850595D03*
X345440Y867715D03*
X345440Y849325D03*
X398780Y866445D03*
X398780Y848055D03*
X450850Y866445D03*
X450850Y848055D03*
X511810Y863905D03*
X511810Y845515D03*
D17*
X152400Y-260096D02*
X152400Y-273304D01*
X152400Y-336296D02*
X152400Y-349504D01*
D18*
X1041400Y558800D03*
X1041400Y508000D03*
X1041400Y457200D03*
X1040130Y327660D03*
X1040130Y276860D03*
X1040130Y226060D03*
D19*
X422910Y669036D03*
X422910Y675386D03*
X422910Y681990D03*
X422910Y688340D03*
X422910Y694944D03*
X422910Y701548D03*
X422910Y707898D03*
X422910Y714502D03*
X422910Y720852D03*
X422910Y727456D03*
X422910Y734060D03*
X422910Y740410D03*
X422910Y747014D03*
X422910Y753364D03*
X364490Y753364D03*
X364490Y747014D03*
X364490Y740410D03*
X364490Y734060D03*
X364490Y727456D03*
X364490Y720852D03*
X364490Y714502D03*
X364490Y707898D03*
X364490Y701548D03*
X364490Y694944D03*
X364490Y688340D03*
X364490Y681990D03*
X364490Y675386D03*
X364490Y669036D03*
D20*
X215900Y127000D03*
D21*
X215900Y101600D03*
X215900Y76200D03*
X292100Y76200D03*
X292100Y101600D03*
X292100Y127000D03*
D16*
X168605Y127000D03*
X186995Y127000D03*
D22*
X282994Y707898D02*
X364490Y707898D01*
X282994Y707898D02*
X191843Y799049D01*
X130961Y799049D01*
X78145Y851865D01*
X76200Y851865D01*
X284185Y714502D02*
X364490Y714502D01*
X284185Y714502D02*
X146822Y851865D01*
X127000Y851865D01*
X312028Y720852D02*
X364490Y720852D01*
X312028Y720852D02*
X182285Y850595D01*
X180340Y850595D01*
X327533Y727456D02*
X364490Y727456D01*
X327533Y727456D02*
X236220Y818769D01*
X236220Y850595D01*
X289560Y850595D02*
X289560Y788906D01*
X344406Y734060D01*
X364490Y734060D01*
X320040Y823925D02*
X345440Y849325D01*
X348883Y740410D02*
X364490Y740410D01*
X348883Y740410D02*
X320040Y769253D01*
X320040Y823925D01*
X396835Y848055D02*
X398780Y848055D01*
X396835Y848055D02*
X340360Y791580D01*
X340360Y757410D01*
X350756Y747014D01*
X364490Y747014D01*
X450850Y834136D02*
X450850Y848055D01*
X450850Y834136D02*
X370078Y753364D01*
X364490Y753364D01*
X511810Y828530D02*
X511810Y845515D01*
X511810Y828530D02*
X430294Y747014D01*
X422910Y747014D01*
X565745Y845515D02*
X567690Y845515D01*
X565745Y845515D02*
X460640Y740410D01*
X422910Y740410D01*
X621625Y844245D02*
X623570Y844245D01*
X621625Y844245D02*
X511440Y734060D01*
X422910Y734060D01*
X665810Y844245D02*
X683260Y844245D01*
X665810Y844245D02*
X549021Y727456D01*
X422910Y727456D01*
X735925Y845515D02*
X737870Y845515D01*
X735925Y845515D02*
X611262Y720852D01*
X422910Y720852D01*
X799425Y845515D02*
X801370Y845515D01*
X799425Y845515D02*
X668412Y714502D01*
X422910Y714502D01*
X859115Y844245D02*
X861060Y844245D01*
X859115Y844245D02*
X722768Y707898D01*
X422910Y707898D01*
X422910Y701548D02*
X555752Y701548D01*
X558800Y698500D01*
X635000Y698500D01*
X656895Y676605D01*
X656895Y673100D01*
X83820Y917945D02*
X76200Y917945D01*
X83820Y917945D02*
X83820Y875930D01*
X78145Y870255D01*
X76200Y870255D01*
X127000Y918210D02*
X134620Y918210D01*
X134620Y875930D01*
X128945Y870255D01*
X127000Y870255D01*
X172720Y918210D02*
X180340Y918210D01*
X172720Y918210D02*
X172720Y874660D01*
X178395Y868985D01*
X180340Y868985D01*
X236220Y916940D02*
X243840Y916940D01*
X243840Y874660D01*
X238165Y868985D01*
X236220Y868985D01*
X288290Y916940D02*
X295910Y916940D01*
X295910Y873390D01*
X291505Y868985D01*
X289560Y868985D01*
X342900Y915670D02*
X350520Y915670D01*
X352795Y913395D01*
X352795Y875070D01*
X345440Y867715D01*
X391414Y916940D02*
X399034Y916940D01*
X391414Y916940D02*
X391414Y871866D01*
X396835Y866445D01*
X398780Y866445D01*
X445770Y914400D02*
X453390Y914400D01*
X445770Y914400D02*
X445770Y871525D01*
X450850Y866445D01*
X505460Y914400D02*
X513080Y914400D01*
X505460Y914400D02*
X505460Y868310D01*
X509865Y863905D01*
X511810Y863905D01*
X561340Y913640D02*
X568960Y913640D01*
X561340Y913640D02*
X561340Y868310D01*
X565745Y863905D01*
X567690Y863905D01*
X618490Y911860D02*
X626110Y911860D01*
X618490Y911860D02*
X618490Y867715D01*
X623570Y862635D01*
X681990Y911860D02*
X689610Y911860D01*
X689610Y867040D01*
X685205Y862635D01*
X683260Y862635D01*
X732790Y911860D02*
X740410Y911860D01*
X732790Y911860D02*
X732790Y868985D01*
X737870Y863905D01*
X801370Y912370D02*
X808990Y912370D01*
X808990Y869580D01*
X803315Y863905D01*
X801370Y863905D01*
X853440Y910590D02*
X861060Y910590D01*
X853440Y910590D02*
X853440Y868310D01*
X859115Y862635D01*
X861060Y862635D01*
X638505Y673100D02*
X638505Y656895D01*
X647700Y647700D01*
X762000Y647700D01*
X918573Y804273D01*
X918573Y910219D01*
D23*
X108950Y711200D02*
X65554Y711200D01*
X63500Y713254D01*
X170450Y711200D02*
X203200Y711200D01*
D24*
X203200Y711200D03*
D22*
X328930Y688340D02*
X364490Y688340D01*
X328930Y688340D02*
X322580Y681990D01*
D24*
X322580Y681990D03*
X584200Y546100D03*
X584200Y622300D03*
D25*
X228600Y-165100D02*
X212395Y-165100D01*
D24*
X228600Y-165100D03*
D22*
X422910Y753364D02*
X431800Y762254D01*
X431800Y774700D01*
D24*
X431800Y774700D03*
D22*
X244805Y685800D02*
X228600Y685800D01*
X203200Y711200D01*
D26*
X63500Y713254D02*
X27454Y713254D01*
X25400Y711200D01*
D27*
X25400Y711200D03*
D28*
X584200Y736600D03*
D29*
X1054100Y165100D03*
X990600Y165100D03*
D30*
X990600Y127676D01*
X989829Y126904D01*
X1054100Y129676D02*
X1054100Y165100D01*
X1054100Y129676D02*
X1051329Y126904D01*
X991371Y126904D01*
X990600Y127676D01*
D23*
X67954Y688200D02*
X63500Y683746D01*
X67954Y688200D02*
X76200Y688200D01*
X108950Y688200D01*
X63500Y683746D02*
X25400Y645646D01*
X25400Y355600D01*
X25400Y-139700D01*
X152400Y-266700D01*
D24*
X711200Y533400D03*
D26*
X736600Y508000D01*
X736600Y469900D01*
X685800Y419100D01*
X406400Y419100D01*
X254000Y571500D01*
X177800Y647700D01*
X101600Y647700D01*
X76200Y673100D01*
X76200Y688200D01*
D31*
X266954Y571500D02*
X364490Y669036D01*
X266954Y571500D02*
X254000Y571500D01*
D26*
X101600Y355600D02*
X25400Y355600D01*
D22*
X295148Y701548D02*
X364490Y701548D01*
X295148Y701548D02*
X279400Y685800D01*
X263195Y685800D01*
D25*
X203200Y-12700D02*
X203200Y-41605D01*
X196850Y-47955D01*
D24*
X203200Y-12700D03*
D22*
X163830Y77470D02*
X339342Y-98042D01*
X440942Y-98042D01*
D31*
X532130Y-189230D01*
X637540Y-189230D01*
X165100Y78740D02*
X165100Y127000D01*
X165100Y78740D02*
X163830Y77470D01*
X165100Y127000D02*
X168605Y127000D01*
D32*
X292100Y76200D02*
X744790Y76200D01*
X899594Y231004D01*
X904538Y226060D01*
X1040130Y226060D01*
D25*
X1040130Y327660D02*
X711200Y327660D01*
X350520Y106680D01*
D33*
X297180Y106680D01*
X292100Y101600D01*
D32*
X899594Y249394D02*
X927060Y276860D01*
X1040130Y276860D01*
D25*
X194005Y-165100D02*
X194005Y-192270D01*
X194005Y-69190D02*
X196850Y-66345D01*
X194005Y-192270D02*
X319235Y-317500D01*
X433070Y-317500D01*
X194005Y-165100D02*
X194005Y-69190D01*
D31*
X139700Y444500D02*
X101600Y482600D01*
X139700Y444500D02*
X139700Y76200D01*
X330200Y-114300D01*
X431800Y-114300D01*
X495300Y-177800D01*
X495300Y-304800D01*
X457200Y-342900D01*
X433070Y-342900D01*
D24*
X326390Y670560D03*
D22*
X340042Y681990D02*
X364490Y681990D01*
X327501Y669449D02*
X326390Y670560D01*
X327501Y669449D02*
X340042Y681990D01*
D24*
X304800Y647700D03*
D22*
X317024Y659924D01*
X334804Y659924D01*
X350266Y675386D01*
X364490Y675386D01*
D24*
X641350Y511080D03*
D22*
X483394Y669036D01*
X422910Y669036D01*
D24*
X641350Y552450D03*
D22*
X615950Y552450D01*
X493014Y675386D01*
X422910Y675386D01*
D24*
X641350Y593090D03*
D22*
X600710Y593090D01*
X511810Y681990D01*
X422910Y681990D01*
D24*
X640080Y631190D03*
D22*
X575310Y631190D01*
X518160Y688340D01*
X422910Y688340D01*
D24*
X571500Y673100D03*
D22*
X554990Y673100D01*
X533146Y694944D01*
X422910Y694944D01*
D24*
X292100Y635000D03*
D22*
X292100Y673100D01*
X313436Y694436D01*
X363982Y694436D02*
X364490Y694944D01*
X363982Y694436D02*
X313436Y694436D01*
D26*
X108950Y734200D02*
X104000Y734200D01*
X44041Y794159D01*
X44041Y927100D01*
X60286Y943345D01*
X76200Y943345D01*
D23*
X108950Y734200D02*
X-2400Y734200D01*
X-25400Y711200D01*
X-25400Y685800D01*
D29*
X-25400Y685800D03*
D30*
X989829Y16904D02*
X1051329Y16904D01*
X1071004Y16904D02*
X989829Y16904D01*
X1071004Y16904D02*
X1092200Y38100D01*
X1092200Y533400D01*
X1066800Y558800D01*
X1041400Y558800D01*
D29*
X889000Y12700D03*
D30*
X985625Y12700D01*
X989829Y16904D01*
D26*
X215900Y127000D02*
X186995Y127000D01*
M02*
