G04 EAGLE Gerber RS-274X export*
G75*
%MOMM*%
%FSLAX34Y34*%
%LPD*%
%INBottom Copper*%
%IPPOS*%
%AMOC8*
5,1,8,0,0,1.08239X$1,22.5*%
G01*
G04 Define Apertures*
%ADD10C,1.524000*%
%ADD11R,1.031200X1.420200*%
%ADD12C,1.320800*%
%ADD13C,1.800000*%
%ADD14R,1.408000X1.408000*%
%ADD15C,1.408000*%
%ADD16C,0.806400*%
%ADD17C,0.254000*%
%ADD18C,1.056400*%
%ADD19C,0.756400*%
%ADD20C,1.500000*%
%ADD21C,1.270000*%
%ADD22C,0.406400*%
%ADD23C,1.016000*%
%ADD24C,2.540000*%
D10*
X83820Y917945D02*
X68580Y917945D01*
X68580Y943345D02*
X83820Y943345D01*
X83820Y968745D02*
X68580Y968745D01*
X561340Y913640D02*
X576580Y913640D01*
X576580Y939040D02*
X561340Y939040D01*
X561340Y964440D02*
X576580Y964440D01*
X618490Y911860D02*
X633730Y911860D01*
X633730Y937260D02*
X618490Y937260D01*
X618490Y962660D02*
X633730Y962660D01*
X674370Y911860D02*
X689610Y911860D01*
X689610Y937260D02*
X674370Y937260D01*
X674370Y962660D02*
X689610Y962660D01*
X732790Y911860D02*
X748030Y911860D01*
X748030Y937260D02*
X732790Y937260D01*
X732790Y962660D02*
X748030Y962660D01*
X793750Y912370D02*
X808990Y912370D01*
X808990Y937770D02*
X793750Y937770D01*
X793750Y963170D02*
X808990Y963170D01*
X853440Y910590D02*
X868680Y910590D01*
X868680Y935990D02*
X853440Y935990D01*
X853440Y961390D02*
X868680Y961390D01*
X910953Y910219D02*
X926193Y910219D01*
X926193Y935619D02*
X910953Y935619D01*
X910953Y961019D02*
X926193Y961019D01*
X109220Y533400D02*
X93980Y533400D01*
X93980Y508000D02*
X109220Y508000D01*
X109220Y482600D02*
X93980Y482600D01*
X93980Y457200D02*
X109220Y457200D01*
X109220Y431800D02*
X93980Y431800D01*
X93980Y406400D02*
X109220Y406400D01*
X109220Y381000D02*
X93980Y381000D01*
X93980Y355600D02*
X109220Y355600D01*
X109220Y330200D02*
X93980Y330200D01*
X93980Y304800D02*
X109220Y304800D01*
X109220Y279400D02*
X93980Y279400D01*
X93980Y254000D02*
X109220Y254000D01*
X109220Y228600D02*
X93980Y228600D01*
X93980Y203200D02*
X109220Y203200D01*
X425450Y-165100D02*
X440690Y-165100D01*
X440690Y-190500D02*
X425450Y-190500D01*
X425450Y-215900D02*
X440690Y-215900D01*
X440690Y-241300D02*
X425450Y-241300D01*
X425450Y-266700D02*
X440690Y-266700D01*
X440690Y-292100D02*
X425450Y-292100D01*
X425450Y-317500D02*
X440690Y-317500D01*
X440690Y-342900D02*
X425450Y-342900D01*
X425450Y-368300D02*
X440690Y-368300D01*
X440690Y-393700D02*
X425450Y-393700D01*
X425450Y-419100D02*
X440690Y-419100D01*
X440690Y-444500D02*
X425450Y-444500D01*
X629920Y-62230D02*
X645160Y-62230D01*
X645160Y-87630D02*
X629920Y-87630D01*
X629920Y-113030D02*
X645160Y-113030D01*
X645160Y-138430D02*
X629920Y-138430D01*
X629920Y-163830D02*
X645160Y-163830D01*
X645160Y-189230D02*
X629920Y-189230D01*
X629920Y-214630D02*
X645160Y-214630D01*
X645160Y-240030D02*
X629920Y-240030D01*
X629920Y-265430D02*
X645160Y-265430D01*
X645160Y-290830D02*
X629920Y-290830D01*
X629920Y-316230D02*
X645160Y-316230D01*
X645160Y-341630D02*
X629920Y-341630D01*
X629920Y-367030D02*
X645160Y-367030D01*
X645160Y-392430D02*
X629920Y-392430D01*
X629920Y-417830D02*
X645160Y-417830D01*
X645160Y-443230D02*
X629920Y-443230D01*
X134620Y918210D02*
X119380Y918210D01*
X119380Y943610D02*
X134620Y943610D01*
X134620Y969010D02*
X119380Y969010D01*
X172720Y918210D02*
X187960Y918210D01*
X187960Y943610D02*
X172720Y943610D01*
X172720Y969010D02*
X187960Y969010D01*
X228600Y916940D02*
X243840Y916940D01*
X243840Y942340D02*
X228600Y942340D01*
X228600Y967740D02*
X243840Y967740D01*
X280670Y916940D02*
X295910Y916940D01*
X295910Y942340D02*
X280670Y942340D01*
X280670Y967740D02*
X295910Y967740D01*
X335280Y915670D02*
X350520Y915670D01*
X350520Y941070D02*
X335280Y941070D01*
X335280Y966470D02*
X350520Y966470D01*
X391414Y916940D02*
X406654Y916940D01*
X406654Y942340D02*
X391414Y942340D01*
X391414Y967740D02*
X406654Y967740D01*
X445770Y914400D02*
X461010Y914400D01*
X461010Y939800D02*
X445770Y939800D01*
X445770Y965200D02*
X461010Y965200D01*
X505460Y914400D02*
X520700Y914400D01*
X520700Y939800D02*
X505460Y939800D01*
X505460Y965200D02*
X520700Y965200D01*
D11*
X600405Y533400D03*
X618795Y533400D03*
X600405Y571500D03*
X618795Y571500D03*
X600405Y609600D03*
X618795Y609600D03*
X600405Y647700D03*
X618795Y647700D03*
X600405Y685800D03*
X618795Y685800D03*
X600405Y723900D03*
X618795Y723900D03*
X663905Y533400D03*
X682295Y533400D03*
X663905Y571500D03*
X682295Y571500D03*
X663905Y609600D03*
X682295Y609600D03*
X663905Y647700D03*
X682295Y647700D03*
X663905Y685800D03*
X682295Y685800D03*
X663905Y723900D03*
X682295Y723900D03*
D12*
X152400Y-260096D02*
X152400Y-273304D01*
X152400Y-336296D02*
X152400Y-349504D01*
D13*
X1041400Y558800D03*
X1041400Y508000D03*
X1041400Y457200D03*
X1040130Y327660D03*
X1040130Y276860D03*
X1040130Y226060D03*
D14*
X215900Y127000D03*
D15*
X215900Y101600D03*
X215900Y76200D03*
X292100Y76200D03*
X292100Y101600D03*
X292100Y127000D03*
D16*
X203200Y711200D03*
X322580Y681990D03*
D17*
X587705Y533400D02*
X600405Y533400D01*
X587705Y533400D02*
X584200Y536905D01*
X584200Y546100D01*
D16*
X584200Y546100D03*
D17*
X584200Y555295D02*
X600405Y571500D01*
X584200Y555295D02*
X584200Y546100D01*
X600405Y609600D02*
X587705Y622300D01*
X584200Y622300D01*
D16*
X584200Y622300D03*
D17*
X584200Y631495D02*
X600405Y647700D01*
X584200Y631495D02*
X584200Y622300D01*
X584200Y723900D02*
X600405Y723900D01*
X584200Y702005D02*
X600405Y685800D01*
X584200Y702005D02*
X584200Y723900D01*
D16*
X228600Y-165100D03*
X431800Y774700D03*
D18*
X25400Y711200D03*
D17*
X584200Y723900D02*
X584200Y736600D01*
D19*
X584200Y736600D03*
D20*
X1054100Y165100D03*
X990600Y165100D03*
D21*
X711200Y533400D02*
X682295Y533400D01*
D16*
X711200Y533400D03*
D17*
X682295Y685800D02*
X682295Y723900D01*
X682295Y685800D02*
X682295Y647700D01*
X682295Y609600D01*
X682295Y571500D01*
X682295Y533400D01*
D16*
X203200Y-12700D03*
D21*
X533400Y88900D02*
X165100Y457200D01*
X101600Y457200D01*
X533400Y88900D02*
X533400Y-38100D01*
X582930Y-87630D01*
X637540Y-87630D01*
X165100Y457200D02*
X165100Y508000D01*
X139700Y533400D01*
X101600Y533400D01*
D22*
X0Y-292100D02*
X114300Y-406400D01*
X0Y-292100D02*
X0Y393700D01*
X38100Y431800D01*
X101600Y431800D01*
X114300Y-406400D02*
X346145Y-406400D01*
X382721Y-369824D01*
X382721Y-330200D02*
X382721Y-328676D01*
X382721Y-330200D02*
X382721Y-369824D01*
X382721Y-328676D02*
X382721Y-303079D01*
X393700Y-292100D01*
X433070Y-292100D01*
D17*
X595630Y-341630D02*
X637540Y-341630D01*
X595630Y-341630D02*
X469900Y-215900D01*
X469900Y-152400D01*
X444500Y-127000D01*
X279400Y-127000D01*
X25400Y127000D01*
X25400Y368300D01*
X63500Y406400D01*
X101600Y406400D01*
X101600Y381000D02*
X76200Y381000D01*
X50800Y355600D01*
X50800Y127000D01*
X292100Y-114300D01*
X457200Y-114300D01*
X571500Y-228600D01*
X571500Y-266700D01*
X621030Y-316230D01*
X637540Y-316230D01*
D21*
X241300Y-342900D02*
X152400Y-342900D01*
X241300Y-342900D02*
X368300Y-215900D01*
X433070Y-215900D01*
D16*
X326390Y670560D03*
X304800Y647700D03*
D23*
X635000Y533400D02*
X663905Y533400D01*
X635000Y533400D02*
X618795Y533400D01*
D17*
X635000Y533400D02*
X641350Y527050D01*
D16*
X641350Y511080D03*
D17*
X641350Y527050D01*
D23*
X647700Y571500D02*
X663905Y571500D01*
X647700Y571500D02*
X618795Y571500D01*
D17*
X647700Y571500D02*
X647700Y558800D01*
X641350Y552450D01*
D16*
X641350Y552450D03*
D23*
X635000Y609600D02*
X618795Y609600D01*
X635000Y609600D02*
X663905Y609600D01*
D17*
X641350Y603250D02*
X635000Y609600D01*
X641350Y603250D02*
X641350Y593090D01*
D16*
X641350Y593090D03*
D23*
X635000Y647700D02*
X618795Y647700D01*
X635000Y647700D02*
X663905Y647700D01*
D17*
X635000Y647700D02*
X635000Y636270D01*
X640080Y631190D01*
D16*
X640080Y631190D03*
D23*
X647700Y685800D02*
X618795Y685800D01*
X647700Y685800D02*
X663905Y685800D01*
D17*
X647700Y685800D02*
X628650Y666750D01*
X577850Y666750D01*
X571500Y673100D01*
D16*
X571500Y673100D03*
D23*
X618795Y723900D02*
X647700Y723900D01*
X663905Y723900D01*
D17*
X770890Y504190D02*
X685800Y419100D01*
X457200Y419100D01*
X292100Y584200D01*
X292100Y635000D01*
D16*
X292100Y635000D03*
D17*
X647700Y723900D02*
X673100Y749300D01*
X770890Y689613D02*
X770890Y504190D01*
X770890Y689613D02*
X711203Y749300D01*
X673100Y749300D01*
D20*
X-25400Y685800D03*
D24*
X76200Y584200D01*
X450782Y403606D02*
X579966Y262815D01*
X270188Y584200D02*
X76200Y584200D01*
X270188Y584200D02*
X450782Y403606D01*
X579966Y262815D02*
X830081Y12700D01*
X889000Y12700D01*
D20*
X889000Y12700D03*
M02*
