G04 EAGLE Gerber RS-274X export*
G75*
%MOMM*%
%FSLAX34Y34*%
%LPD*%
%INCopper Layer 2*%
%IPPOS*%
%AMOC8*
5,1,8,0,0,1.08239X$1,22.5*%
G01*
G04 Define Apertures*
%ADD10C,1.524000*%
%ADD11C,1.320800*%
%ADD12C,1.800000*%
%ADD13C,1.408000*%
%ADD14C,0.806400*%
%ADD15C,1.056400*%
%ADD16C,0.756400*%
%ADD17C,1.500000*%
G36*
X1119468Y-535774D02*
X1119170Y-535831D01*
X-113546Y-523624D01*
X-113813Y-523573D01*
X-114068Y-523410D01*
X-114240Y-523160D01*
X-114300Y-522862D01*
X-114300Y829096D01*
X-114215Y829445D01*
X-114026Y829682D01*
X-113759Y829826D01*
X-113457Y829854D01*
X-113168Y829762D01*
X-112937Y829565D01*
X-112802Y829293D01*
X-111294Y823664D01*
X-106336Y815076D01*
X-99324Y808065D01*
X-90736Y803106D01*
X-81158Y800540D01*
X-71242Y800540D01*
X-61664Y803106D01*
X-53076Y808065D01*
X-46065Y815076D01*
X-41106Y823664D01*
X-38540Y833242D01*
X-38540Y843158D01*
X-41106Y852736D01*
X-46065Y861324D01*
X-53076Y868336D01*
X-61664Y873294D01*
X-71242Y875860D01*
X-81158Y875860D01*
X-90736Y873294D01*
X-99324Y868336D01*
X-106336Y861324D01*
X-111294Y852736D01*
X-112802Y847107D01*
X-112974Y846791D01*
X-113219Y846612D01*
X-113514Y846542D01*
X-113813Y846593D01*
X-114068Y846757D01*
X-114240Y847007D01*
X-114300Y847304D01*
X-114300Y953677D01*
X-114215Y954026D01*
X-114026Y954263D01*
X-113759Y954406D01*
X-113457Y954435D01*
X-113168Y954343D01*
X-112937Y954146D01*
X-112802Y953874D01*
X-111263Y948129D01*
X-106305Y939542D01*
X-99293Y932530D01*
X-90705Y927572D01*
X-81127Y925005D01*
X-71211Y925005D01*
X-61633Y927572D01*
X-53045Y932530D01*
X-46034Y939542D01*
X-41076Y948129D01*
X-38509Y957707D01*
X-38509Y967623D01*
X-41076Y977202D01*
X-46034Y985789D01*
X-53045Y992801D01*
X-61633Y997759D01*
X-71211Y1000325D01*
X-81127Y1000325D01*
X-90705Y997759D01*
X-99293Y992801D01*
X-106305Y985789D01*
X-111263Y977202D01*
X-112802Y971457D01*
X-112974Y971141D01*
X-113219Y970962D01*
X-113514Y970892D01*
X-113813Y970943D01*
X-114068Y971106D01*
X-114240Y971357D01*
X-114300Y971654D01*
X-114300Y1011938D01*
X-114249Y1012213D01*
X-114085Y1012468D01*
X-113835Y1012640D01*
X-113538Y1012700D01*
X104047Y1012700D01*
X104055Y1012700D01*
X1119186Y1002648D01*
X1119453Y1002596D01*
X1119708Y1002433D01*
X1119880Y1002183D01*
X1119940Y1001886D01*
X1119940Y-535069D01*
X1119886Y-535351D01*
X1119720Y-535605D01*
X1119468Y-535774D01*
G37*
%LPC*%
G36*
X1049142Y914840D02*
X1059058Y914840D01*
X1068636Y917406D01*
X1077224Y922365D01*
X1084236Y929376D01*
X1089194Y937964D01*
X1091760Y947542D01*
X1091760Y957458D01*
X1089194Y967036D01*
X1084236Y975624D01*
X1077224Y982636D01*
X1068636Y987594D01*
X1059058Y990160D01*
X1049142Y990160D01*
X1039564Y987594D01*
X1030976Y982636D01*
X1023965Y975624D01*
X1019006Y967036D01*
X1016440Y957458D01*
X1016440Y947542D01*
X1019006Y937964D01*
X1023965Y929376D01*
X1030976Y922365D01*
X1039564Y917406D01*
X1049142Y914840D01*
G37*
G36*
X170180Y969772D02*
X179578Y969772D01*
X179578Y979170D01*
X178319Y979170D01*
X174585Y977623D01*
X171727Y974765D01*
X170180Y971031D01*
X170180Y969772D01*
G37*
G36*
X116840Y969772D02*
X126238Y969772D01*
X126238Y979170D01*
X124979Y979170D01*
X121245Y977623D01*
X118387Y974765D01*
X116840Y971031D01*
X116840Y969772D01*
G37*
G36*
X127762Y969772D02*
X137160Y969772D01*
X137160Y971031D01*
X135613Y974765D01*
X132755Y977623D01*
X129021Y979170D01*
X127762Y979170D01*
X127762Y969772D01*
G37*
G36*
X181102Y969772D02*
X190500Y969772D01*
X190500Y971031D01*
X188953Y974765D01*
X186095Y977623D01*
X182361Y979170D01*
X181102Y979170D01*
X181102Y969772D01*
G37*
G36*
X66040Y969507D02*
X75438Y969507D01*
X75438Y978905D01*
X74179Y978905D01*
X70445Y977358D01*
X67587Y974500D01*
X66040Y970766D01*
X66040Y969507D01*
G37*
G36*
X76962Y969507D02*
X86360Y969507D01*
X86360Y970766D01*
X84813Y974500D01*
X81955Y977358D01*
X78221Y978905D01*
X76962Y978905D01*
X76962Y969507D01*
G37*
G36*
X399796Y968502D02*
X409194Y968502D01*
X409194Y969761D01*
X407647Y973495D01*
X404789Y976353D01*
X401055Y977900D01*
X399796Y977900D01*
X399796Y968502D01*
G37*
G36*
X388874Y968502D02*
X398272Y968502D01*
X398272Y977900D01*
X397013Y977900D01*
X393279Y976353D01*
X390421Y973495D01*
X388874Y969761D01*
X388874Y968502D01*
G37*
G36*
X278130Y968502D02*
X287528Y968502D01*
X287528Y977900D01*
X286269Y977900D01*
X282535Y976353D01*
X279677Y973495D01*
X278130Y969761D01*
X278130Y968502D01*
G37*
G36*
X226060Y968502D02*
X235458Y968502D01*
X235458Y977900D01*
X234199Y977900D01*
X230465Y976353D01*
X227607Y973495D01*
X226060Y969761D01*
X226060Y968502D01*
G37*
G36*
X236982Y968502D02*
X246380Y968502D01*
X246380Y969761D01*
X244833Y973495D01*
X241975Y976353D01*
X238241Y977900D01*
X236982Y977900D01*
X236982Y968502D01*
G37*
G36*
X289052Y968502D02*
X298450Y968502D01*
X298450Y969761D01*
X296903Y973495D01*
X294045Y976353D01*
X290311Y977900D01*
X289052Y977900D01*
X289052Y968502D01*
G37*
G36*
X343662Y967232D02*
X353060Y967232D01*
X353060Y968491D01*
X351513Y972225D01*
X348655Y975083D01*
X344921Y976630D01*
X343662Y976630D01*
X343662Y967232D01*
G37*
G36*
X332740Y967232D02*
X342138Y967232D01*
X342138Y976630D01*
X340879Y976630D01*
X337145Y975083D01*
X334287Y972225D01*
X332740Y968491D01*
X332740Y967232D01*
G37*
G36*
X502920Y965962D02*
X512318Y965962D01*
X512318Y975360D01*
X511059Y975360D01*
X507325Y973813D01*
X504467Y970955D01*
X502920Y967221D01*
X502920Y965962D01*
G37*
G36*
X443230Y965962D02*
X452628Y965962D01*
X452628Y975360D01*
X451369Y975360D01*
X447635Y973813D01*
X444777Y970955D01*
X443230Y967221D01*
X443230Y965962D01*
G37*
G36*
X454152Y965962D02*
X463550Y965962D01*
X463550Y967221D01*
X462003Y970955D01*
X459145Y973813D01*
X455411Y975360D01*
X454152Y975360D01*
X454152Y965962D01*
G37*
G36*
X513842Y965962D02*
X523240Y965962D01*
X523240Y967221D01*
X521693Y970955D01*
X518835Y973813D01*
X515101Y975360D01*
X513842Y975360D01*
X513842Y965962D01*
G37*
G36*
X558800Y965202D02*
X568198Y965202D01*
X568198Y974600D01*
X566939Y974600D01*
X563205Y973053D01*
X560347Y970195D01*
X558800Y966461D01*
X558800Y965202D01*
G37*
G36*
X569722Y965202D02*
X579120Y965202D01*
X579120Y966461D01*
X577573Y970195D01*
X574715Y973053D01*
X570981Y974600D01*
X569722Y974600D01*
X569722Y965202D01*
G37*
G36*
X791210Y963932D02*
X800608Y963932D01*
X800608Y973330D01*
X799349Y973330D01*
X795615Y971783D01*
X792757Y968925D01*
X791210Y965191D01*
X791210Y963932D01*
G37*
G36*
X802132Y963932D02*
X811530Y963932D01*
X811530Y965191D01*
X809983Y968925D01*
X807125Y971783D01*
X803391Y973330D01*
X802132Y973330D01*
X802132Y963932D01*
G37*
G36*
X671830Y963422D02*
X681228Y963422D01*
X681228Y972820D01*
X679969Y972820D01*
X676235Y971273D01*
X673377Y968415D01*
X671830Y964681D01*
X671830Y963422D01*
G37*
G36*
X615950Y963422D02*
X625348Y963422D01*
X625348Y972820D01*
X624089Y972820D01*
X620355Y971273D01*
X617497Y968415D01*
X615950Y964681D01*
X615950Y963422D01*
G37*
G36*
X730250Y963422D02*
X739648Y963422D01*
X739648Y972820D01*
X738389Y972820D01*
X734655Y971273D01*
X731797Y968415D01*
X730250Y964681D01*
X730250Y963422D01*
G37*
G36*
X741172Y963422D02*
X750570Y963422D01*
X750570Y964681D01*
X749023Y968415D01*
X746165Y971273D01*
X742431Y972820D01*
X741172Y972820D01*
X741172Y963422D01*
G37*
G36*
X626872Y963422D02*
X636270Y963422D01*
X636270Y964681D01*
X634723Y968415D01*
X631865Y971273D01*
X628131Y972820D01*
X626872Y972820D01*
X626872Y963422D01*
G37*
G36*
X682752Y963422D02*
X692150Y963422D01*
X692150Y964681D01*
X690603Y968415D01*
X687745Y971273D01*
X684011Y972820D01*
X682752Y972820D01*
X682752Y963422D01*
G37*
G36*
X850900Y962152D02*
X860298Y962152D01*
X860298Y971550D01*
X859039Y971550D01*
X855305Y970003D01*
X852447Y967145D01*
X850900Y963411D01*
X850900Y962152D01*
G37*
G36*
X861822Y962152D02*
X871220Y962152D01*
X871220Y963411D01*
X869673Y967145D01*
X866815Y970003D01*
X863081Y971550D01*
X861822Y971550D01*
X861822Y962152D01*
G37*
G36*
X908413Y961781D02*
X917811Y961781D01*
X917811Y971179D01*
X916552Y971179D01*
X912818Y969632D01*
X909960Y966774D01*
X908413Y963040D01*
X908413Y961781D01*
G37*
G36*
X919335Y961781D02*
X928733Y961781D01*
X928733Y963040D01*
X927187Y966774D01*
X924329Y969632D01*
X920594Y971179D01*
X919335Y971179D01*
X919335Y961781D01*
G37*
G36*
X124979Y958850D02*
X126238Y958850D01*
X126238Y968248D01*
X116840Y968248D01*
X116840Y966989D01*
X118387Y963255D01*
X121245Y960397D01*
X124979Y958850D01*
G37*
G36*
X181102Y958850D02*
X182361Y958850D01*
X186095Y960397D01*
X188953Y963255D01*
X190500Y966989D01*
X190500Y968248D01*
X181102Y968248D01*
X181102Y958850D01*
G37*
G36*
X178319Y958850D02*
X179578Y958850D01*
X179578Y968248D01*
X170180Y968248D01*
X170180Y966989D01*
X171727Y963255D01*
X174585Y960397D01*
X178319Y958850D01*
G37*
G36*
X127762Y958850D02*
X129021Y958850D01*
X132755Y960397D01*
X135613Y963255D01*
X137160Y966989D01*
X137160Y968248D01*
X127762Y968248D01*
X127762Y958850D01*
G37*
G36*
X76962Y958585D02*
X78221Y958585D01*
X81955Y960132D01*
X84813Y962990D01*
X86360Y966724D01*
X86360Y967983D01*
X76962Y967983D01*
X76962Y958585D01*
G37*
G36*
X74179Y958585D02*
X75438Y958585D01*
X75438Y967983D01*
X66040Y967983D01*
X66040Y966724D01*
X67587Y962990D01*
X70445Y960132D01*
X74179Y958585D01*
G37*
G36*
X397013Y957580D02*
X398272Y957580D01*
X398272Y966978D01*
X388874Y966978D01*
X388874Y965719D01*
X390421Y961985D01*
X393279Y959127D01*
X397013Y957580D01*
G37*
G36*
X399796Y957580D02*
X401055Y957580D01*
X404789Y959127D01*
X407647Y961985D01*
X409194Y965719D01*
X409194Y966978D01*
X399796Y966978D01*
X399796Y957580D01*
G37*
G36*
X289052Y957580D02*
X290311Y957580D01*
X294045Y959127D01*
X296903Y961985D01*
X298450Y965719D01*
X298450Y966978D01*
X289052Y966978D01*
X289052Y957580D01*
G37*
G36*
X286269Y957580D02*
X287528Y957580D01*
X287528Y966978D01*
X278130Y966978D01*
X278130Y965719D01*
X279677Y961985D01*
X282535Y959127D01*
X286269Y957580D01*
G37*
G36*
X236982Y957580D02*
X238241Y957580D01*
X241975Y959127D01*
X244833Y961985D01*
X246380Y965719D01*
X246380Y966978D01*
X236982Y966978D01*
X236982Y957580D01*
G37*
G36*
X234199Y957580D02*
X235458Y957580D01*
X235458Y966978D01*
X226060Y966978D01*
X226060Y965719D01*
X227607Y961985D01*
X230465Y959127D01*
X234199Y957580D01*
G37*
G36*
X343662Y956310D02*
X344921Y956310D01*
X348655Y957857D01*
X351513Y960715D01*
X353060Y964449D01*
X353060Y965708D01*
X343662Y965708D01*
X343662Y956310D01*
G37*
G36*
X340879Y956310D02*
X342138Y956310D01*
X342138Y965708D01*
X332740Y965708D01*
X332740Y964449D01*
X334287Y960715D01*
X337145Y957857D01*
X340879Y956310D01*
G37*
G36*
X513842Y955040D02*
X515101Y955040D01*
X518835Y956587D01*
X521693Y959445D01*
X523240Y963179D01*
X523240Y964438D01*
X513842Y964438D01*
X513842Y955040D01*
G37*
G36*
X511059Y955040D02*
X512318Y955040D01*
X512318Y964438D01*
X502920Y964438D01*
X502920Y963179D01*
X504467Y959445D01*
X507325Y956587D01*
X511059Y955040D01*
G37*
G36*
X454152Y955040D02*
X455411Y955040D01*
X459145Y956587D01*
X462003Y959445D01*
X463550Y963179D01*
X463550Y964438D01*
X454152Y964438D01*
X454152Y955040D01*
G37*
G36*
X451369Y955040D02*
X452628Y955040D01*
X452628Y964438D01*
X443230Y964438D01*
X443230Y963179D01*
X444777Y959445D01*
X447635Y956587D01*
X451369Y955040D01*
G37*
G36*
X569722Y954280D02*
X570981Y954280D01*
X574715Y955827D01*
X577573Y958685D01*
X579120Y962419D01*
X579120Y963678D01*
X569722Y963678D01*
X569722Y954280D01*
G37*
G36*
X566939Y954280D02*
X568198Y954280D01*
X568198Y963678D01*
X558800Y963678D01*
X558800Y962419D01*
X560347Y958685D01*
X563205Y955827D01*
X566939Y954280D01*
G37*
G36*
X802132Y953010D02*
X803391Y953010D01*
X807125Y954557D01*
X809983Y957415D01*
X811530Y961149D01*
X811530Y962408D01*
X802132Y962408D01*
X802132Y953010D01*
G37*
G36*
X799349Y953010D02*
X800608Y953010D01*
X800608Y962408D01*
X791210Y962408D01*
X791210Y961149D01*
X792757Y957415D01*
X795615Y954557D01*
X799349Y953010D01*
G37*
G36*
X626872Y952500D02*
X628131Y952500D01*
X631865Y954047D01*
X634723Y956905D01*
X636270Y960639D01*
X636270Y961898D01*
X626872Y961898D01*
X626872Y952500D01*
G37*
G36*
X624089Y952500D02*
X625348Y952500D01*
X625348Y961898D01*
X615950Y961898D01*
X615950Y960639D01*
X617497Y956905D01*
X620355Y954047D01*
X624089Y952500D01*
G37*
G36*
X679969Y952500D02*
X681228Y952500D01*
X681228Y961898D01*
X671830Y961898D01*
X671830Y960639D01*
X673377Y956905D01*
X676235Y954047D01*
X679969Y952500D01*
G37*
G36*
X741172Y952500D02*
X742431Y952500D01*
X746165Y954047D01*
X749023Y956905D01*
X750570Y960639D01*
X750570Y961898D01*
X741172Y961898D01*
X741172Y952500D01*
G37*
G36*
X738389Y952500D02*
X739648Y952500D01*
X739648Y961898D01*
X730250Y961898D01*
X730250Y960639D01*
X731797Y956905D01*
X734655Y954047D01*
X738389Y952500D01*
G37*
G36*
X682752Y952500D02*
X684011Y952500D01*
X687745Y954047D01*
X690603Y956905D01*
X692150Y960639D01*
X692150Y961898D01*
X682752Y961898D01*
X682752Y952500D01*
G37*
G36*
X861822Y951230D02*
X863081Y951230D01*
X866815Y952777D01*
X869673Y955635D01*
X871220Y959369D01*
X871220Y960628D01*
X861822Y960628D01*
X861822Y951230D01*
G37*
G36*
X859039Y951230D02*
X860298Y951230D01*
X860298Y960628D01*
X850900Y960628D01*
X850900Y959369D01*
X852447Y955635D01*
X855305Y952777D01*
X859039Y951230D01*
G37*
G36*
X919335Y950859D02*
X920594Y950859D01*
X924329Y952406D01*
X927187Y955264D01*
X928733Y958998D01*
X928733Y960257D01*
X919335Y960257D01*
X919335Y950859D01*
G37*
G36*
X916552Y950859D02*
X917811Y950859D01*
X917811Y960257D01*
X908413Y960257D01*
X908413Y958998D01*
X909960Y955264D01*
X912818Y952406D01*
X916552Y950859D01*
G37*
G36*
X178521Y934466D02*
X182159Y934466D01*
X185520Y935858D01*
X188092Y938430D01*
X189484Y941791D01*
X189484Y945429D01*
X188092Y948790D01*
X185520Y951362D01*
X182159Y952754D01*
X178521Y952754D01*
X175160Y951362D01*
X172588Y948790D01*
X171196Y945429D01*
X171196Y941791D01*
X172588Y938430D01*
X175160Y935858D01*
X178521Y934466D01*
G37*
G36*
X125181Y934466D02*
X128819Y934466D01*
X132180Y935858D01*
X134752Y938430D01*
X136144Y941791D01*
X136144Y945429D01*
X134752Y948790D01*
X132180Y951362D01*
X128819Y952754D01*
X125181Y952754D01*
X121820Y951362D01*
X119248Y948790D01*
X117856Y945429D01*
X117856Y941791D01*
X119248Y938430D01*
X121820Y935858D01*
X125181Y934466D01*
G37*
G36*
X74381Y934201D02*
X78019Y934201D01*
X81380Y935593D01*
X83952Y938165D01*
X85344Y941526D01*
X85344Y945164D01*
X83952Y948525D01*
X81380Y951097D01*
X78019Y952489D01*
X74381Y952489D01*
X71020Y951097D01*
X68448Y948525D01*
X67056Y945164D01*
X67056Y941526D01*
X68448Y938165D01*
X71020Y935593D01*
X74381Y934201D01*
G37*
G36*
X397215Y933196D02*
X400853Y933196D01*
X404214Y934588D01*
X406786Y937160D01*
X408178Y940521D01*
X408178Y944159D01*
X406786Y947520D01*
X404214Y950092D01*
X400853Y951484D01*
X397215Y951484D01*
X393854Y950092D01*
X391282Y947520D01*
X389890Y944159D01*
X389890Y940521D01*
X391282Y937160D01*
X393854Y934588D01*
X397215Y933196D01*
G37*
G36*
X286471Y933196D02*
X290109Y933196D01*
X293470Y934588D01*
X296042Y937160D01*
X297434Y940521D01*
X297434Y944159D01*
X296042Y947520D01*
X293470Y950092D01*
X290109Y951484D01*
X286471Y951484D01*
X283110Y950092D01*
X280538Y947520D01*
X279146Y944159D01*
X279146Y940521D01*
X280538Y937160D01*
X283110Y934588D01*
X286471Y933196D01*
G37*
G36*
X234401Y933196D02*
X238039Y933196D01*
X241400Y934588D01*
X243972Y937160D01*
X245364Y940521D01*
X245364Y944159D01*
X243972Y947520D01*
X241400Y950092D01*
X238039Y951484D01*
X234401Y951484D01*
X231040Y950092D01*
X228468Y947520D01*
X227076Y944159D01*
X227076Y940521D01*
X228468Y937160D01*
X231040Y934588D01*
X234401Y933196D01*
G37*
G36*
X341081Y931926D02*
X344719Y931926D01*
X348080Y933318D01*
X350652Y935890D01*
X352044Y939251D01*
X352044Y942889D01*
X350652Y946250D01*
X348080Y948822D01*
X344719Y950214D01*
X341081Y950214D01*
X337720Y948822D01*
X335148Y946250D01*
X333756Y942889D01*
X333756Y939251D01*
X335148Y935890D01*
X337720Y933318D01*
X341081Y931926D01*
G37*
G36*
X451571Y930656D02*
X455209Y930656D01*
X458570Y932048D01*
X461142Y934620D01*
X462534Y937981D01*
X462534Y941619D01*
X461142Y944980D01*
X458570Y947552D01*
X455209Y948944D01*
X451571Y948944D01*
X448210Y947552D01*
X445638Y944980D01*
X444246Y941619D01*
X444246Y937981D01*
X445638Y934620D01*
X448210Y932048D01*
X451571Y930656D01*
G37*
G36*
X511261Y930656D02*
X514899Y930656D01*
X518260Y932048D01*
X520832Y934620D01*
X522224Y937981D01*
X522224Y941619D01*
X520832Y944980D01*
X518260Y947552D01*
X514899Y948944D01*
X511261Y948944D01*
X507900Y947552D01*
X505328Y944980D01*
X503936Y941619D01*
X503936Y937981D01*
X505328Y934620D01*
X507900Y932048D01*
X511261Y930656D01*
G37*
G36*
X567141Y929896D02*
X570779Y929896D01*
X574140Y931288D01*
X576712Y933860D01*
X578104Y937221D01*
X578104Y940859D01*
X576712Y944220D01*
X574140Y946792D01*
X570779Y948184D01*
X567141Y948184D01*
X563780Y946792D01*
X561208Y944220D01*
X559816Y940859D01*
X559816Y937221D01*
X561208Y933860D01*
X563780Y931288D01*
X567141Y929896D01*
G37*
G36*
X799551Y928626D02*
X803189Y928626D01*
X806550Y930018D01*
X809122Y932590D01*
X810514Y935951D01*
X810514Y939589D01*
X809122Y942950D01*
X806550Y945522D01*
X803189Y946914D01*
X799551Y946914D01*
X796190Y945522D01*
X793618Y942950D01*
X792226Y939589D01*
X792226Y935951D01*
X793618Y932590D01*
X796190Y930018D01*
X799551Y928626D01*
G37*
G36*
X624291Y928116D02*
X627929Y928116D01*
X631290Y929508D01*
X633862Y932080D01*
X635254Y935441D01*
X635254Y939079D01*
X633862Y942440D01*
X631290Y945012D01*
X627929Y946404D01*
X624291Y946404D01*
X620930Y945012D01*
X618358Y942440D01*
X616966Y939079D01*
X616966Y935441D01*
X618358Y932080D01*
X620930Y929508D01*
X624291Y928116D01*
G37*
G36*
X680171Y928116D02*
X683809Y928116D01*
X687170Y929508D01*
X689742Y932080D01*
X691134Y935441D01*
X691134Y939079D01*
X689742Y942440D01*
X687170Y945012D01*
X683809Y946404D01*
X680171Y946404D01*
X676810Y945012D01*
X674238Y942440D01*
X672846Y939079D01*
X672846Y935441D01*
X674238Y932080D01*
X676810Y929508D01*
X680171Y928116D01*
G37*
G36*
X738591Y928116D02*
X742229Y928116D01*
X745590Y929508D01*
X748162Y932080D01*
X749554Y935441D01*
X749554Y939079D01*
X748162Y942440D01*
X745590Y945012D01*
X742229Y946404D01*
X738591Y946404D01*
X735230Y945012D01*
X732658Y942440D01*
X731266Y939079D01*
X731266Y935441D01*
X732658Y932080D01*
X735230Y929508D01*
X738591Y928116D01*
G37*
G36*
X859241Y926846D02*
X862879Y926846D01*
X866240Y928238D01*
X868812Y930810D01*
X870204Y934171D01*
X870204Y937809D01*
X868812Y941170D01*
X866240Y943742D01*
X862879Y945134D01*
X859241Y945134D01*
X855880Y943742D01*
X853308Y941170D01*
X851916Y937809D01*
X851916Y934171D01*
X853308Y930810D01*
X855880Y928238D01*
X859241Y926846D01*
G37*
G36*
X916754Y926475D02*
X920392Y926475D01*
X923753Y927867D01*
X926325Y930439D01*
X927717Y933800D01*
X927717Y937438D01*
X926325Y940799D01*
X923753Y943371D01*
X920392Y944763D01*
X916754Y944763D01*
X913394Y943371D01*
X910821Y940799D01*
X909429Y937438D01*
X909429Y933800D01*
X910821Y930439D01*
X913394Y927867D01*
X916754Y926475D01*
G37*
G36*
X178521Y909066D02*
X182159Y909066D01*
X185520Y910458D01*
X188092Y913030D01*
X189484Y916391D01*
X189484Y920029D01*
X188092Y923390D01*
X185520Y925962D01*
X182159Y927354D01*
X178521Y927354D01*
X175160Y925962D01*
X172588Y923390D01*
X171196Y920029D01*
X171196Y916391D01*
X172588Y913030D01*
X175160Y910458D01*
X178521Y909066D01*
G37*
G36*
X125181Y909066D02*
X128819Y909066D01*
X132180Y910458D01*
X134752Y913030D01*
X136144Y916391D01*
X136144Y920029D01*
X134752Y923390D01*
X132180Y925962D01*
X128819Y927354D01*
X125181Y927354D01*
X121820Y925962D01*
X119248Y923390D01*
X117856Y920029D01*
X117856Y916391D01*
X119248Y913030D01*
X121820Y910458D01*
X125181Y909066D01*
G37*
G36*
X74381Y908801D02*
X78019Y908801D01*
X81380Y910193D01*
X83952Y912765D01*
X85344Y916126D01*
X85344Y919764D01*
X83952Y923125D01*
X81380Y925697D01*
X78019Y927089D01*
X74381Y927089D01*
X71020Y925697D01*
X68448Y923125D01*
X67056Y919764D01*
X67056Y916126D01*
X68448Y912765D01*
X71020Y910193D01*
X74381Y908801D01*
G37*
G36*
X286471Y907796D02*
X290109Y907796D01*
X293470Y909188D01*
X296042Y911760D01*
X297434Y915121D01*
X297434Y918759D01*
X296042Y922120D01*
X293470Y924692D01*
X290109Y926084D01*
X286471Y926084D01*
X283110Y924692D01*
X280538Y922120D01*
X279146Y918759D01*
X279146Y915121D01*
X280538Y911760D01*
X283110Y909188D01*
X286471Y907796D01*
G37*
G36*
X397215Y907796D02*
X400853Y907796D01*
X404214Y909188D01*
X406786Y911760D01*
X408178Y915121D01*
X408178Y918759D01*
X406786Y922120D01*
X404214Y924692D01*
X400853Y926084D01*
X397215Y926084D01*
X393854Y924692D01*
X391282Y922120D01*
X389890Y918759D01*
X389890Y915121D01*
X391282Y911760D01*
X393854Y909188D01*
X397215Y907796D01*
G37*
G36*
X234401Y907796D02*
X238039Y907796D01*
X241400Y909188D01*
X243972Y911760D01*
X245364Y915121D01*
X245364Y918759D01*
X243972Y922120D01*
X241400Y924692D01*
X238039Y926084D01*
X234401Y926084D01*
X231040Y924692D01*
X228468Y922120D01*
X227076Y918759D01*
X227076Y915121D01*
X228468Y911760D01*
X231040Y909188D01*
X234401Y907796D01*
G37*
G36*
X341081Y906526D02*
X344719Y906526D01*
X348080Y907918D01*
X350652Y910490D01*
X352044Y913851D01*
X352044Y917489D01*
X350652Y920850D01*
X348080Y923422D01*
X344719Y924814D01*
X341081Y924814D01*
X337720Y923422D01*
X335148Y920850D01*
X333756Y917489D01*
X333756Y913851D01*
X335148Y910490D01*
X337720Y907918D01*
X341081Y906526D01*
G37*
G36*
X511261Y905256D02*
X514899Y905256D01*
X518260Y906648D01*
X520832Y909220D01*
X522224Y912581D01*
X522224Y916219D01*
X520832Y919580D01*
X518260Y922152D01*
X514899Y923544D01*
X511261Y923544D01*
X507900Y922152D01*
X505328Y919580D01*
X503936Y916219D01*
X503936Y912581D01*
X505328Y909220D01*
X507900Y906648D01*
X511261Y905256D01*
G37*
G36*
X451571Y905256D02*
X455209Y905256D01*
X458570Y906648D01*
X461142Y909220D01*
X462534Y912581D01*
X462534Y916219D01*
X461142Y919580D01*
X458570Y922152D01*
X455209Y923544D01*
X451571Y923544D01*
X448210Y922152D01*
X445638Y919580D01*
X444246Y916219D01*
X444246Y912581D01*
X445638Y909220D01*
X448210Y906648D01*
X451571Y905256D01*
G37*
G36*
X567141Y904496D02*
X570779Y904496D01*
X574140Y905888D01*
X576712Y908460D01*
X578104Y911821D01*
X578104Y915459D01*
X576712Y918820D01*
X574140Y921392D01*
X570779Y922784D01*
X567141Y922784D01*
X563780Y921392D01*
X561208Y918820D01*
X559816Y915459D01*
X559816Y911821D01*
X561208Y908460D01*
X563780Y905888D01*
X567141Y904496D01*
G37*
G36*
X799551Y903226D02*
X803189Y903226D01*
X806550Y904618D01*
X809122Y907190D01*
X810514Y910551D01*
X810514Y914189D01*
X809122Y917550D01*
X806550Y920122D01*
X803189Y921514D01*
X799551Y921514D01*
X796190Y920122D01*
X793618Y917550D01*
X792226Y914189D01*
X792226Y910551D01*
X793618Y907190D01*
X796190Y904618D01*
X799551Y903226D01*
G37*
G36*
X738591Y902716D02*
X742229Y902716D01*
X745590Y904108D01*
X748162Y906680D01*
X749554Y910041D01*
X749554Y913679D01*
X748162Y917040D01*
X745590Y919612D01*
X742229Y921004D01*
X738591Y921004D01*
X735230Y919612D01*
X732658Y917040D01*
X731266Y913679D01*
X731266Y910041D01*
X732658Y906680D01*
X735230Y904108D01*
X738591Y902716D01*
G37*
G36*
X680171Y902716D02*
X683809Y902716D01*
X687170Y904108D01*
X689742Y906680D01*
X691134Y910041D01*
X691134Y913679D01*
X689742Y917040D01*
X687170Y919612D01*
X683809Y921004D01*
X680171Y921004D01*
X676810Y919612D01*
X674238Y917040D01*
X672846Y913679D01*
X672846Y910041D01*
X674238Y906680D01*
X676810Y904108D01*
X680171Y902716D01*
G37*
G36*
X624291Y902716D02*
X627929Y902716D01*
X631290Y904108D01*
X633862Y906680D01*
X635254Y910041D01*
X635254Y913679D01*
X633862Y917040D01*
X631290Y919612D01*
X627929Y921004D01*
X624291Y921004D01*
X620930Y919612D01*
X618358Y917040D01*
X616966Y913679D01*
X616966Y910041D01*
X618358Y906680D01*
X620930Y904108D01*
X624291Y902716D01*
G37*
G36*
X859241Y901446D02*
X862879Y901446D01*
X866240Y902838D01*
X868812Y905410D01*
X870204Y908771D01*
X870204Y912409D01*
X868812Y915770D01*
X866240Y918342D01*
X862879Y919734D01*
X859241Y919734D01*
X855880Y918342D01*
X853308Y915770D01*
X851916Y912409D01*
X851916Y908771D01*
X853308Y905410D01*
X855880Y902838D01*
X859241Y901446D01*
G37*
G36*
X916754Y901075D02*
X920392Y901075D01*
X923753Y902467D01*
X926325Y905039D01*
X927717Y908400D01*
X927717Y912038D01*
X926325Y915399D01*
X923753Y917971D01*
X920392Y919363D01*
X916754Y919363D01*
X913394Y917971D01*
X910821Y915399D01*
X909429Y912038D01*
X909429Y908400D01*
X910821Y905039D01*
X913394Y902467D01*
X916754Y901075D01*
G37*
G36*
X1049142Y800540D02*
X1059058Y800540D01*
X1068636Y803106D01*
X1077224Y808065D01*
X1084236Y815076D01*
X1089194Y823664D01*
X1091760Y833242D01*
X1091760Y843158D01*
X1089194Y852736D01*
X1084236Y861324D01*
X1077224Y868336D01*
X1068636Y873294D01*
X1059058Y875860D01*
X1049142Y875860D01*
X1039564Y873294D01*
X1030976Y868336D01*
X1023965Y861324D01*
X1019006Y852736D01*
X1016440Y843158D01*
X1016440Y833242D01*
X1019006Y823664D01*
X1023965Y815076D01*
X1030976Y808065D01*
X1039564Y803106D01*
X1049142Y800540D01*
G37*
G36*
X-27195Y676776D02*
X-23605Y676776D01*
X-20288Y678150D01*
X-17750Y680688D01*
X-16376Y684005D01*
X-16376Y687595D01*
X-17750Y690912D01*
X-20288Y693450D01*
X-23605Y694824D01*
X-27195Y694824D01*
X-30512Y693450D01*
X-33050Y690912D01*
X-34424Y687595D01*
X-34424Y684005D01*
X-33050Y680688D01*
X-30512Y678150D01*
X-27195Y676776D01*
G37*
G36*
X570395Y667544D02*
X572605Y667544D01*
X574647Y668390D01*
X576210Y669953D01*
X577056Y671995D01*
X577056Y674205D01*
X576210Y676247D01*
X574647Y677810D01*
X572605Y678656D01*
X570395Y678656D01*
X568353Y677810D01*
X566790Y676247D01*
X565944Y674205D01*
X565944Y671995D01*
X566790Y669953D01*
X568353Y668390D01*
X570395Y667544D01*
G37*
G36*
X325285Y665004D02*
X327495Y665004D01*
X329537Y665850D01*
X331100Y667413D01*
X331946Y669455D01*
X331946Y671665D01*
X331100Y673707D01*
X329537Y675270D01*
X327495Y676116D01*
X325285Y676116D01*
X323243Y675270D01*
X321680Y673707D01*
X320834Y671665D01*
X320834Y669455D01*
X321680Y667413D01*
X323243Y665850D01*
X325285Y665004D01*
G37*
G36*
X303695Y642144D02*
X305905Y642144D01*
X307947Y642990D01*
X309510Y644553D01*
X310356Y646595D01*
X310356Y648805D01*
X309510Y650847D01*
X307947Y652410D01*
X305905Y653256D01*
X303695Y653256D01*
X301653Y652410D01*
X300090Y650847D01*
X299244Y648805D01*
X299244Y646595D01*
X300090Y644553D01*
X301653Y642990D01*
X303695Y642144D01*
G37*
G36*
X290995Y629444D02*
X293205Y629444D01*
X295247Y630290D01*
X296810Y631853D01*
X297656Y633895D01*
X297656Y636105D01*
X296810Y638147D01*
X295247Y639710D01*
X293205Y640556D01*
X290995Y640556D01*
X288953Y639710D01*
X287390Y638147D01*
X286544Y636105D01*
X286544Y633895D01*
X287390Y631853D01*
X288953Y630290D01*
X290995Y629444D01*
G37*
G36*
X638975Y625634D02*
X641185Y625634D01*
X643227Y626480D01*
X644790Y628043D01*
X645636Y630085D01*
X645636Y632295D01*
X644790Y634337D01*
X643227Y635900D01*
X641185Y636746D01*
X638975Y636746D01*
X636933Y635900D01*
X635370Y634337D01*
X634524Y632295D01*
X634524Y630085D01*
X635370Y628043D01*
X636933Y626480D01*
X638975Y625634D01*
G37*
G36*
X640245Y587534D02*
X642455Y587534D01*
X644497Y588380D01*
X646060Y589943D01*
X646906Y591985D01*
X646906Y594195D01*
X646060Y596237D01*
X644497Y597800D01*
X642455Y598646D01*
X640245Y598646D01*
X638203Y597800D01*
X636640Y596237D01*
X635794Y594195D01*
X635794Y591985D01*
X636640Y589943D01*
X638203Y588380D01*
X640245Y587534D01*
G37*
G36*
X1039307Y548276D02*
X1043493Y548276D01*
X1047361Y549878D01*
X1050322Y552839D01*
X1051924Y556707D01*
X1051924Y560893D01*
X1050322Y564761D01*
X1047361Y567722D01*
X1043493Y569324D01*
X1039307Y569324D01*
X1035439Y567722D01*
X1032478Y564761D01*
X1030876Y560893D01*
X1030876Y556707D01*
X1032478Y552839D01*
X1035439Y549878D01*
X1039307Y548276D01*
G37*
G36*
X640245Y546894D02*
X642455Y546894D01*
X644497Y547740D01*
X646060Y549303D01*
X646906Y551345D01*
X646906Y553555D01*
X646060Y555597D01*
X644497Y557160D01*
X642455Y558006D01*
X640245Y558006D01*
X638203Y557160D01*
X636640Y555597D01*
X635794Y553555D01*
X635794Y551345D01*
X636640Y549303D01*
X638203Y547740D01*
X640245Y546894D01*
G37*
G36*
X99781Y524256D02*
X103419Y524256D01*
X106780Y525648D01*
X109352Y528220D01*
X110744Y531581D01*
X110744Y535219D01*
X109352Y538580D01*
X106780Y541152D01*
X103419Y542544D01*
X99781Y542544D01*
X96420Y541152D01*
X93848Y538580D01*
X92456Y535219D01*
X92456Y531581D01*
X93848Y528220D01*
X96420Y525648D01*
X99781Y524256D01*
G37*
G36*
X710095Y527844D02*
X712305Y527844D01*
X714347Y528690D01*
X715910Y530253D01*
X716756Y532295D01*
X716756Y534505D01*
X715910Y536547D01*
X714347Y538110D01*
X712305Y538956D01*
X710095Y538956D01*
X708053Y538110D01*
X706490Y536547D01*
X705644Y534505D01*
X705644Y532295D01*
X706490Y530253D01*
X708053Y528690D01*
X710095Y527844D01*
G37*
G36*
X1029860Y508762D02*
X1040638Y508762D01*
X1040638Y519540D01*
X1039105Y519540D01*
X1034863Y517783D01*
X1031617Y514537D01*
X1029860Y510295D01*
X1029860Y508762D01*
G37*
G36*
X1042162Y508762D02*
X1052940Y508762D01*
X1052940Y510295D01*
X1051183Y514537D01*
X1047937Y517783D01*
X1043695Y519540D01*
X1042162Y519540D01*
X1042162Y508762D01*
G37*
G36*
X91440Y508762D02*
X100838Y508762D01*
X100838Y518160D01*
X99579Y518160D01*
X95845Y516613D01*
X92987Y513755D01*
X91440Y510021D01*
X91440Y508762D01*
G37*
G36*
X102362Y508762D02*
X111760Y508762D01*
X111760Y510021D01*
X110213Y513755D01*
X107355Y516613D01*
X103621Y518160D01*
X102362Y518160D01*
X102362Y508762D01*
G37*
G36*
X640245Y505524D02*
X642455Y505524D01*
X644497Y506370D01*
X646060Y507933D01*
X646906Y509975D01*
X646906Y512185D01*
X646060Y514227D01*
X644497Y515790D01*
X642455Y516636D01*
X640245Y516636D01*
X638203Y515790D01*
X636640Y514227D01*
X635794Y512185D01*
X635794Y509975D01*
X636640Y507933D01*
X638203Y506370D01*
X640245Y505524D01*
G37*
G36*
X1042162Y496460D02*
X1043695Y496460D01*
X1047937Y498217D01*
X1051183Y501463D01*
X1052940Y505705D01*
X1052940Y507238D01*
X1042162Y507238D01*
X1042162Y496460D01*
G37*
G36*
X1039105Y496460D02*
X1040638Y496460D01*
X1040638Y507238D01*
X1029860Y507238D01*
X1029860Y505705D01*
X1031617Y501463D01*
X1034863Y498217D01*
X1039105Y496460D01*
G37*
G36*
X102362Y497840D02*
X103621Y497840D01*
X107355Y499387D01*
X110213Y502245D01*
X111760Y505979D01*
X111760Y507238D01*
X102362Y507238D01*
X102362Y497840D01*
G37*
G36*
X99579Y497840D02*
X100838Y497840D01*
X100838Y507238D01*
X91440Y507238D01*
X91440Y505979D01*
X92987Y502245D01*
X95845Y499387D01*
X99579Y497840D01*
G37*
G36*
X99781Y473456D02*
X103419Y473456D01*
X106780Y474848D01*
X109352Y477420D01*
X110744Y480781D01*
X110744Y484419D01*
X109352Y487780D01*
X106780Y490352D01*
X103419Y491744D01*
X99781Y491744D01*
X96420Y490352D01*
X93848Y487780D01*
X92456Y484419D01*
X92456Y480781D01*
X93848Y477420D01*
X96420Y474848D01*
X99781Y473456D01*
G37*
G36*
X1039307Y446676D02*
X1043493Y446676D01*
X1047361Y448278D01*
X1050322Y451239D01*
X1051924Y455107D01*
X1051924Y459293D01*
X1050322Y463161D01*
X1047361Y466122D01*
X1043493Y467724D01*
X1039307Y467724D01*
X1035439Y466122D01*
X1032478Y463161D01*
X1030876Y459293D01*
X1030876Y455107D01*
X1032478Y451239D01*
X1035439Y448278D01*
X1039307Y446676D01*
G37*
G36*
X99781Y448056D02*
X103419Y448056D01*
X106780Y449448D01*
X109352Y452020D01*
X110744Y455381D01*
X110744Y459019D01*
X109352Y462380D01*
X106780Y464952D01*
X103419Y466344D01*
X99781Y466344D01*
X96420Y464952D01*
X93848Y462380D01*
X92456Y459019D01*
X92456Y455381D01*
X93848Y452020D01*
X96420Y449448D01*
X99781Y448056D01*
G37*
G36*
X99781Y422656D02*
X103419Y422656D01*
X106780Y424048D01*
X109352Y426620D01*
X110744Y429981D01*
X110744Y433619D01*
X109352Y436980D01*
X106780Y439552D01*
X103419Y440944D01*
X99781Y440944D01*
X96420Y439552D01*
X93848Y436980D01*
X92456Y433619D01*
X92456Y429981D01*
X93848Y426620D01*
X96420Y424048D01*
X99781Y422656D01*
G37*
G36*
X99781Y397256D02*
X103419Y397256D01*
X106780Y398648D01*
X109352Y401220D01*
X110744Y404581D01*
X110744Y408219D01*
X109352Y411580D01*
X106780Y414152D01*
X103419Y415544D01*
X99781Y415544D01*
X96420Y414152D01*
X93848Y411580D01*
X92456Y408219D01*
X92456Y404581D01*
X93848Y401220D01*
X96420Y398648D01*
X99781Y397256D01*
G37*
G36*
X99781Y371856D02*
X103419Y371856D01*
X106780Y373248D01*
X109352Y375820D01*
X110744Y379181D01*
X110744Y382819D01*
X109352Y386180D01*
X106780Y388752D01*
X103419Y390144D01*
X99781Y390144D01*
X96420Y388752D01*
X93848Y386180D01*
X92456Y382819D01*
X92456Y379181D01*
X93848Y375820D01*
X96420Y373248D01*
X99781Y371856D01*
G37*
G36*
X99781Y346456D02*
X103419Y346456D01*
X106780Y347848D01*
X109352Y350420D01*
X110744Y353781D01*
X110744Y357419D01*
X109352Y360780D01*
X106780Y363352D01*
X103419Y364744D01*
X99781Y364744D01*
X96420Y363352D01*
X93848Y360780D01*
X92456Y357419D01*
X92456Y353781D01*
X93848Y350420D01*
X96420Y347848D01*
X99781Y346456D01*
G37*
G36*
X99781Y321056D02*
X103419Y321056D01*
X106780Y322448D01*
X109352Y325020D01*
X110744Y328381D01*
X110744Y332019D01*
X109352Y335380D01*
X106780Y337952D01*
X103419Y339344D01*
X99781Y339344D01*
X96420Y337952D01*
X93848Y335380D01*
X92456Y332019D01*
X92456Y328381D01*
X93848Y325020D01*
X96420Y322448D01*
X99781Y321056D01*
G37*
G36*
X1038037Y317136D02*
X1042223Y317136D01*
X1046091Y318738D01*
X1049052Y321699D01*
X1050654Y325567D01*
X1050654Y329753D01*
X1049052Y333621D01*
X1046091Y336582D01*
X1042223Y338184D01*
X1038037Y338184D01*
X1034169Y336582D01*
X1031208Y333621D01*
X1029606Y329753D01*
X1029606Y325567D01*
X1031208Y321699D01*
X1034169Y318738D01*
X1038037Y317136D01*
G37*
G36*
X99781Y295656D02*
X103419Y295656D01*
X106780Y297048D01*
X109352Y299620D01*
X110744Y302981D01*
X110744Y306619D01*
X109352Y309980D01*
X106780Y312552D01*
X103419Y313944D01*
X99781Y313944D01*
X96420Y312552D01*
X93848Y309980D01*
X92456Y306619D01*
X92456Y302981D01*
X93848Y299620D01*
X96420Y297048D01*
X99781Y295656D01*
G37*
G36*
X99781Y270256D02*
X103419Y270256D01*
X106780Y271648D01*
X109352Y274220D01*
X110744Y277581D01*
X110744Y281219D01*
X109352Y284580D01*
X106780Y287152D01*
X103419Y288544D01*
X99781Y288544D01*
X96420Y287152D01*
X93848Y284580D01*
X92456Y281219D01*
X92456Y277581D01*
X93848Y274220D01*
X96420Y271648D01*
X99781Y270256D01*
G37*
G36*
X1038037Y266336D02*
X1042223Y266336D01*
X1046091Y267938D01*
X1049052Y270899D01*
X1050654Y274767D01*
X1050654Y278953D01*
X1049052Y282821D01*
X1046091Y285782D01*
X1042223Y287384D01*
X1038037Y287384D01*
X1034169Y285782D01*
X1031208Y282821D01*
X1029606Y278953D01*
X1029606Y274767D01*
X1031208Y270899D01*
X1034169Y267938D01*
X1038037Y266336D01*
G37*
G36*
X99781Y244856D02*
X103419Y244856D01*
X106780Y246248D01*
X109352Y248820D01*
X110744Y252181D01*
X110744Y255819D01*
X109352Y259180D01*
X106780Y261752D01*
X103419Y263144D01*
X99781Y263144D01*
X96420Y261752D01*
X93848Y259180D01*
X92456Y255819D01*
X92456Y252181D01*
X93848Y248820D01*
X96420Y246248D01*
X99781Y244856D01*
G37*
G36*
X99781Y219456D02*
X103419Y219456D01*
X106780Y220848D01*
X109352Y223420D01*
X110744Y226781D01*
X110744Y230419D01*
X109352Y233780D01*
X106780Y236352D01*
X103419Y237744D01*
X99781Y237744D01*
X96420Y236352D01*
X93848Y233780D01*
X92456Y230419D01*
X92456Y226781D01*
X93848Y223420D01*
X96420Y220848D01*
X99781Y219456D01*
G37*
G36*
X1038037Y215536D02*
X1042223Y215536D01*
X1046091Y217138D01*
X1049052Y220099D01*
X1050654Y223967D01*
X1050654Y228153D01*
X1049052Y232021D01*
X1046091Y234982D01*
X1042223Y236584D01*
X1038037Y236584D01*
X1034169Y234982D01*
X1031208Y232021D01*
X1029606Y228153D01*
X1029606Y223967D01*
X1031208Y220099D01*
X1034169Y217138D01*
X1038037Y215536D01*
G37*
G36*
X99781Y194056D02*
X103419Y194056D01*
X106780Y195448D01*
X109352Y198020D01*
X110744Y201381D01*
X110744Y205019D01*
X109352Y208380D01*
X106780Y210952D01*
X103419Y212344D01*
X99781Y212344D01*
X96420Y210952D01*
X93848Y208380D01*
X92456Y205019D01*
X92456Y201381D01*
X93848Y198020D01*
X96420Y195448D01*
X99781Y194056D01*
G37*
G36*
X290397Y118436D02*
X293804Y118436D01*
X296951Y119740D01*
X299360Y122149D01*
X300664Y125297D01*
X300664Y128704D01*
X299360Y131851D01*
X296951Y134260D01*
X293804Y135564D01*
X290397Y135564D01*
X287249Y134260D01*
X284840Y131851D01*
X283536Y128704D01*
X283536Y125297D01*
X284840Y122149D01*
X287249Y119740D01*
X290397Y118436D01*
G37*
G36*
X214197Y118436D02*
X217604Y118436D01*
X220751Y119740D01*
X223160Y122149D01*
X224464Y125297D01*
X224464Y128704D01*
X223160Y131851D01*
X220751Y134260D01*
X217604Y135564D01*
X214197Y135564D01*
X211049Y134260D01*
X208640Y131851D01*
X207336Y128704D01*
X207336Y125297D01*
X208640Y122149D01*
X211049Y119740D01*
X214197Y118436D01*
G37*
G36*
X206320Y102362D02*
X215138Y102362D01*
X215138Y111180D01*
X213994Y111180D01*
X210473Y109722D01*
X207778Y107027D01*
X206320Y103506D01*
X206320Y102362D01*
G37*
G36*
X216662Y102362D02*
X225480Y102362D01*
X225480Y103506D01*
X224022Y107027D01*
X221327Y109722D01*
X217806Y111180D01*
X216662Y111180D01*
X216662Y102362D01*
G37*
G36*
X290397Y93036D02*
X293804Y93036D01*
X296951Y94340D01*
X299360Y96749D01*
X300664Y99897D01*
X300664Y103304D01*
X299360Y106451D01*
X296951Y108860D01*
X293804Y110164D01*
X290397Y110164D01*
X287249Y108860D01*
X284840Y106451D01*
X283536Y103304D01*
X283536Y99897D01*
X284840Y96749D01*
X287249Y94340D01*
X290397Y93036D01*
G37*
G36*
X216662Y92020D02*
X217806Y92020D01*
X221327Y93478D01*
X224022Y96173D01*
X225480Y99694D01*
X225480Y100838D01*
X216662Y100838D01*
X216662Y92020D01*
G37*
G36*
X213994Y92020D02*
X215138Y92020D01*
X215138Y100838D01*
X206320Y100838D01*
X206320Y99694D01*
X207778Y96173D01*
X210473Y93478D01*
X213994Y92020D01*
G37*
G36*
X1002418Y52244D02*
X1010239Y52244D01*
X1017465Y55237D01*
X1022996Y60768D01*
X1025989Y67993D01*
X1025989Y75815D01*
X1022996Y83041D01*
X1017465Y88571D01*
X1010239Y91564D01*
X1002418Y91564D01*
X995192Y88571D01*
X989662Y83041D01*
X986669Y75815D01*
X986669Y67993D01*
X989662Y60768D01*
X995192Y55237D01*
X1002418Y52244D01*
G37*
G36*
X1047617Y53244D02*
X1055040Y53244D01*
X1061899Y56085D01*
X1067148Y61334D01*
X1069989Y68192D01*
X1069989Y75616D01*
X1067148Y82474D01*
X1061899Y87723D01*
X1055040Y90564D01*
X1047617Y90564D01*
X1040759Y87723D01*
X1035509Y82474D01*
X1032669Y75616D01*
X1032669Y68192D01*
X1035509Y61334D01*
X1040759Y56085D01*
X1047617Y53244D01*
G37*
G36*
X214197Y67636D02*
X217604Y67636D01*
X220751Y68940D01*
X223160Y71349D01*
X224464Y74497D01*
X224464Y77904D01*
X223160Y81051D01*
X220751Y83460D01*
X217604Y84764D01*
X214197Y84764D01*
X211049Y83460D01*
X208640Y81051D01*
X207336Y77904D01*
X207336Y74497D01*
X208640Y71349D01*
X211049Y68940D01*
X214197Y67636D01*
G37*
G36*
X290397Y67636D02*
X293804Y67636D01*
X296951Y68940D01*
X299360Y71349D01*
X300664Y74497D01*
X300664Y77904D01*
X299360Y81051D01*
X296951Y83460D01*
X293804Y84764D01*
X290397Y84764D01*
X287249Y83460D01*
X284840Y81051D01*
X283536Y77904D01*
X283536Y74497D01*
X284840Y71349D01*
X287249Y68940D01*
X290397Y67636D01*
G37*
G36*
X887205Y3676D02*
X890795Y3676D01*
X894112Y5050D01*
X896650Y7588D01*
X898024Y10905D01*
X898024Y14495D01*
X896650Y17812D01*
X894112Y20350D01*
X890795Y21724D01*
X887205Y21724D01*
X883888Y20350D01*
X881350Y17812D01*
X879976Y14495D01*
X879976Y10905D01*
X881350Y7588D01*
X883888Y5050D01*
X887205Y3676D01*
G37*
G36*
X202095Y-18256D02*
X204305Y-18256D01*
X206347Y-17410D01*
X207910Y-15847D01*
X208756Y-13805D01*
X208756Y-11595D01*
X207910Y-9553D01*
X206347Y-7990D01*
X204305Y-7144D01*
X202095Y-7144D01*
X200053Y-7990D01*
X198490Y-9553D01*
X197644Y-11595D01*
X197644Y-13805D01*
X198490Y-15847D01*
X200053Y-17410D01*
X202095Y-18256D01*
G37*
G36*
X635721Y-71374D02*
X639359Y-71374D01*
X642720Y-69982D01*
X645292Y-67410D01*
X646684Y-64049D01*
X646684Y-60411D01*
X645292Y-57050D01*
X642720Y-54478D01*
X639359Y-53086D01*
X635721Y-53086D01*
X632360Y-54478D01*
X629788Y-57050D01*
X628396Y-60411D01*
X628396Y-64049D01*
X629788Y-67410D01*
X632360Y-69982D01*
X635721Y-71374D01*
G37*
G36*
X635721Y-96774D02*
X639359Y-96774D01*
X642720Y-95382D01*
X645292Y-92810D01*
X646684Y-89449D01*
X646684Y-85811D01*
X645292Y-82450D01*
X642720Y-79878D01*
X639359Y-78486D01*
X635721Y-78486D01*
X632360Y-79878D01*
X629788Y-82450D01*
X628396Y-85811D01*
X628396Y-89449D01*
X629788Y-92810D01*
X632360Y-95382D01*
X635721Y-96774D01*
G37*
G36*
X635721Y-122174D02*
X639359Y-122174D01*
X642720Y-120782D01*
X645292Y-118210D01*
X646684Y-114849D01*
X646684Y-111211D01*
X645292Y-107850D01*
X642720Y-105278D01*
X639359Y-103886D01*
X635721Y-103886D01*
X632360Y-105278D01*
X629788Y-107850D01*
X628396Y-111211D01*
X628396Y-114849D01*
X629788Y-118210D01*
X632360Y-120782D01*
X635721Y-122174D01*
G37*
G36*
X627380Y-137668D02*
X636778Y-137668D01*
X636778Y-128270D01*
X635519Y-128270D01*
X631785Y-129817D01*
X628927Y-132675D01*
X627380Y-136409D01*
X627380Y-137668D01*
G37*
G36*
X638302Y-137668D02*
X647700Y-137668D01*
X647700Y-136409D01*
X646153Y-132675D01*
X643295Y-129817D01*
X639561Y-128270D01*
X638302Y-128270D01*
X638302Y-137668D01*
G37*
G36*
X638302Y-148590D02*
X639561Y-148590D01*
X643295Y-147043D01*
X646153Y-144185D01*
X647700Y-140451D01*
X647700Y-139192D01*
X638302Y-139192D01*
X638302Y-148590D01*
G37*
G36*
X635519Y-148590D02*
X636778Y-148590D01*
X636778Y-139192D01*
X627380Y-139192D01*
X627380Y-140451D01*
X628927Y-144185D01*
X631785Y-147043D01*
X635519Y-148590D01*
G37*
G36*
X635721Y-172974D02*
X639359Y-172974D01*
X642720Y-171582D01*
X645292Y-169010D01*
X646684Y-165649D01*
X646684Y-162011D01*
X645292Y-158650D01*
X642720Y-156078D01*
X639359Y-154686D01*
X635721Y-154686D01*
X632360Y-156078D01*
X629788Y-158650D01*
X628396Y-162011D01*
X628396Y-165649D01*
X629788Y-169010D01*
X632360Y-171582D01*
X635721Y-172974D01*
G37*
G36*
X431251Y-174244D02*
X434889Y-174244D01*
X438250Y-172852D01*
X440822Y-170280D01*
X442214Y-166919D01*
X442214Y-163281D01*
X440822Y-159920D01*
X438250Y-157348D01*
X434889Y-155956D01*
X431251Y-155956D01*
X427890Y-157348D01*
X425318Y-159920D01*
X423926Y-163281D01*
X423926Y-166919D01*
X425318Y-170280D01*
X427890Y-172852D01*
X431251Y-174244D01*
G37*
G36*
X635721Y-198374D02*
X639359Y-198374D01*
X642720Y-196982D01*
X645292Y-194410D01*
X646684Y-191049D01*
X646684Y-187411D01*
X645292Y-184050D01*
X642720Y-181478D01*
X639359Y-180086D01*
X635721Y-180086D01*
X632360Y-181478D01*
X629788Y-184050D01*
X628396Y-187411D01*
X628396Y-191049D01*
X629788Y-194410D01*
X632360Y-196982D01*
X635721Y-198374D01*
G37*
G36*
X431251Y-199644D02*
X434889Y-199644D01*
X438250Y-198252D01*
X440822Y-195680D01*
X442214Y-192319D01*
X442214Y-188681D01*
X440822Y-185320D01*
X438250Y-182748D01*
X434889Y-181356D01*
X431251Y-181356D01*
X427890Y-182748D01*
X425318Y-185320D01*
X423926Y-188681D01*
X423926Y-192319D01*
X425318Y-195680D01*
X427890Y-198252D01*
X431251Y-199644D01*
G37*
G36*
X635721Y-223774D02*
X639359Y-223774D01*
X642720Y-222382D01*
X645292Y-219810D01*
X646684Y-216449D01*
X646684Y-212811D01*
X645292Y-209450D01*
X642720Y-206878D01*
X639359Y-205486D01*
X635721Y-205486D01*
X632360Y-206878D01*
X629788Y-209450D01*
X628396Y-212811D01*
X628396Y-216449D01*
X629788Y-219810D01*
X632360Y-222382D01*
X635721Y-223774D01*
G37*
G36*
X431251Y-225044D02*
X434889Y-225044D01*
X438250Y-223652D01*
X440822Y-221080D01*
X442214Y-217719D01*
X442214Y-214081D01*
X440822Y-210720D01*
X438250Y-208148D01*
X434889Y-206756D01*
X431251Y-206756D01*
X427890Y-208148D01*
X425318Y-210720D01*
X423926Y-214081D01*
X423926Y-217719D01*
X425318Y-221080D01*
X427890Y-223652D01*
X431251Y-225044D01*
G37*
G36*
X635721Y-249174D02*
X639359Y-249174D01*
X642720Y-247782D01*
X645292Y-245210D01*
X646684Y-241849D01*
X646684Y-238211D01*
X645292Y-234850D01*
X642720Y-232278D01*
X639359Y-230886D01*
X635721Y-230886D01*
X632360Y-232278D01*
X629788Y-234850D01*
X628396Y-238211D01*
X628396Y-241849D01*
X629788Y-245210D01*
X632360Y-247782D01*
X635721Y-249174D01*
G37*
G36*
X431251Y-250444D02*
X434889Y-250444D01*
X438250Y-249052D01*
X440822Y-246480D01*
X442214Y-243119D01*
X442214Y-239481D01*
X440822Y-236120D01*
X438250Y-233548D01*
X434889Y-232156D01*
X431251Y-232156D01*
X427890Y-233548D01*
X425318Y-236120D01*
X423926Y-239481D01*
X423926Y-243119D01*
X425318Y-246480D01*
X427890Y-249052D01*
X431251Y-250444D01*
G37*
G36*
X635721Y-274574D02*
X639359Y-274574D01*
X642720Y-273182D01*
X645292Y-270610D01*
X646684Y-267249D01*
X646684Y-263611D01*
X645292Y-260250D01*
X642720Y-257678D01*
X639359Y-256286D01*
X635721Y-256286D01*
X632360Y-257678D01*
X629788Y-260250D01*
X628396Y-263611D01*
X628396Y-267249D01*
X629788Y-270610D01*
X632360Y-273182D01*
X635721Y-274574D01*
G37*
G36*
X431251Y-275844D02*
X434889Y-275844D01*
X438250Y-274452D01*
X440822Y-271880D01*
X442214Y-268519D01*
X442214Y-264881D01*
X440822Y-261520D01*
X438250Y-258948D01*
X434889Y-257556D01*
X431251Y-257556D01*
X427890Y-258948D01*
X425318Y-261520D01*
X423926Y-264881D01*
X423926Y-268519D01*
X425318Y-271880D01*
X427890Y-274452D01*
X431251Y-275844D01*
G37*
G36*
X150783Y-274828D02*
X154017Y-274828D01*
X157004Y-273591D01*
X159291Y-271304D01*
X160528Y-268317D01*
X160528Y-265083D01*
X159291Y-262096D01*
X157004Y-259809D01*
X154017Y-258572D01*
X150783Y-258572D01*
X147796Y-259809D01*
X145509Y-262096D01*
X144272Y-265083D01*
X144272Y-268317D01*
X145509Y-271304D01*
X147796Y-273591D01*
X150783Y-274828D01*
G37*
G36*
X635721Y-299974D02*
X639359Y-299974D01*
X642720Y-298582D01*
X645292Y-296010D01*
X646684Y-292649D01*
X646684Y-289011D01*
X645292Y-285650D01*
X642720Y-283078D01*
X639359Y-281686D01*
X635721Y-281686D01*
X632360Y-283078D01*
X629788Y-285650D01*
X628396Y-289011D01*
X628396Y-292649D01*
X629788Y-296010D01*
X632360Y-298582D01*
X635721Y-299974D01*
G37*
G36*
X431251Y-301244D02*
X434889Y-301244D01*
X438250Y-299852D01*
X440822Y-297280D01*
X442214Y-293919D01*
X442214Y-290281D01*
X440822Y-286920D01*
X438250Y-284348D01*
X434889Y-282956D01*
X431251Y-282956D01*
X427890Y-284348D01*
X425318Y-286920D01*
X423926Y-290281D01*
X423926Y-293919D01*
X425318Y-297280D01*
X427890Y-299852D01*
X431251Y-301244D01*
G37*
G36*
X635721Y-325374D02*
X639359Y-325374D01*
X642720Y-323982D01*
X645292Y-321410D01*
X646684Y-318049D01*
X646684Y-314411D01*
X645292Y-311050D01*
X642720Y-308478D01*
X639359Y-307086D01*
X635721Y-307086D01*
X632360Y-308478D01*
X629788Y-311050D01*
X628396Y-314411D01*
X628396Y-318049D01*
X629788Y-321410D01*
X632360Y-323982D01*
X635721Y-325374D01*
G37*
G36*
X431251Y-326644D02*
X434889Y-326644D01*
X438250Y-325252D01*
X440822Y-322680D01*
X442214Y-319319D01*
X442214Y-315681D01*
X440822Y-312320D01*
X438250Y-309748D01*
X434889Y-308356D01*
X431251Y-308356D01*
X427890Y-309748D01*
X425318Y-312320D01*
X423926Y-315681D01*
X423926Y-319319D01*
X425318Y-322680D01*
X427890Y-325252D01*
X431251Y-326644D01*
G37*
G36*
X635721Y-350774D02*
X639359Y-350774D01*
X642720Y-349382D01*
X645292Y-346810D01*
X646684Y-343449D01*
X646684Y-339811D01*
X645292Y-336450D01*
X642720Y-333878D01*
X639359Y-332486D01*
X635721Y-332486D01*
X632360Y-333878D01*
X629788Y-336450D01*
X628396Y-339811D01*
X628396Y-343449D01*
X629788Y-346810D01*
X632360Y-349382D01*
X635721Y-350774D01*
G37*
G36*
X431251Y-352044D02*
X434889Y-352044D01*
X438250Y-350652D01*
X440822Y-348080D01*
X442214Y-344719D01*
X442214Y-341081D01*
X440822Y-337720D01*
X438250Y-335148D01*
X434889Y-333756D01*
X431251Y-333756D01*
X427890Y-335148D01*
X425318Y-337720D01*
X423926Y-341081D01*
X423926Y-344719D01*
X425318Y-348080D01*
X427890Y-350652D01*
X431251Y-352044D01*
G37*
G36*
X150783Y-351028D02*
X154017Y-351028D01*
X157004Y-349791D01*
X159291Y-347504D01*
X160528Y-344517D01*
X160528Y-341283D01*
X159291Y-338296D01*
X157004Y-336009D01*
X154017Y-334772D01*
X150783Y-334772D01*
X147796Y-336009D01*
X145509Y-338296D01*
X144272Y-341283D01*
X144272Y-344517D01*
X145509Y-347504D01*
X147796Y-349791D01*
X150783Y-351028D01*
G37*
G36*
X635721Y-376174D02*
X639359Y-376174D01*
X642720Y-374782D01*
X645292Y-372210D01*
X646684Y-368849D01*
X646684Y-365211D01*
X645292Y-361850D01*
X642720Y-359278D01*
X639359Y-357886D01*
X635721Y-357886D01*
X632360Y-359278D01*
X629788Y-361850D01*
X628396Y-365211D01*
X628396Y-368849D01*
X629788Y-372210D01*
X632360Y-374782D01*
X635721Y-376174D01*
G37*
G36*
X431251Y-377444D02*
X434889Y-377444D01*
X438250Y-376052D01*
X440822Y-373480D01*
X442214Y-370119D01*
X442214Y-366481D01*
X440822Y-363120D01*
X438250Y-360548D01*
X434889Y-359156D01*
X431251Y-359156D01*
X427890Y-360548D01*
X425318Y-363120D01*
X423926Y-366481D01*
X423926Y-370119D01*
X425318Y-373480D01*
X427890Y-376052D01*
X431251Y-377444D01*
G37*
G36*
X635721Y-401574D02*
X639359Y-401574D01*
X642720Y-400182D01*
X645292Y-397610D01*
X646684Y-394249D01*
X646684Y-390611D01*
X645292Y-387250D01*
X642720Y-384678D01*
X639359Y-383286D01*
X635721Y-383286D01*
X632360Y-384678D01*
X629788Y-387250D01*
X628396Y-390611D01*
X628396Y-394249D01*
X629788Y-397610D01*
X632360Y-400182D01*
X635721Y-401574D01*
G37*
G36*
X431251Y-402844D02*
X434889Y-402844D01*
X438250Y-401452D01*
X440822Y-398880D01*
X442214Y-395519D01*
X442214Y-391881D01*
X440822Y-388520D01*
X438250Y-385948D01*
X434889Y-384556D01*
X431251Y-384556D01*
X427890Y-385948D01*
X425318Y-388520D01*
X423926Y-391881D01*
X423926Y-395519D01*
X425318Y-398880D01*
X427890Y-401452D01*
X431251Y-402844D01*
G37*
G36*
X635721Y-426974D02*
X639359Y-426974D01*
X642720Y-425582D01*
X645292Y-423010D01*
X646684Y-419649D01*
X646684Y-416011D01*
X645292Y-412650D01*
X642720Y-410078D01*
X639359Y-408686D01*
X635721Y-408686D01*
X632360Y-410078D01*
X629788Y-412650D01*
X628396Y-416011D01*
X628396Y-419649D01*
X629788Y-423010D01*
X632360Y-425582D01*
X635721Y-426974D01*
G37*
G36*
X431251Y-428244D02*
X434889Y-428244D01*
X438250Y-426852D01*
X440822Y-424280D01*
X442214Y-420919D01*
X442214Y-417281D01*
X440822Y-413920D01*
X438250Y-411348D01*
X434889Y-409956D01*
X431251Y-409956D01*
X427890Y-411348D01*
X425318Y-413920D01*
X423926Y-417281D01*
X423926Y-420919D01*
X425318Y-424280D01*
X427890Y-426852D01*
X431251Y-428244D01*
G37*
G36*
X627380Y-442468D02*
X636778Y-442468D01*
X636778Y-433070D01*
X635519Y-433070D01*
X631785Y-434617D01*
X628927Y-437475D01*
X627380Y-441209D01*
X627380Y-442468D01*
G37*
G36*
X638302Y-442468D02*
X647700Y-442468D01*
X647700Y-441209D01*
X646153Y-437475D01*
X643295Y-434617D01*
X639561Y-433070D01*
X638302Y-433070D01*
X638302Y-442468D01*
G37*
G36*
X431251Y-453644D02*
X434889Y-453644D01*
X438250Y-452252D01*
X440822Y-449680D01*
X442214Y-446319D01*
X442214Y-442681D01*
X440822Y-439320D01*
X438250Y-436748D01*
X434889Y-435356D01*
X431251Y-435356D01*
X427890Y-436748D01*
X425318Y-439320D01*
X423926Y-442681D01*
X423926Y-446319D01*
X425318Y-449680D01*
X427890Y-452252D01*
X431251Y-453644D01*
G37*
G36*
X638302Y-453390D02*
X639561Y-453390D01*
X643295Y-451843D01*
X646153Y-448985D01*
X647700Y-445251D01*
X647700Y-443992D01*
X638302Y-443992D01*
X638302Y-453390D01*
G37*
G36*
X635519Y-453390D02*
X636778Y-453390D01*
X636778Y-443992D01*
X627380Y-443992D01*
X627380Y-445251D01*
X628927Y-448985D01*
X631785Y-451843D01*
X635519Y-453390D01*
G37*
%LPD*%
D10*
X76200Y917945D03*
X76200Y943345D03*
X76200Y968745D03*
X568960Y913640D03*
X568960Y939040D03*
X568960Y964440D03*
X626110Y911860D03*
X626110Y937260D03*
X626110Y962660D03*
X681990Y911860D03*
X681990Y937260D03*
X681990Y962660D03*
X740410Y911860D03*
X740410Y937260D03*
X740410Y962660D03*
X801370Y912370D03*
X801370Y937770D03*
X801370Y963170D03*
X861060Y910590D03*
X861060Y935990D03*
X861060Y961390D03*
X918573Y910219D03*
X918573Y935619D03*
X918573Y961019D03*
X101600Y533400D03*
X101600Y508000D03*
X101600Y482600D03*
X101600Y457200D03*
X101600Y431800D03*
X101600Y406400D03*
X101600Y381000D03*
X101600Y355600D03*
X101600Y330200D03*
X101600Y304800D03*
X101600Y279400D03*
X101600Y254000D03*
X101600Y228600D03*
X101600Y203200D03*
X433070Y-165100D03*
X433070Y-190500D03*
X433070Y-215900D03*
X433070Y-241300D03*
X433070Y-266700D03*
X433070Y-292100D03*
X433070Y-317500D03*
X433070Y-342900D03*
X433070Y-368300D03*
X433070Y-393700D03*
X433070Y-419100D03*
X433070Y-444500D03*
X637540Y-62230D03*
X637540Y-87630D03*
X637540Y-113030D03*
X637540Y-138430D03*
X637540Y-163830D03*
X637540Y-189230D03*
X637540Y-214630D03*
X637540Y-240030D03*
X637540Y-265430D03*
X637540Y-290830D03*
X637540Y-316230D03*
X637540Y-341630D03*
X637540Y-367030D03*
X637540Y-392430D03*
X637540Y-417830D03*
X637540Y-443230D03*
X127000Y918210D03*
X127000Y943610D03*
X127000Y969010D03*
X180340Y918210D03*
X180340Y943610D03*
X180340Y969010D03*
X236220Y916940D03*
X236220Y942340D03*
X236220Y967740D03*
X288290Y916940D03*
X288290Y942340D03*
X288290Y967740D03*
X342900Y915670D03*
X342900Y941070D03*
X342900Y966470D03*
X399034Y916940D03*
X399034Y942340D03*
X399034Y967740D03*
X453390Y914400D03*
X453390Y939800D03*
X453390Y965200D03*
X513080Y914400D03*
X513080Y939800D03*
X513080Y965200D03*
D11*
X152400Y-266700D03*
X152400Y-342900D03*
D12*
X1041400Y558800D03*
X1041400Y508000D03*
X1041400Y457200D03*
X1040130Y327660D03*
X1040130Y276860D03*
X1040130Y226060D03*
D13*
X215900Y127000D03*
X215900Y101600D03*
X215900Y76200D03*
X292100Y76200D03*
X292100Y101600D03*
X292100Y127000D03*
D14*
X203200Y711200D03*
X322580Y681990D03*
X584200Y546100D03*
X584200Y622300D03*
X228600Y-165100D03*
X431800Y774700D03*
D15*
X25400Y711200D03*
D16*
X584200Y736600D03*
D17*
X1054100Y165100D03*
X990600Y165100D03*
D14*
X711200Y533400D03*
X203200Y-12700D03*
X326390Y670560D03*
X304800Y647700D03*
X641350Y511080D03*
X641350Y552450D03*
X641350Y593090D03*
X640080Y631190D03*
X571500Y673100D03*
X292100Y635000D03*
D17*
X-25400Y685800D03*
X889000Y12700D03*
M02*
