G04 EAGLE Gerber RS-274X export*
G75*
%MOMM*%
%FSLAX34Y34*%
%LPD*%
%INSilkscreen Bottom*%
%IPPOS*%
%AMOC8*
5,1,8,0,0,1.08239X$1,22.5*%
G01*
G04 Define Apertures*
%ADD10C,0.152400*%
%ADD11C,0.762000*%
%ADD12R,0.508000X0.762000*%
%ADD13R,1.016000X0.762000*%
%ADD14C,0.127000*%
G36*
X397171Y-146225D02*
X396678Y-146210D01*
X396215Y-146166D01*
X395780Y-146091D01*
X395376Y-145987D01*
X395001Y-145852D01*
X394656Y-145688D01*
X394340Y-145494D01*
X394053Y-145271D01*
X393799Y-145020D01*
X393578Y-144746D01*
X393392Y-144449D01*
X393239Y-144128D01*
X393120Y-143783D01*
X393035Y-143415D01*
X392984Y-143023D01*
X392967Y-142608D01*
X392978Y-142310D01*
X393008Y-142025D01*
X393060Y-141752D01*
X393132Y-141492D01*
X393224Y-141245D01*
X393337Y-141011D01*
X393470Y-140789D01*
X393624Y-140580D01*
X393658Y-140543D01*
X393797Y-140387D01*
X393985Y-140214D01*
X394191Y-140060D01*
X394412Y-139925D01*
X394651Y-139809D01*
X394905Y-139712D01*
X395176Y-139635D01*
X395463Y-139577D01*
X395463Y-139542D01*
X395216Y-139483D01*
X394982Y-139405D01*
X394762Y-139309D01*
X394555Y-139194D01*
X394361Y-139061D01*
X394199Y-138925D01*
X394181Y-138910D01*
X394014Y-138741D01*
X393861Y-138553D01*
X393723Y-138351D01*
X393604Y-138142D01*
X393503Y-137923D01*
X393421Y-137697D01*
X393356Y-137461D01*
X393311Y-137218D01*
X393283Y-136965D01*
X393274Y-136705D01*
X393290Y-136348D01*
X393340Y-136011D01*
X393422Y-135693D01*
X393538Y-135393D01*
X393686Y-135112D01*
X393868Y-134851D01*
X394082Y-134608D01*
X394329Y-134384D01*
X394605Y-134182D01*
X394905Y-134008D01*
X395229Y-133861D01*
X395576Y-133740D01*
X395948Y-133646D01*
X396343Y-133579D01*
X396763Y-133539D01*
X397206Y-133525D01*
X397640Y-133539D01*
X398050Y-133580D01*
X398438Y-133648D01*
X398804Y-133744D01*
X399147Y-133867D01*
X399467Y-134018D01*
X399765Y-134196D01*
X400040Y-134401D01*
X400287Y-134628D01*
X400502Y-134872D01*
X400683Y-135133D01*
X400831Y-135411D01*
X400947Y-135705D01*
X401029Y-136015D01*
X401079Y-136343D01*
X401095Y-136687D01*
X401086Y-136948D01*
X401059Y-137200D01*
X401013Y-137444D01*
X400950Y-137679D01*
X400868Y-137906D01*
X400768Y-138124D01*
X400649Y-138334D01*
X400513Y-138535D01*
X400361Y-138724D01*
X400195Y-138895D01*
X400016Y-139049D01*
X399824Y-139186D01*
X399619Y-139305D01*
X399400Y-139407D01*
X399168Y-139492D01*
X398923Y-139560D01*
X398923Y-139595D01*
X399186Y-139649D01*
X399438Y-139723D01*
X399677Y-139818D01*
X399904Y-139932D01*
X400119Y-140067D01*
X400322Y-140222D01*
X400513Y-140398D01*
X400692Y-140593D01*
X400855Y-140805D01*
X400995Y-141029D01*
X401114Y-141265D01*
X401211Y-141513D01*
X401287Y-141773D01*
X401341Y-142045D01*
X401373Y-142329D01*
X401384Y-142625D01*
X401367Y-143044D01*
X401314Y-143439D01*
X401227Y-143809D01*
X401105Y-144154D01*
X400948Y-144474D01*
X400756Y-144770D01*
X400529Y-145041D01*
X400268Y-145288D01*
X399975Y-145508D01*
X399655Y-145698D01*
X399309Y-145859D01*
X398935Y-145991D01*
X398535Y-146093D01*
X398107Y-146167D01*
X397653Y-146211D01*
X397171Y-146225D01*
G37*
%LPC*%
G36*
X397154Y-145043D02*
X397469Y-145033D01*
X397764Y-145003D01*
X398038Y-144953D01*
X398292Y-144884D01*
X398526Y-144794D01*
X398739Y-144684D01*
X398932Y-144555D01*
X399105Y-144406D01*
X399257Y-144236D01*
X399389Y-144047D01*
X399501Y-143838D01*
X399593Y-143609D01*
X399664Y-143360D01*
X399715Y-143091D01*
X399745Y-142803D01*
X399755Y-142494D01*
X399745Y-142228D01*
X399713Y-141976D01*
X399660Y-141739D01*
X399587Y-141516D01*
X399492Y-141309D01*
X399376Y-141115D01*
X399239Y-140937D01*
X399081Y-140773D01*
X398904Y-140626D01*
X398711Y-140499D01*
X398501Y-140391D01*
X398275Y-140303D01*
X398032Y-140235D01*
X397774Y-140186D01*
X397498Y-140157D01*
X397206Y-140147D01*
X396906Y-140156D01*
X396623Y-140183D01*
X396358Y-140229D01*
X396109Y-140292D01*
X395878Y-140374D01*
X395664Y-140474D01*
X395468Y-140593D01*
X395288Y-140729D01*
X395128Y-140884D01*
X394989Y-141056D01*
X394872Y-141245D01*
X394776Y-141453D01*
X394701Y-141678D01*
X394648Y-141921D01*
X394616Y-142181D01*
X394605Y-142459D01*
X394615Y-142785D01*
X394645Y-143088D01*
X394694Y-143368D01*
X394763Y-143625D01*
X394851Y-143859D01*
X394960Y-144071D01*
X395088Y-144260D01*
X395236Y-144425D01*
X395404Y-144570D01*
X395592Y-144695D01*
X395801Y-144802D01*
X396031Y-144888D01*
X396281Y-144956D01*
X396551Y-145004D01*
X396842Y-145033D01*
X397154Y-145043D01*
G37*
G36*
X397189Y-138964D02*
X397455Y-138956D01*
X397705Y-138930D01*
X397940Y-138886D01*
X398160Y-138825D01*
X398364Y-138747D01*
X398553Y-138652D01*
X398726Y-138539D01*
X398884Y-138408D01*
X399024Y-138261D01*
X399146Y-138099D01*
X399249Y-137920D01*
X399334Y-137726D01*
X399399Y-137516D01*
X399446Y-137291D01*
X399474Y-137049D01*
X399484Y-136792D01*
X399475Y-136540D01*
X399447Y-136303D01*
X399402Y-136083D01*
X399338Y-135879D01*
X399256Y-135691D01*
X399156Y-135520D01*
X399038Y-135364D01*
X398901Y-135224D01*
X398747Y-135101D01*
X398577Y-134995D01*
X398390Y-134904D01*
X398186Y-134830D01*
X397966Y-134773D01*
X397729Y-134732D01*
X397476Y-134707D01*
X397206Y-134699D01*
X396929Y-134707D01*
X396669Y-134732D01*
X396427Y-134773D01*
X396202Y-134830D01*
X395996Y-134903D01*
X395808Y-134993D01*
X395638Y-135100D01*
X395485Y-135222D01*
X395351Y-135361D01*
X395234Y-135517D01*
X395136Y-135688D01*
X395055Y-135876D01*
X394992Y-136081D01*
X394948Y-136302D01*
X394921Y-136539D01*
X394912Y-136792D01*
X394921Y-137069D01*
X394948Y-137326D01*
X394994Y-137563D01*
X395057Y-137781D01*
X395139Y-137978D01*
X395239Y-138156D01*
X395358Y-138314D01*
X395494Y-138452D01*
X395648Y-138572D01*
X395818Y-138676D01*
X396005Y-138764D01*
X396209Y-138836D01*
X396429Y-138892D01*
X396666Y-138932D01*
X396919Y-138956D01*
X397189Y-138964D01*
G37*
%LPD*%
G36*
X422630Y-146050D02*
X420957Y-146050D01*
X420957Y-141242D01*
X417331Y-141242D01*
X416853Y-141225D01*
X416401Y-141177D01*
X415975Y-141096D01*
X415574Y-140983D01*
X415198Y-140838D01*
X414849Y-140660D01*
X414525Y-140450D01*
X414226Y-140208D01*
X413958Y-139938D01*
X413726Y-139646D01*
X413530Y-139332D01*
X413369Y-138995D01*
X413244Y-138636D01*
X413154Y-138254D01*
X413101Y-137850D01*
X413083Y-137423D01*
X413101Y-136993D01*
X413154Y-136588D01*
X413243Y-136208D01*
X413368Y-135853D01*
X413528Y-135523D01*
X413724Y-135217D01*
X413955Y-134937D01*
X414222Y-134681D01*
X414521Y-134454D01*
X414850Y-134256D01*
X415207Y-134089D01*
X415595Y-133952D01*
X416011Y-133846D01*
X416457Y-133770D01*
X416932Y-133724D01*
X417436Y-133709D01*
X422630Y-133709D01*
X422630Y-146050D01*
G37*
%LPC*%
G36*
X420957Y-139919D02*
X420957Y-135049D01*
X417637Y-135049D01*
X417290Y-135059D01*
X416964Y-135087D01*
X416661Y-135133D01*
X416381Y-135199D01*
X416123Y-135283D01*
X415887Y-135386D01*
X415674Y-135507D01*
X415483Y-135647D01*
X415315Y-135806D01*
X415169Y-135983D01*
X415045Y-136179D01*
X414944Y-136394D01*
X414866Y-136628D01*
X414810Y-136880D01*
X414776Y-137151D01*
X414765Y-137440D01*
X414776Y-137741D01*
X414808Y-138021D01*
X414863Y-138283D01*
X414940Y-138525D01*
X415038Y-138747D01*
X415159Y-138951D01*
X415301Y-139135D01*
X415465Y-139299D01*
X415651Y-139445D01*
X415859Y-139570D01*
X416089Y-139677D01*
X416341Y-139764D01*
X416615Y-139832D01*
X416911Y-139880D01*
X417228Y-139909D01*
X417567Y-139919D01*
X420957Y-139919D01*
G37*
%LPD*%
G36*
X410797Y-146050D02*
X403064Y-146050D01*
X403064Y-144710D01*
X406068Y-144710D01*
X406068Y-133709D01*
X407522Y-133709D01*
X410438Y-135715D01*
X410438Y-137204D01*
X407653Y-135216D01*
X407653Y-144710D01*
X410797Y-144710D01*
X410797Y-146050D01*
G37*
G36*
X429067Y-146225D02*
X428656Y-146209D01*
X428267Y-146161D01*
X427901Y-146080D01*
X427557Y-145968D01*
X427235Y-145823D01*
X426936Y-145646D01*
X426659Y-145437D01*
X426405Y-145196D01*
X426177Y-144927D01*
X425979Y-144634D01*
X425812Y-144316D01*
X425676Y-143975D01*
X425569Y-143610D01*
X425493Y-143221D01*
X425448Y-142808D01*
X425433Y-142371D01*
X425433Y-133709D01*
X429470Y-133709D01*
X429470Y-135076D01*
X427097Y-135076D01*
X427097Y-142406D01*
X427105Y-142700D01*
X427130Y-142974D01*
X427171Y-143231D01*
X427228Y-143470D01*
X427302Y-143690D01*
X427392Y-143892D01*
X427499Y-144076D01*
X427622Y-144241D01*
X427760Y-144388D01*
X427909Y-144515D01*
X428071Y-144623D01*
X428244Y-144711D01*
X428430Y-144780D01*
X428627Y-144828D01*
X428837Y-144858D01*
X429059Y-144868D01*
X429262Y-144859D01*
X429457Y-144832D01*
X429643Y-144788D01*
X429821Y-144725D01*
X429989Y-144645D01*
X430149Y-144547D01*
X430300Y-144432D01*
X430442Y-144298D01*
X430574Y-144149D01*
X430694Y-143986D01*
X430801Y-143809D01*
X430896Y-143617D01*
X430978Y-143412D01*
X431048Y-143193D01*
X431106Y-142960D01*
X431152Y-142713D01*
X432790Y-142985D01*
X432706Y-143377D01*
X432603Y-143744D01*
X432480Y-144086D01*
X432337Y-144402D01*
X432174Y-144693D01*
X431991Y-144959D01*
X431788Y-145200D01*
X431566Y-145415D01*
X431323Y-145605D01*
X431061Y-145769D01*
X430778Y-145909D01*
X430476Y-146023D01*
X430154Y-146111D01*
X429811Y-146175D01*
X429449Y-146213D01*
X429067Y-146225D01*
G37*
G36*
X627100Y-43180D02*
X625427Y-43180D01*
X625427Y-38372D01*
X621801Y-38372D01*
X621323Y-38355D01*
X620871Y-38307D01*
X620445Y-38226D01*
X620044Y-38113D01*
X619668Y-37968D01*
X619319Y-37790D01*
X618995Y-37580D01*
X618696Y-37338D01*
X618428Y-37068D01*
X618196Y-36776D01*
X618000Y-36462D01*
X617839Y-36125D01*
X617714Y-35766D01*
X617624Y-35384D01*
X617571Y-34980D01*
X617553Y-34553D01*
X617571Y-34123D01*
X617624Y-33718D01*
X617713Y-33338D01*
X617838Y-32983D01*
X617998Y-32653D01*
X618194Y-32347D01*
X618425Y-32067D01*
X618692Y-31811D01*
X618991Y-31584D01*
X619320Y-31386D01*
X619677Y-31219D01*
X620065Y-31082D01*
X620481Y-30976D01*
X620927Y-30900D01*
X621402Y-30854D01*
X621906Y-30839D01*
X627100Y-30839D01*
X627100Y-43180D01*
G37*
%LPC*%
G36*
X625427Y-37049D02*
X625427Y-32179D01*
X622107Y-32179D01*
X621760Y-32189D01*
X621434Y-32217D01*
X621131Y-32263D01*
X620851Y-32329D01*
X620593Y-32413D01*
X620357Y-32516D01*
X620144Y-32637D01*
X619953Y-32777D01*
X619785Y-32936D01*
X619639Y-33113D01*
X619515Y-33309D01*
X619414Y-33524D01*
X619336Y-33758D01*
X619280Y-34010D01*
X619246Y-34281D01*
X619235Y-34570D01*
X619246Y-34871D01*
X619278Y-35151D01*
X619333Y-35413D01*
X619410Y-35655D01*
X619508Y-35877D01*
X619629Y-36081D01*
X619771Y-36265D01*
X619935Y-36429D01*
X620121Y-36575D01*
X620329Y-36700D01*
X620559Y-36807D01*
X620811Y-36894D01*
X621085Y-36962D01*
X621381Y-37010D01*
X621698Y-37039D01*
X622037Y-37049D01*
X625427Y-37049D01*
G37*
%LPD*%
G36*
X601974Y-43355D02*
X601710Y-43348D01*
X601453Y-43328D01*
X601204Y-43295D01*
X600963Y-43248D01*
X600729Y-43188D01*
X600503Y-43115D01*
X600075Y-42928D01*
X599677Y-42688D01*
X599310Y-42394D01*
X598973Y-42048D01*
X598668Y-41647D01*
X598396Y-41197D01*
X598160Y-40701D01*
X597961Y-40159D01*
X597798Y-39572D01*
X597671Y-38938D01*
X597580Y-38258D01*
X597526Y-37532D01*
X597507Y-36760D01*
X597524Y-36020D01*
X597574Y-35327D01*
X597656Y-34683D01*
X597772Y-34086D01*
X597921Y-33538D01*
X598104Y-33037D01*
X598319Y-32584D01*
X598567Y-32179D01*
X598848Y-31822D01*
X599159Y-31513D01*
X599502Y-31251D01*
X599877Y-31036D01*
X600282Y-30870D01*
X600718Y-30751D01*
X601186Y-30679D01*
X601432Y-30661D01*
X601685Y-30655D01*
X602156Y-30673D01*
X602600Y-30725D01*
X603017Y-30811D01*
X603408Y-30932D01*
X603773Y-31088D01*
X604111Y-31279D01*
X604422Y-31504D01*
X604707Y-31763D01*
X604961Y-32053D01*
X605182Y-32369D01*
X605369Y-32711D01*
X605521Y-33078D01*
X605640Y-33472D01*
X605725Y-33891D01*
X605776Y-34336D01*
X605793Y-34807D01*
X605777Y-35266D01*
X605731Y-35702D01*
X605653Y-36114D01*
X605543Y-36504D01*
X605403Y-36870D01*
X605231Y-37213D01*
X605029Y-37532D01*
X604794Y-37829D01*
X604534Y-38095D01*
X604254Y-38327D01*
X603952Y-38522D01*
X603630Y-38683D01*
X603286Y-38807D01*
X602922Y-38896D01*
X602538Y-38949D01*
X602132Y-38967D01*
X601880Y-38960D01*
X601634Y-38937D01*
X601393Y-38900D01*
X601158Y-38848D01*
X600927Y-38781D01*
X600702Y-38699D01*
X600481Y-38602D01*
X600266Y-38490D01*
X600062Y-38366D01*
X599873Y-38232D01*
X599699Y-38088D01*
X599542Y-37935D01*
X599399Y-37772D01*
X599273Y-37599D01*
X599162Y-37416D01*
X599066Y-37224D01*
X599086Y-37792D01*
X599128Y-38326D01*
X599192Y-38827D01*
X599279Y-39293D01*
X599387Y-39727D01*
X599518Y-40126D01*
X599671Y-40492D01*
X599846Y-40824D01*
X600042Y-41120D01*
X600256Y-41376D01*
X600490Y-41593D01*
X600744Y-41770D01*
X601016Y-41908D01*
X601307Y-42006D01*
X601618Y-42066D01*
X601948Y-42085D01*
X602145Y-42079D01*
X602333Y-42061D01*
X602683Y-41989D01*
X602997Y-41868D01*
X603275Y-41700D01*
X603518Y-41483D01*
X603725Y-41218D01*
X603896Y-40905D01*
X604032Y-40544D01*
X605539Y-40780D01*
X605437Y-41108D01*
X605320Y-41412D01*
X605187Y-41693D01*
X605039Y-41951D01*
X604875Y-42185D01*
X604696Y-42395D01*
X604501Y-42583D01*
X604291Y-42746D01*
X604064Y-42889D01*
X603819Y-43013D01*
X603557Y-43117D01*
X603276Y-43203D01*
X602977Y-43270D01*
X602661Y-43317D01*
X602327Y-43346D01*
X601974Y-43355D01*
G37*
%LPC*%
G36*
X601755Y-37723D02*
X602028Y-37711D01*
X602287Y-37674D01*
X602531Y-37613D01*
X602760Y-37527D01*
X602975Y-37417D01*
X603176Y-37283D01*
X603362Y-37123D01*
X603533Y-36940D01*
X603687Y-36735D01*
X603821Y-36512D01*
X603934Y-36272D01*
X604026Y-36014D01*
X604098Y-35739D01*
X604149Y-35446D01*
X604180Y-35135D01*
X604190Y-34807D01*
X604180Y-34485D01*
X604149Y-34180D01*
X604098Y-33892D01*
X604026Y-33621D01*
X603934Y-33368D01*
X603821Y-33131D01*
X603687Y-32912D01*
X603533Y-32709D01*
X603362Y-32528D01*
X603175Y-32370D01*
X602973Y-32237D01*
X602756Y-32128D01*
X602524Y-32043D01*
X602277Y-31983D01*
X602015Y-31946D01*
X601738Y-31934D01*
X601458Y-31948D01*
X601193Y-31991D01*
X600943Y-32062D01*
X600706Y-32161D01*
X600485Y-32288D01*
X600278Y-32444D01*
X600085Y-32628D01*
X599907Y-32841D01*
X599747Y-33076D01*
X599608Y-33330D01*
X599491Y-33602D01*
X599395Y-33893D01*
X599320Y-34201D01*
X599267Y-34528D01*
X599235Y-34873D01*
X599224Y-35236D01*
X599245Y-35590D01*
X599308Y-35924D01*
X599414Y-36238D01*
X599561Y-36532D01*
X599745Y-36801D01*
X599961Y-37037D01*
X600207Y-37241D01*
X600485Y-37413D01*
X600785Y-37549D01*
X601096Y-37646D01*
X601420Y-37704D01*
X601755Y-37723D01*
G37*
%LPD*%
G36*
X615267Y-43180D02*
X607534Y-43180D01*
X607534Y-41840D01*
X610538Y-41840D01*
X610538Y-30839D01*
X611992Y-30839D01*
X614908Y-32845D01*
X614908Y-34334D01*
X612123Y-32346D01*
X612123Y-41840D01*
X615267Y-41840D01*
X615267Y-43180D01*
G37*
G36*
X633537Y-43355D02*
X633126Y-43339D01*
X632737Y-43291D01*
X632371Y-43210D01*
X632027Y-43098D01*
X631705Y-42953D01*
X631406Y-42776D01*
X631129Y-42567D01*
X630875Y-42326D01*
X630647Y-42057D01*
X630449Y-41764D01*
X630282Y-41446D01*
X630146Y-41105D01*
X630039Y-40740D01*
X629963Y-40351D01*
X629918Y-39938D01*
X629903Y-39501D01*
X629903Y-30839D01*
X633940Y-30839D01*
X633940Y-32206D01*
X631567Y-32206D01*
X631567Y-39536D01*
X631575Y-39830D01*
X631600Y-40104D01*
X631641Y-40361D01*
X631698Y-40600D01*
X631772Y-40820D01*
X631862Y-41022D01*
X631969Y-41206D01*
X632092Y-41371D01*
X632230Y-41518D01*
X632379Y-41645D01*
X632541Y-41753D01*
X632714Y-41841D01*
X632900Y-41910D01*
X633097Y-41958D01*
X633307Y-41988D01*
X633529Y-41998D01*
X633732Y-41989D01*
X633927Y-41962D01*
X634113Y-41918D01*
X634291Y-41855D01*
X634459Y-41775D01*
X634619Y-41677D01*
X634770Y-41562D01*
X634912Y-41428D01*
X635044Y-41279D01*
X635164Y-41116D01*
X635271Y-40939D01*
X635366Y-40747D01*
X635448Y-40542D01*
X635518Y-40323D01*
X635576Y-40090D01*
X635622Y-39843D01*
X637260Y-40115D01*
X637176Y-40507D01*
X637073Y-40874D01*
X636950Y-41216D01*
X636807Y-41532D01*
X636644Y-41823D01*
X636461Y-42089D01*
X636258Y-42330D01*
X636036Y-42545D01*
X635793Y-42735D01*
X635531Y-42899D01*
X635248Y-43039D01*
X634946Y-43153D01*
X634624Y-43241D01*
X634281Y-43305D01*
X633919Y-43343D01*
X633537Y-43355D01*
G37*
G36*
X615857Y504109D02*
X613931Y504109D01*
X615943Y507162D01*
X617434Y509425D01*
X617091Y509498D01*
X616767Y509591D01*
X616462Y509707D01*
X616176Y509844D01*
X616020Y509936D01*
X615909Y510002D01*
X615661Y510183D01*
X615432Y510384D01*
X615222Y510608D01*
X615035Y510849D01*
X614872Y511104D01*
X614734Y511372D01*
X614621Y511654D01*
X614534Y511950D01*
X614471Y512260D01*
X614434Y512583D01*
X614421Y512920D01*
X614439Y513325D01*
X614492Y513706D01*
X614581Y514065D01*
X614705Y514401D01*
X614864Y514715D01*
X615059Y515005D01*
X615289Y515272D01*
X615555Y515517D01*
X615854Y515736D01*
X616182Y515925D01*
X616540Y516085D01*
X616927Y516217D01*
X617344Y516319D01*
X617791Y516391D01*
X618268Y516435D01*
X618774Y516450D01*
X624581Y516450D01*
X624581Y504109D01*
X622908Y504109D01*
X622908Y509233D01*
X619063Y509233D01*
X615857Y504109D01*
G37*
%LPC*%
G36*
X622908Y510555D02*
X622908Y515110D01*
X618940Y515110D01*
X618607Y515101D01*
X618293Y515074D01*
X618000Y515030D01*
X617726Y514969D01*
X617473Y514889D01*
X617240Y514792D01*
X617027Y514677D01*
X616834Y514545D01*
X616663Y514396D01*
X616514Y514230D01*
X616388Y514049D01*
X616286Y513852D01*
X616206Y513639D01*
X616148Y513409D01*
X616114Y513164D01*
X616103Y512903D01*
X616114Y512632D01*
X616148Y512377D01*
X616204Y512138D01*
X616283Y511914D01*
X616385Y511705D01*
X616509Y511512D01*
X616656Y511335D01*
X616825Y511173D01*
X617015Y511028D01*
X617224Y510903D01*
X617452Y510796D01*
X617698Y510710D01*
X617963Y510642D01*
X618247Y510594D01*
X618549Y510565D01*
X618870Y510555D01*
X622908Y510555D01*
G37*
%LPD*%
G36*
X602244Y504109D02*
X594072Y504109D01*
X594072Y505449D01*
X600510Y505449D01*
X600358Y505759D01*
X600164Y506074D01*
X599928Y506396D01*
X599651Y506723D01*
X599328Y507064D01*
X598953Y507425D01*
X598527Y507806D01*
X598049Y508208D01*
X597207Y508904D01*
X596514Y509502D01*
X595968Y510003D01*
X595570Y510406D01*
X595266Y510761D01*
X595002Y511116D01*
X594778Y511471D01*
X594593Y511825D01*
X594450Y512181D01*
X594347Y512537D01*
X594286Y512894D01*
X594265Y513253D01*
X594281Y513646D01*
X594328Y514017D01*
X594406Y514364D01*
X594516Y514688D01*
X594657Y514989D01*
X594829Y515267D01*
X595033Y515522D01*
X595268Y515753D01*
X595532Y515960D01*
X595823Y516139D01*
X596141Y516290D01*
X596486Y516414D01*
X596858Y516510D01*
X597257Y516579D01*
X597683Y516620D01*
X598136Y516634D01*
X598551Y516620D01*
X598947Y516579D01*
X599324Y516511D01*
X599681Y516415D01*
X600019Y516292D01*
X600338Y516141D01*
X600637Y515963D01*
X600917Y515758D01*
X601173Y515529D01*
X601401Y515282D01*
X601601Y515016D01*
X601772Y514731D01*
X601915Y514427D01*
X602030Y514104D01*
X602116Y513762D01*
X602174Y513402D01*
X600562Y513253D01*
X600526Y513493D01*
X600472Y513720D01*
X600401Y513933D01*
X600314Y514132D01*
X600210Y514317D01*
X600089Y514489D01*
X599951Y514646D01*
X599796Y514790D01*
X599627Y514918D01*
X599448Y515030D01*
X599257Y515124D01*
X599055Y515201D01*
X598842Y515260D01*
X598618Y515303D01*
X598383Y515329D01*
X598136Y515337D01*
X597879Y515329D01*
X597635Y515302D01*
X597407Y515259D01*
X597193Y515197D01*
X596993Y515118D01*
X596808Y515022D01*
X596637Y514908D01*
X596481Y514777D01*
X596341Y514630D01*
X596220Y514468D01*
X596118Y514292D01*
X596034Y514102D01*
X595969Y513898D01*
X595923Y513680D01*
X595895Y513447D01*
X595885Y513200D01*
X595907Y512834D01*
X595972Y512487D01*
X596080Y512159D01*
X596231Y511852D01*
X596418Y511557D01*
X596631Y511269D01*
X596871Y510988D01*
X597138Y510713D01*
X597732Y510170D01*
X598395Y509627D01*
X599094Y509061D01*
X599800Y508449D01*
X600151Y508122D01*
X600493Y507777D01*
X600828Y507413D01*
X601154Y507030D01*
X601463Y506623D01*
X601748Y506186D01*
X602008Y505719D01*
X602244Y505221D01*
X602244Y504109D01*
G37*
G36*
X612213Y504109D02*
X604041Y504109D01*
X604041Y505449D01*
X610479Y505449D01*
X610326Y505759D01*
X610133Y506074D01*
X609897Y506396D01*
X609620Y506723D01*
X609297Y507064D01*
X608922Y507425D01*
X608495Y507806D01*
X608017Y508208D01*
X607176Y508904D01*
X606482Y509502D01*
X605937Y510003D01*
X605539Y510406D01*
X605235Y510761D01*
X604971Y511116D01*
X604746Y511471D01*
X604562Y511825D01*
X604418Y512181D01*
X604316Y512537D01*
X604254Y512894D01*
X604234Y513253D01*
X604249Y513646D01*
X604296Y514017D01*
X604375Y514364D01*
X604484Y514688D01*
X604625Y514989D01*
X604798Y515267D01*
X605002Y515522D01*
X605237Y515753D01*
X605501Y515960D01*
X605792Y516139D01*
X606110Y516290D01*
X606455Y516414D01*
X606827Y516510D01*
X607226Y516579D01*
X607652Y516620D01*
X608105Y516634D01*
X608520Y516620D01*
X608916Y516579D01*
X609293Y516511D01*
X609650Y516415D01*
X609988Y516292D01*
X610306Y516141D01*
X610606Y515963D01*
X610886Y515758D01*
X611142Y515529D01*
X611370Y515282D01*
X611570Y515016D01*
X611741Y514731D01*
X611884Y514427D01*
X611998Y514104D01*
X612085Y513762D01*
X612143Y513402D01*
X610531Y513253D01*
X610494Y513493D01*
X610441Y513720D01*
X610370Y513933D01*
X610283Y514132D01*
X610178Y514317D01*
X610057Y514489D01*
X609919Y514646D01*
X609765Y514790D01*
X609596Y514918D01*
X609416Y515030D01*
X609225Y515124D01*
X609024Y515201D01*
X608811Y515260D01*
X608586Y515303D01*
X608351Y515329D01*
X608105Y515337D01*
X607847Y515329D01*
X607604Y515302D01*
X607375Y515259D01*
X607161Y515197D01*
X606962Y515118D01*
X606776Y515022D01*
X606606Y514908D01*
X606450Y514777D01*
X606310Y514630D01*
X606189Y514468D01*
X606087Y514292D01*
X606003Y514102D01*
X605938Y513898D01*
X605891Y513680D01*
X605863Y513447D01*
X605854Y513200D01*
X605876Y512834D01*
X605941Y512487D01*
X606049Y512159D01*
X606200Y511852D01*
X606386Y511557D01*
X606600Y511269D01*
X606840Y510988D01*
X607107Y510713D01*
X607701Y510170D01*
X608363Y509627D01*
X609063Y509061D01*
X609769Y508449D01*
X610120Y508122D01*
X610462Y507777D01*
X610796Y507413D01*
X611122Y507030D01*
X611432Y506623D01*
X611717Y506186D01*
X611977Y505719D01*
X612213Y505221D01*
X612213Y504109D01*
G37*
G36*
X615857Y542209D02*
X613931Y542209D01*
X615943Y545262D01*
X617434Y547525D01*
X617091Y547598D01*
X616767Y547691D01*
X616462Y547807D01*
X616176Y547944D01*
X616020Y548036D01*
X615909Y548102D01*
X615661Y548283D01*
X615432Y548484D01*
X615222Y548708D01*
X615035Y548949D01*
X614872Y549204D01*
X614734Y549472D01*
X614621Y549754D01*
X614534Y550050D01*
X614471Y550360D01*
X614434Y550683D01*
X614421Y551020D01*
X614439Y551425D01*
X614492Y551806D01*
X614581Y552165D01*
X614705Y552501D01*
X614864Y552815D01*
X615059Y553105D01*
X615289Y553372D01*
X615555Y553617D01*
X615854Y553836D01*
X616182Y554025D01*
X616540Y554185D01*
X616927Y554317D01*
X617344Y554419D01*
X617791Y554491D01*
X618268Y554535D01*
X618774Y554550D01*
X624581Y554550D01*
X624581Y542209D01*
X622908Y542209D01*
X622908Y547333D01*
X619063Y547333D01*
X615857Y542209D01*
G37*
%LPC*%
G36*
X622908Y548655D02*
X622908Y553210D01*
X618940Y553210D01*
X618607Y553201D01*
X618293Y553174D01*
X618000Y553130D01*
X617726Y553069D01*
X617473Y552989D01*
X617240Y552892D01*
X617027Y552777D01*
X616834Y552645D01*
X616663Y552496D01*
X616514Y552330D01*
X616388Y552149D01*
X616286Y551952D01*
X616206Y551739D01*
X616148Y551509D01*
X616114Y551264D01*
X616103Y551003D01*
X616114Y550732D01*
X616148Y550477D01*
X616204Y550238D01*
X616283Y550014D01*
X616385Y549805D01*
X616509Y549612D01*
X616656Y549435D01*
X616825Y549273D01*
X617015Y549128D01*
X617224Y549003D01*
X617452Y548896D01*
X617698Y548810D01*
X617963Y548742D01*
X618247Y548694D01*
X618549Y548665D01*
X618870Y548655D01*
X622908Y548655D01*
G37*
%LPD*%
G36*
X598145Y542034D02*
X597656Y542049D01*
X597196Y542092D01*
X596765Y542166D01*
X596363Y542268D01*
X595990Y542400D01*
X595646Y542561D01*
X595331Y542751D01*
X595045Y542971D01*
X594790Y543217D01*
X594569Y543488D01*
X594383Y543782D01*
X594230Y544101D01*
X594111Y544444D01*
X594026Y544810D01*
X593975Y545201D01*
X593958Y545616D01*
X593970Y545905D01*
X594007Y546182D01*
X594067Y546446D01*
X594151Y546698D01*
X594260Y546937D01*
X594392Y547163D01*
X594549Y547377D01*
X594729Y547578D01*
X594931Y547763D01*
X595153Y547928D01*
X595393Y548074D01*
X595653Y548200D01*
X595932Y548306D01*
X596230Y548393D01*
X596547Y548459D01*
X596884Y548506D01*
X596884Y548541D01*
X596578Y548615D01*
X596291Y548703D01*
X596022Y548806D01*
X595773Y548924D01*
X595542Y549056D01*
X595329Y549204D01*
X595136Y549367D01*
X594961Y549544D01*
X594806Y549736D01*
X594672Y549942D01*
X594558Y550162D01*
X594465Y550395D01*
X594393Y550642D01*
X594341Y550903D01*
X594310Y551178D01*
X594300Y551467D01*
X594316Y551842D01*
X594364Y552195D01*
X594445Y552527D01*
X594557Y552839D01*
X594702Y553129D01*
X594879Y553397D01*
X595088Y553645D01*
X595329Y553871D01*
X595599Y554073D01*
X595895Y554248D01*
X596217Y554397D01*
X596565Y554518D01*
X596939Y554612D01*
X597338Y554680D01*
X597764Y554720D01*
X598215Y554734D01*
X598630Y554720D01*
X599026Y554681D01*
X599403Y554614D01*
X599760Y554521D01*
X600098Y554402D01*
X600417Y554256D01*
X600716Y554083D01*
X600996Y553884D01*
X601252Y553661D01*
X601480Y553418D01*
X601680Y553153D01*
X601851Y552868D01*
X601994Y552562D01*
X602109Y552235D01*
X602195Y551888D01*
X602253Y551519D01*
X600667Y551397D01*
X600633Y551633D01*
X600581Y551855D01*
X600513Y552064D01*
X600428Y552259D01*
X600326Y552441D01*
X600207Y552609D01*
X600071Y552763D01*
X599919Y552903D01*
X599751Y553028D01*
X599572Y553137D01*
X599380Y553229D01*
X599175Y553304D01*
X598958Y553362D01*
X598729Y553404D01*
X598487Y553429D01*
X598233Y553437D01*
X597955Y553428D01*
X597694Y553402D01*
X597452Y553357D01*
X597226Y553294D01*
X597019Y553213D01*
X596829Y553115D01*
X596657Y552998D01*
X596503Y552864D01*
X596366Y552714D01*
X596248Y552551D01*
X596148Y552375D01*
X596066Y552186D01*
X596002Y551984D01*
X595957Y551769D01*
X595929Y551541D01*
X595920Y551300D01*
X595932Y551058D01*
X595965Y550828D01*
X596021Y550612D01*
X596099Y550410D01*
X596199Y550222D01*
X596322Y550047D01*
X596467Y549885D01*
X596634Y549737D01*
X596822Y549605D01*
X597027Y549490D01*
X597251Y549393D01*
X597494Y549313D01*
X597754Y549251D01*
X598033Y549207D01*
X598329Y549181D01*
X598644Y549172D01*
X599503Y549172D01*
X599503Y547806D01*
X598609Y547806D01*
X598254Y547797D01*
X597921Y547770D01*
X597609Y547726D01*
X597318Y547664D01*
X597049Y547585D01*
X596802Y547488D01*
X596576Y547373D01*
X596371Y547241D01*
X596190Y547093D01*
X596032Y546931D01*
X595899Y546755D01*
X595790Y546565D01*
X595705Y546362D01*
X595645Y546145D01*
X595608Y545914D01*
X595596Y545669D01*
X595607Y545388D01*
X595639Y545126D01*
X595692Y544882D01*
X595766Y544655D01*
X595861Y544446D01*
X595978Y544255D01*
X596116Y544081D01*
X596275Y543926D01*
X596453Y543788D01*
X596646Y543669D01*
X596856Y543568D01*
X597082Y543486D01*
X597324Y543421D01*
X597581Y543376D01*
X597855Y543348D01*
X598145Y543339D01*
X598434Y543347D01*
X598706Y543373D01*
X598963Y543416D01*
X599203Y543476D01*
X599428Y543553D01*
X599636Y543647D01*
X599828Y543758D01*
X600004Y543886D01*
X600164Y544032D01*
X600308Y544194D01*
X600436Y544374D01*
X600548Y544571D01*
X600643Y544784D01*
X600723Y545015D01*
X600786Y545263D01*
X600834Y545528D01*
X602463Y545380D01*
X602396Y544978D01*
X602301Y544603D01*
X602178Y544252D01*
X602026Y543927D01*
X601846Y543627D01*
X601638Y543352D01*
X601401Y543103D01*
X601136Y542879D01*
X600845Y542681D01*
X600530Y542509D01*
X600192Y542364D01*
X599830Y542245D01*
X599444Y542153D01*
X599035Y542087D01*
X598602Y542047D01*
X598145Y542034D01*
G37*
G36*
X612213Y542209D02*
X604041Y542209D01*
X604041Y543549D01*
X610479Y543549D01*
X610326Y543859D01*
X610133Y544174D01*
X609897Y544496D01*
X609620Y544823D01*
X609297Y545164D01*
X608922Y545525D01*
X608495Y545906D01*
X608017Y546308D01*
X607176Y547004D01*
X606482Y547602D01*
X605937Y548103D01*
X605539Y548506D01*
X605235Y548861D01*
X604971Y549216D01*
X604746Y549571D01*
X604562Y549925D01*
X604418Y550281D01*
X604316Y550637D01*
X604254Y550994D01*
X604234Y551353D01*
X604249Y551746D01*
X604296Y552117D01*
X604375Y552464D01*
X604484Y552788D01*
X604625Y553089D01*
X604798Y553367D01*
X605002Y553622D01*
X605237Y553853D01*
X605501Y554060D01*
X605792Y554239D01*
X606110Y554390D01*
X606455Y554514D01*
X606827Y554610D01*
X607226Y554679D01*
X607652Y554720D01*
X608105Y554734D01*
X608520Y554720D01*
X608916Y554679D01*
X609293Y554611D01*
X609650Y554515D01*
X609988Y554392D01*
X610306Y554241D01*
X610606Y554063D01*
X610886Y553858D01*
X611142Y553629D01*
X611370Y553382D01*
X611570Y553116D01*
X611741Y552831D01*
X611884Y552527D01*
X611998Y552204D01*
X612085Y551862D01*
X612143Y551502D01*
X610531Y551353D01*
X610494Y551593D01*
X610441Y551820D01*
X610370Y552033D01*
X610283Y552232D01*
X610178Y552417D01*
X610057Y552589D01*
X609919Y552746D01*
X609765Y552890D01*
X609596Y553018D01*
X609416Y553130D01*
X609225Y553224D01*
X609024Y553301D01*
X608811Y553360D01*
X608586Y553403D01*
X608351Y553429D01*
X608105Y553437D01*
X607847Y553429D01*
X607604Y553402D01*
X607375Y553359D01*
X607161Y553297D01*
X606962Y553218D01*
X606776Y553122D01*
X606606Y553008D01*
X606450Y552877D01*
X606310Y552730D01*
X606189Y552568D01*
X606087Y552392D01*
X606003Y552202D01*
X605938Y551998D01*
X605891Y551780D01*
X605863Y551547D01*
X605854Y551300D01*
X605876Y550934D01*
X605941Y550587D01*
X606049Y550259D01*
X606200Y549952D01*
X606386Y549657D01*
X606600Y549369D01*
X606840Y549088D01*
X607107Y548813D01*
X607701Y548270D01*
X608363Y547727D01*
X609063Y547161D01*
X609769Y546549D01*
X610120Y546222D01*
X610462Y545877D01*
X610796Y545513D01*
X611122Y545130D01*
X611432Y544723D01*
X611717Y544286D01*
X611977Y543819D01*
X612213Y543321D01*
X612213Y542209D01*
G37*
G36*
X615857Y580309D02*
X613931Y580309D01*
X615943Y583362D01*
X617434Y585625D01*
X617091Y585698D01*
X616767Y585791D01*
X616462Y585907D01*
X616176Y586044D01*
X616020Y586136D01*
X615909Y586202D01*
X615661Y586383D01*
X615432Y586584D01*
X615222Y586808D01*
X615035Y587049D01*
X614872Y587304D01*
X614734Y587572D01*
X614621Y587854D01*
X614534Y588150D01*
X614471Y588460D01*
X614434Y588783D01*
X614421Y589120D01*
X614439Y589525D01*
X614492Y589906D01*
X614581Y590265D01*
X614705Y590601D01*
X614864Y590915D01*
X615059Y591205D01*
X615289Y591472D01*
X615555Y591717D01*
X615854Y591936D01*
X616182Y592125D01*
X616540Y592285D01*
X616927Y592417D01*
X617344Y592519D01*
X617791Y592591D01*
X618268Y592635D01*
X618774Y592650D01*
X624581Y592650D01*
X624581Y580309D01*
X622908Y580309D01*
X622908Y585433D01*
X619063Y585433D01*
X615857Y580309D01*
G37*
%LPC*%
G36*
X622908Y586755D02*
X622908Y591310D01*
X618940Y591310D01*
X618607Y591301D01*
X618293Y591274D01*
X618000Y591230D01*
X617726Y591169D01*
X617473Y591089D01*
X617240Y590992D01*
X617027Y590877D01*
X616834Y590745D01*
X616663Y590596D01*
X616514Y590430D01*
X616388Y590249D01*
X616286Y590052D01*
X616206Y589839D01*
X616148Y589609D01*
X616114Y589364D01*
X616103Y589103D01*
X616114Y588832D01*
X616148Y588577D01*
X616204Y588338D01*
X616283Y588114D01*
X616385Y587905D01*
X616509Y587712D01*
X616656Y587535D01*
X616825Y587373D01*
X617015Y587228D01*
X617224Y587103D01*
X617452Y586996D01*
X617698Y586910D01*
X617963Y586842D01*
X618247Y586794D01*
X618549Y586765D01*
X618870Y586755D01*
X622908Y586755D01*
G37*
%LPD*%
G36*
X596919Y580309D02*
X595430Y580309D01*
X595430Y583103D01*
X593696Y583103D01*
X593696Y584347D01*
X595430Y584347D01*
X595430Y592650D01*
X597085Y592650D01*
X602735Y584329D01*
X602735Y583103D01*
X596919Y583103D01*
X596919Y580309D01*
G37*
%LPC*%
G36*
X601281Y584347D02*
X601140Y584522D01*
X600667Y585170D01*
X597506Y589830D01*
X597164Y590408D01*
X596919Y590872D01*
X596919Y584347D01*
X601281Y584347D01*
G37*
%LPD*%
G36*
X612213Y580309D02*
X604041Y580309D01*
X604041Y581649D01*
X610479Y581649D01*
X610326Y581959D01*
X610133Y582274D01*
X609897Y582596D01*
X609620Y582923D01*
X609297Y583264D01*
X608922Y583625D01*
X608495Y584006D01*
X608017Y584408D01*
X607176Y585104D01*
X606482Y585702D01*
X605937Y586203D01*
X605539Y586606D01*
X605235Y586961D01*
X604971Y587316D01*
X604746Y587671D01*
X604562Y588025D01*
X604418Y588381D01*
X604316Y588737D01*
X604254Y589094D01*
X604234Y589453D01*
X604249Y589846D01*
X604296Y590217D01*
X604375Y590564D01*
X604484Y590888D01*
X604625Y591189D01*
X604798Y591467D01*
X605002Y591722D01*
X605237Y591953D01*
X605501Y592160D01*
X605792Y592339D01*
X606110Y592490D01*
X606455Y592614D01*
X606827Y592710D01*
X607226Y592779D01*
X607652Y592820D01*
X608105Y592834D01*
X608520Y592820D01*
X608916Y592779D01*
X609293Y592711D01*
X609650Y592615D01*
X609988Y592492D01*
X610306Y592341D01*
X610606Y592163D01*
X610886Y591958D01*
X611142Y591729D01*
X611370Y591482D01*
X611570Y591216D01*
X611741Y590931D01*
X611884Y590627D01*
X611998Y590304D01*
X612085Y589962D01*
X612143Y589602D01*
X610531Y589453D01*
X610494Y589693D01*
X610441Y589920D01*
X610370Y590133D01*
X610283Y590332D01*
X610178Y590517D01*
X610057Y590689D01*
X609919Y590846D01*
X609765Y590990D01*
X609596Y591118D01*
X609416Y591230D01*
X609225Y591324D01*
X609024Y591401D01*
X608811Y591460D01*
X608586Y591503D01*
X608351Y591529D01*
X608105Y591537D01*
X607847Y591529D01*
X607604Y591502D01*
X607375Y591459D01*
X607161Y591397D01*
X606962Y591318D01*
X606776Y591222D01*
X606606Y591108D01*
X606450Y590977D01*
X606310Y590830D01*
X606189Y590668D01*
X606087Y590492D01*
X606003Y590302D01*
X605938Y590098D01*
X605891Y589880D01*
X605863Y589647D01*
X605854Y589400D01*
X605876Y589034D01*
X605941Y588687D01*
X606049Y588359D01*
X606200Y588052D01*
X606386Y587757D01*
X606600Y587469D01*
X606840Y587188D01*
X607107Y586913D01*
X607701Y586370D01*
X608363Y585827D01*
X609063Y585261D01*
X609769Y584649D01*
X610120Y584322D01*
X610462Y583977D01*
X610796Y583613D01*
X611122Y583230D01*
X611432Y582823D01*
X611717Y582386D01*
X611977Y581919D01*
X612213Y581421D01*
X612213Y580309D01*
G37*
G36*
X615857Y618409D02*
X613931Y618409D01*
X615943Y621462D01*
X617434Y623725D01*
X617091Y623798D01*
X616767Y623891D01*
X616462Y624007D01*
X616176Y624144D01*
X616020Y624236D01*
X615909Y624302D01*
X615661Y624483D01*
X615432Y624684D01*
X615222Y624908D01*
X615035Y625149D01*
X614872Y625404D01*
X614734Y625672D01*
X614621Y625954D01*
X614534Y626250D01*
X614471Y626560D01*
X614434Y626883D01*
X614421Y627220D01*
X614439Y627625D01*
X614492Y628006D01*
X614581Y628365D01*
X614705Y628701D01*
X614864Y629015D01*
X615059Y629305D01*
X615289Y629572D01*
X615555Y629817D01*
X615854Y630036D01*
X616182Y630225D01*
X616540Y630385D01*
X616927Y630517D01*
X617344Y630619D01*
X617791Y630691D01*
X618268Y630735D01*
X618774Y630750D01*
X624581Y630750D01*
X624581Y618409D01*
X622908Y618409D01*
X622908Y623533D01*
X619063Y623533D01*
X615857Y618409D01*
G37*
%LPC*%
G36*
X622908Y624855D02*
X622908Y629410D01*
X618940Y629410D01*
X618607Y629401D01*
X618293Y629374D01*
X618000Y629330D01*
X617726Y629269D01*
X617473Y629189D01*
X617240Y629092D01*
X617027Y628977D01*
X616834Y628845D01*
X616663Y628696D01*
X616514Y628530D01*
X616388Y628349D01*
X616286Y628152D01*
X616206Y627939D01*
X616148Y627709D01*
X616114Y627464D01*
X616103Y627203D01*
X616114Y626932D01*
X616148Y626677D01*
X616204Y626438D01*
X616283Y626214D01*
X616385Y626005D01*
X616509Y625812D01*
X616656Y625635D01*
X616825Y625473D01*
X617015Y625328D01*
X617224Y625203D01*
X617452Y625096D01*
X617698Y625010D01*
X617963Y624942D01*
X618247Y624894D01*
X618549Y624865D01*
X618870Y624855D01*
X622908Y624855D01*
G37*
%LPD*%
G36*
X598303Y618234D02*
X597802Y618251D01*
X597330Y618304D01*
X596885Y618392D01*
X596469Y618514D01*
X596081Y618672D01*
X595720Y618864D01*
X595388Y619092D01*
X595084Y619355D01*
X594812Y619648D01*
X594576Y619967D01*
X594377Y620313D01*
X594214Y620684D01*
X594087Y621081D01*
X593996Y621505D01*
X593942Y621954D01*
X593923Y622429D01*
X593940Y622848D01*
X593991Y623247D01*
X594076Y623626D01*
X594194Y623984D01*
X594346Y624322D01*
X594532Y624640D01*
X594752Y624937D01*
X595005Y625214D01*
X595287Y625465D01*
X595592Y625682D01*
X595920Y625866D01*
X596272Y626016D01*
X596646Y626133D01*
X597044Y626216D01*
X597465Y626266D01*
X597909Y626283D01*
X598282Y626271D01*
X598639Y626234D01*
X598981Y626172D01*
X599308Y626086D01*
X599619Y625975D01*
X599914Y625840D01*
X600193Y625679D01*
X600457Y625495D01*
X600221Y629410D01*
X594642Y629410D01*
X594642Y630750D01*
X601657Y630750D01*
X602069Y624111D01*
X600527Y624111D01*
X600251Y624334D01*
X599976Y624522D01*
X599700Y624676D01*
X599424Y624794D01*
X599142Y624882D01*
X598850Y624945D01*
X598547Y624983D01*
X598233Y624995D01*
X597934Y624984D01*
X597651Y624951D01*
X597384Y624894D01*
X597132Y624816D01*
X596897Y624715D01*
X596677Y624591D01*
X596472Y624446D01*
X596284Y624277D01*
X596114Y624091D01*
X595968Y623890D01*
X595844Y623676D01*
X595742Y623447D01*
X595663Y623205D01*
X595606Y622949D01*
X595573Y622678D01*
X595561Y622394D01*
X595572Y622068D01*
X595606Y621760D01*
X595662Y621470D01*
X595741Y621198D01*
X595842Y620943D01*
X595965Y620707D01*
X596111Y620488D01*
X596279Y620288D01*
X596468Y620108D01*
X596673Y619952D01*
X596896Y619821D01*
X597136Y619713D01*
X597393Y619629D01*
X597667Y619569D01*
X597959Y619533D01*
X598268Y619521D01*
X598520Y619528D01*
X598760Y619550D01*
X598988Y619586D01*
X599203Y619636D01*
X599406Y619700D01*
X599597Y619779D01*
X599776Y619872D01*
X599943Y619979D01*
X600097Y620101D01*
X600239Y620236D01*
X600369Y620387D01*
X600486Y620551D01*
X600592Y620730D01*
X600685Y620923D01*
X600765Y621130D01*
X600834Y621352D01*
X602428Y621168D01*
X602346Y620822D01*
X602239Y620496D01*
X602108Y620192D01*
X601953Y619909D01*
X601773Y619647D01*
X601569Y619406D01*
X601341Y619186D01*
X601088Y618987D01*
X600813Y618811D01*
X600516Y618658D01*
X600199Y618528D01*
X599862Y618422D01*
X599503Y618340D01*
X599124Y618281D01*
X598724Y618246D01*
X598303Y618234D01*
G37*
G36*
X612213Y618409D02*
X604041Y618409D01*
X604041Y619749D01*
X610479Y619749D01*
X610326Y620059D01*
X610133Y620374D01*
X609897Y620696D01*
X609620Y621023D01*
X609297Y621364D01*
X608922Y621725D01*
X608495Y622106D01*
X608017Y622508D01*
X607176Y623204D01*
X606482Y623802D01*
X605937Y624303D01*
X605539Y624706D01*
X605235Y625061D01*
X604971Y625416D01*
X604746Y625771D01*
X604562Y626125D01*
X604418Y626481D01*
X604316Y626837D01*
X604254Y627194D01*
X604234Y627553D01*
X604249Y627946D01*
X604296Y628317D01*
X604375Y628664D01*
X604484Y628988D01*
X604625Y629289D01*
X604798Y629567D01*
X605002Y629822D01*
X605237Y630053D01*
X605501Y630260D01*
X605792Y630439D01*
X606110Y630590D01*
X606455Y630714D01*
X606827Y630810D01*
X607226Y630879D01*
X607652Y630920D01*
X608105Y630934D01*
X608520Y630920D01*
X608916Y630879D01*
X609293Y630811D01*
X609650Y630715D01*
X609988Y630592D01*
X610306Y630441D01*
X610606Y630263D01*
X610886Y630058D01*
X611142Y629829D01*
X611370Y629582D01*
X611570Y629316D01*
X611741Y629031D01*
X611884Y628727D01*
X611998Y628404D01*
X612085Y628062D01*
X612143Y627702D01*
X610531Y627553D01*
X610494Y627793D01*
X610441Y628020D01*
X610370Y628233D01*
X610283Y628432D01*
X610178Y628617D01*
X610057Y628789D01*
X609919Y628946D01*
X609765Y629090D01*
X609596Y629218D01*
X609416Y629330D01*
X609225Y629424D01*
X609024Y629501D01*
X608811Y629560D01*
X608586Y629603D01*
X608351Y629629D01*
X608105Y629637D01*
X607847Y629629D01*
X607604Y629602D01*
X607375Y629559D01*
X607161Y629497D01*
X606962Y629418D01*
X606776Y629322D01*
X606606Y629208D01*
X606450Y629077D01*
X606310Y628930D01*
X606189Y628768D01*
X606087Y628592D01*
X606003Y628402D01*
X605938Y628198D01*
X605891Y627980D01*
X605863Y627747D01*
X605854Y627500D01*
X605876Y627134D01*
X605941Y626787D01*
X606049Y626459D01*
X606200Y626152D01*
X606386Y625857D01*
X606600Y625569D01*
X606840Y625288D01*
X607107Y625013D01*
X607701Y624470D01*
X608363Y623927D01*
X609063Y623361D01*
X609769Y622749D01*
X610120Y622422D01*
X610462Y622077D01*
X610796Y621713D01*
X611122Y621330D01*
X611432Y620923D01*
X611717Y620486D01*
X611977Y620019D01*
X612213Y619521D01*
X612213Y618409D01*
G37*
G36*
X615857Y656509D02*
X613931Y656509D01*
X615943Y659562D01*
X617434Y661825D01*
X617091Y661898D01*
X616767Y661991D01*
X616462Y662107D01*
X616176Y662244D01*
X616020Y662336D01*
X615909Y662402D01*
X615661Y662583D01*
X615432Y662784D01*
X615222Y663008D01*
X615035Y663249D01*
X614872Y663504D01*
X614734Y663772D01*
X614621Y664054D01*
X614534Y664350D01*
X614471Y664660D01*
X614434Y664983D01*
X614421Y665320D01*
X614439Y665725D01*
X614492Y666106D01*
X614581Y666465D01*
X614705Y666801D01*
X614864Y667115D01*
X615059Y667405D01*
X615289Y667672D01*
X615555Y667917D01*
X615854Y668136D01*
X616182Y668325D01*
X616540Y668485D01*
X616927Y668617D01*
X617344Y668719D01*
X617791Y668791D01*
X618268Y668835D01*
X618774Y668850D01*
X624581Y668850D01*
X624581Y656509D01*
X622908Y656509D01*
X622908Y661633D01*
X619063Y661633D01*
X615857Y656509D01*
G37*
%LPC*%
G36*
X622908Y662955D02*
X622908Y667510D01*
X618940Y667510D01*
X618607Y667501D01*
X618293Y667474D01*
X618000Y667430D01*
X617726Y667369D01*
X617473Y667289D01*
X617240Y667192D01*
X617027Y667077D01*
X616834Y666945D01*
X616663Y666796D01*
X616514Y666630D01*
X616388Y666449D01*
X616286Y666252D01*
X616206Y666039D01*
X616148Y665809D01*
X616114Y665564D01*
X616103Y665303D01*
X616114Y665032D01*
X616148Y664777D01*
X616204Y664538D01*
X616283Y664314D01*
X616385Y664105D01*
X616509Y663912D01*
X616656Y663735D01*
X616825Y663573D01*
X617015Y663428D01*
X617224Y663303D01*
X617452Y663196D01*
X617698Y663110D01*
X617963Y663042D01*
X618247Y662994D01*
X618549Y662965D01*
X618870Y662955D01*
X622908Y662955D01*
G37*
%LPD*%
G36*
X597944Y656334D02*
X597490Y656352D01*
X597061Y656404D01*
X596658Y656493D01*
X596279Y656616D01*
X595926Y656775D01*
X595598Y656969D01*
X595296Y657199D01*
X595018Y657464D01*
X594770Y657759D01*
X594555Y658080D01*
X594372Y658427D01*
X594223Y658799D01*
X594107Y659198D01*
X594025Y659622D01*
X593975Y660071D01*
X593958Y660547D01*
X593974Y660986D01*
X594021Y661403D01*
X594099Y661796D01*
X594209Y662167D01*
X594350Y662515D01*
X594523Y662839D01*
X594726Y663141D01*
X594961Y663419D01*
X595223Y663670D01*
X595507Y663887D01*
X595813Y664071D01*
X596140Y664221D01*
X596490Y664338D01*
X596862Y664421D01*
X597256Y664471D01*
X597672Y664488D01*
X597920Y664482D01*
X598161Y664462D01*
X598395Y664430D01*
X598622Y664384D01*
X599055Y664254D01*
X599459Y664072D01*
X599827Y663840D01*
X600151Y663561D01*
X600431Y663234D01*
X600667Y662859D01*
X600656Y663437D01*
X600621Y663980D01*
X600563Y664487D01*
X600482Y664960D01*
X600378Y665397D01*
X600251Y665799D01*
X600101Y666166D01*
X599927Y666498D01*
X599733Y666793D01*
X599519Y667048D01*
X599287Y667264D01*
X599035Y667441D01*
X598764Y667578D01*
X598475Y667676D01*
X598166Y667735D01*
X597838Y667755D01*
X597464Y667731D01*
X597124Y667661D01*
X596818Y667543D01*
X596547Y667378D01*
X596310Y667167D01*
X596108Y666908D01*
X595940Y666602D01*
X595806Y666249D01*
X594300Y666520D01*
X594399Y666824D01*
X594514Y667109D01*
X594645Y667374D01*
X594793Y667620D01*
X594956Y667846D01*
X595136Y668052D01*
X595332Y668238D01*
X595544Y668405D01*
X595772Y668553D01*
X596016Y668680D01*
X596277Y668788D01*
X596553Y668877D01*
X596846Y668945D01*
X597155Y668994D01*
X597480Y669024D01*
X597821Y669034D01*
X598082Y669027D01*
X598336Y669007D01*
X598582Y668973D01*
X598820Y668926D01*
X599051Y668866D01*
X599274Y668792D01*
X599697Y668605D01*
X600091Y668363D01*
X600453Y668068D01*
X600786Y667719D01*
X601088Y667317D01*
X601357Y666865D01*
X601590Y666366D01*
X601787Y665820D01*
X601948Y665228D01*
X602074Y664590D01*
X602164Y663904D01*
X602217Y663173D01*
X602235Y662395D01*
X602218Y661677D01*
X602166Y661003D01*
X602080Y660373D01*
X601959Y659787D01*
X601804Y659245D01*
X601615Y658747D01*
X601390Y658294D01*
X601132Y657884D01*
X600840Y657521D01*
X600519Y657206D01*
X600166Y656939D01*
X599783Y656721D01*
X599369Y656552D01*
X598925Y656431D01*
X598449Y656358D01*
X598200Y656340D01*
X597944Y656334D01*
G37*
%LPC*%
G36*
X597996Y657604D02*
X598266Y657618D01*
X598523Y657661D01*
X598768Y657732D01*
X599000Y657832D01*
X599220Y657960D01*
X599427Y658116D01*
X599622Y658301D01*
X599805Y658515D01*
X599970Y658751D01*
X600113Y659002D01*
X600234Y659271D01*
X600334Y659555D01*
X600411Y659855D01*
X600466Y660172D01*
X600499Y660504D01*
X600510Y660853D01*
X600499Y661128D01*
X600467Y661388D01*
X600414Y661632D01*
X600340Y661862D01*
X600245Y662076D01*
X600128Y662275D01*
X599990Y662458D01*
X599831Y662627D01*
X599655Y662778D01*
X599465Y662908D01*
X599262Y663019D01*
X599046Y663110D01*
X598817Y663180D01*
X598574Y663230D01*
X598318Y663261D01*
X598049Y663271D01*
X597763Y663259D01*
X597494Y663225D01*
X597241Y663168D01*
X597004Y663089D01*
X596783Y662987D01*
X596579Y662862D01*
X596390Y662714D01*
X596218Y662544D01*
X596064Y662352D01*
X595931Y662142D01*
X595818Y661912D01*
X595725Y661663D01*
X595654Y661395D01*
X595602Y661108D01*
X595572Y660802D01*
X595561Y660477D01*
X595571Y660151D01*
X595602Y659842D01*
X595652Y659552D01*
X595723Y659280D01*
X595814Y659026D01*
X595926Y658789D01*
X596057Y658571D01*
X596209Y658370D01*
X596379Y658191D01*
X596564Y658035D01*
X596764Y657903D01*
X596980Y657795D01*
X597211Y657712D01*
X597457Y657652D01*
X597719Y657616D01*
X597996Y657604D01*
G37*
%LPD*%
G36*
X612213Y656509D02*
X604041Y656509D01*
X604041Y657849D01*
X610479Y657849D01*
X610326Y658159D01*
X610133Y658474D01*
X609897Y658796D01*
X609620Y659123D01*
X609297Y659464D01*
X608922Y659825D01*
X608495Y660206D01*
X608017Y660608D01*
X607176Y661304D01*
X606482Y661902D01*
X605937Y662403D01*
X605539Y662806D01*
X605235Y663161D01*
X604971Y663516D01*
X604746Y663871D01*
X604562Y664225D01*
X604418Y664581D01*
X604316Y664937D01*
X604254Y665294D01*
X604234Y665653D01*
X604249Y666046D01*
X604296Y666417D01*
X604375Y666764D01*
X604484Y667088D01*
X604625Y667389D01*
X604798Y667667D01*
X605002Y667922D01*
X605237Y668153D01*
X605501Y668360D01*
X605792Y668539D01*
X606110Y668690D01*
X606455Y668814D01*
X606827Y668910D01*
X607226Y668979D01*
X607652Y669020D01*
X608105Y669034D01*
X608520Y669020D01*
X608916Y668979D01*
X609293Y668911D01*
X609650Y668815D01*
X609988Y668692D01*
X610306Y668541D01*
X610606Y668363D01*
X610886Y668158D01*
X611142Y667929D01*
X611370Y667682D01*
X611570Y667416D01*
X611741Y667131D01*
X611884Y666827D01*
X611998Y666504D01*
X612085Y666162D01*
X612143Y665802D01*
X610531Y665653D01*
X610494Y665893D01*
X610441Y666120D01*
X610370Y666333D01*
X610283Y666532D01*
X610178Y666717D01*
X610057Y666889D01*
X609919Y667046D01*
X609765Y667190D01*
X609596Y667318D01*
X609416Y667430D01*
X609225Y667524D01*
X609024Y667601D01*
X608811Y667660D01*
X608586Y667703D01*
X608351Y667729D01*
X608105Y667737D01*
X607847Y667729D01*
X607604Y667702D01*
X607375Y667659D01*
X607161Y667597D01*
X606962Y667518D01*
X606776Y667422D01*
X606606Y667308D01*
X606450Y667177D01*
X606310Y667030D01*
X606189Y666868D01*
X606087Y666692D01*
X606003Y666502D01*
X605938Y666298D01*
X605891Y666080D01*
X605863Y665847D01*
X605854Y665600D01*
X605876Y665234D01*
X605941Y664887D01*
X606049Y664559D01*
X606200Y664252D01*
X606386Y663957D01*
X606600Y663669D01*
X606840Y663388D01*
X607107Y663113D01*
X607701Y662570D01*
X608363Y662027D01*
X609063Y661461D01*
X609769Y660849D01*
X610120Y660522D01*
X610462Y660177D01*
X610796Y659813D01*
X611122Y659430D01*
X611432Y659023D01*
X611717Y658586D01*
X611977Y658119D01*
X612213Y657621D01*
X612213Y656509D01*
G37*
G36*
X615857Y694609D02*
X613931Y694609D01*
X615943Y697662D01*
X617434Y699925D01*
X617091Y699998D01*
X616767Y700091D01*
X616462Y700207D01*
X616176Y700344D01*
X616020Y700436D01*
X615909Y700502D01*
X615661Y700683D01*
X615432Y700884D01*
X615222Y701108D01*
X615035Y701349D01*
X614872Y701604D01*
X614734Y701872D01*
X614621Y702154D01*
X614534Y702450D01*
X614471Y702760D01*
X614434Y703083D01*
X614421Y703420D01*
X614439Y703825D01*
X614492Y704206D01*
X614581Y704565D01*
X614705Y704901D01*
X614864Y705215D01*
X615059Y705505D01*
X615289Y705772D01*
X615555Y706017D01*
X615854Y706236D01*
X616182Y706425D01*
X616540Y706585D01*
X616927Y706717D01*
X617344Y706819D01*
X617791Y706891D01*
X618268Y706935D01*
X618774Y706950D01*
X624581Y706950D01*
X624581Y694609D01*
X622908Y694609D01*
X622908Y699733D01*
X619063Y699733D01*
X615857Y694609D01*
G37*
%LPC*%
G36*
X622908Y701055D02*
X622908Y705610D01*
X618940Y705610D01*
X618607Y705601D01*
X618293Y705574D01*
X618000Y705530D01*
X617726Y705469D01*
X617473Y705389D01*
X617240Y705292D01*
X617027Y705177D01*
X616834Y705045D01*
X616663Y704896D01*
X616514Y704730D01*
X616388Y704549D01*
X616286Y704352D01*
X616206Y704139D01*
X616148Y703909D01*
X616114Y703664D01*
X616103Y703403D01*
X616114Y703132D01*
X616148Y702877D01*
X616204Y702638D01*
X616283Y702414D01*
X616385Y702205D01*
X616509Y702012D01*
X616656Y701835D01*
X616825Y701673D01*
X617015Y701528D01*
X617224Y701403D01*
X617452Y701296D01*
X617698Y701210D01*
X617963Y701142D01*
X618247Y701094D01*
X618549Y701065D01*
X618870Y701055D01*
X622908Y701055D01*
G37*
%LPD*%
G36*
X612213Y694609D02*
X604041Y694609D01*
X604041Y695949D01*
X610479Y695949D01*
X610326Y696259D01*
X610133Y696574D01*
X609897Y696896D01*
X609620Y697223D01*
X609297Y697564D01*
X608922Y697925D01*
X608495Y698306D01*
X608017Y698708D01*
X607176Y699404D01*
X606482Y700002D01*
X605937Y700503D01*
X605539Y700906D01*
X605235Y701261D01*
X604971Y701616D01*
X604746Y701971D01*
X604562Y702325D01*
X604418Y702681D01*
X604316Y703037D01*
X604254Y703394D01*
X604234Y703753D01*
X604249Y704146D01*
X604296Y704517D01*
X604375Y704864D01*
X604484Y705188D01*
X604625Y705489D01*
X604798Y705767D01*
X605002Y706022D01*
X605237Y706253D01*
X605501Y706460D01*
X605792Y706639D01*
X606110Y706790D01*
X606455Y706914D01*
X606827Y707010D01*
X607226Y707079D01*
X607652Y707120D01*
X608105Y707134D01*
X608520Y707120D01*
X608916Y707079D01*
X609293Y707011D01*
X609650Y706915D01*
X609988Y706792D01*
X610306Y706641D01*
X610606Y706463D01*
X610886Y706258D01*
X611142Y706029D01*
X611370Y705782D01*
X611570Y705516D01*
X611741Y705231D01*
X611884Y704927D01*
X611998Y704604D01*
X612085Y704262D01*
X612143Y703902D01*
X610531Y703753D01*
X610494Y703993D01*
X610441Y704220D01*
X610370Y704433D01*
X610283Y704632D01*
X610178Y704817D01*
X610057Y704989D01*
X609919Y705146D01*
X609765Y705290D01*
X609596Y705418D01*
X609416Y705530D01*
X609225Y705624D01*
X609024Y705701D01*
X608811Y705760D01*
X608586Y705803D01*
X608351Y705829D01*
X608105Y705837D01*
X607847Y705829D01*
X607604Y705802D01*
X607375Y705759D01*
X607161Y705697D01*
X606962Y705618D01*
X606776Y705522D01*
X606606Y705408D01*
X606450Y705277D01*
X606310Y705130D01*
X606189Y704968D01*
X606087Y704792D01*
X606003Y704602D01*
X605938Y704398D01*
X605891Y704180D01*
X605863Y703947D01*
X605854Y703700D01*
X605876Y703334D01*
X605941Y702987D01*
X606049Y702659D01*
X606200Y702352D01*
X606386Y702057D01*
X606600Y701769D01*
X606840Y701488D01*
X607107Y701213D01*
X607701Y700670D01*
X608363Y700127D01*
X609063Y699561D01*
X609769Y698949D01*
X610120Y698622D01*
X610462Y698277D01*
X610796Y697913D01*
X611122Y697530D01*
X611432Y697123D01*
X611717Y696686D01*
X611977Y696219D01*
X612213Y695721D01*
X612213Y694609D01*
G37*
G36*
X599949Y694609D02*
X598303Y694609D01*
X598297Y695034D01*
X598278Y695456D01*
X598205Y696288D01*
X598083Y697107D01*
X597913Y697911D01*
X597694Y698711D01*
X597426Y699516D01*
X597109Y700327D01*
X596744Y701143D01*
X596284Y702040D01*
X595686Y703094D01*
X594949Y704304D01*
X594072Y705671D01*
X594072Y706950D01*
X602227Y706950D01*
X602227Y705610D01*
X595596Y705610D01*
X596162Y704770D01*
X596686Y703956D01*
X597168Y703166D01*
X597607Y702401D01*
X598005Y701661D01*
X598361Y700945D01*
X598675Y700254D01*
X598946Y699588D01*
X599181Y698939D01*
X599385Y698297D01*
X599558Y697663D01*
X599699Y697036D01*
X599808Y696418D01*
X599887Y695807D01*
X599934Y695204D01*
X599949Y694609D01*
G37*
G36*
X661654Y503934D02*
X661161Y503949D01*
X660697Y503994D01*
X660263Y504068D01*
X659858Y504172D01*
X659483Y504307D01*
X659138Y504471D01*
X658822Y504665D01*
X658536Y504889D01*
X658281Y505139D01*
X658061Y505413D01*
X657874Y505710D01*
X657721Y506032D01*
X657602Y506376D01*
X657518Y506744D01*
X657467Y507136D01*
X657450Y507551D01*
X657460Y507849D01*
X657491Y508134D01*
X657542Y508407D01*
X657614Y508667D01*
X657706Y508914D01*
X657819Y509148D01*
X657953Y509370D01*
X658107Y509579D01*
X658140Y509616D01*
X658279Y509772D01*
X658468Y509945D01*
X658673Y510100D01*
X658895Y510235D01*
X659133Y510350D01*
X659388Y510447D01*
X659658Y510524D01*
X659946Y510582D01*
X659946Y510617D01*
X659699Y510676D01*
X659465Y510754D01*
X659244Y510850D01*
X659037Y510965D01*
X658844Y511098D01*
X658681Y511234D01*
X658663Y511249D01*
X658496Y511418D01*
X658343Y511606D01*
X658206Y511808D01*
X658086Y512017D01*
X657985Y512236D01*
X657903Y512462D01*
X657839Y512698D01*
X657793Y512941D01*
X657765Y513194D01*
X657756Y513454D01*
X657773Y513811D01*
X657822Y514148D01*
X657905Y514466D01*
X658020Y514766D01*
X658169Y515047D01*
X658350Y515308D01*
X658564Y515551D01*
X658812Y515775D01*
X659087Y515977D01*
X659387Y516151D01*
X659711Y516298D01*
X660059Y516419D01*
X660430Y516513D01*
X660826Y516580D01*
X661245Y516620D01*
X661689Y516634D01*
X662122Y516620D01*
X662533Y516579D01*
X662921Y516511D01*
X663286Y516415D01*
X663629Y516292D01*
X663949Y516141D01*
X664247Y515963D01*
X664522Y515758D01*
X664770Y515531D01*
X664984Y515287D01*
X665165Y515026D01*
X665314Y514748D01*
X665429Y514454D01*
X665512Y514144D01*
X665561Y513816D01*
X665578Y513472D01*
X665569Y513211D01*
X665541Y512959D01*
X665496Y512715D01*
X665432Y512480D01*
X665350Y512253D01*
X665250Y512035D01*
X665132Y511825D01*
X664995Y511624D01*
X664843Y511435D01*
X664677Y511264D01*
X664499Y511110D01*
X664307Y510974D01*
X664101Y510854D01*
X663883Y510752D01*
X663651Y510667D01*
X663405Y510599D01*
X663405Y510564D01*
X663669Y510510D01*
X663920Y510436D01*
X664159Y510342D01*
X664386Y510227D01*
X664602Y510092D01*
X664805Y509937D01*
X664996Y509761D01*
X665175Y509566D01*
X665337Y509354D01*
X665477Y509130D01*
X665596Y508894D01*
X665694Y508646D01*
X665769Y508386D01*
X665823Y508114D01*
X665856Y507830D01*
X665867Y507534D01*
X665849Y507115D01*
X665797Y506720D01*
X665710Y506350D01*
X665587Y506005D01*
X665430Y505685D01*
X665238Y505389D01*
X665012Y505118D01*
X664750Y504871D01*
X664457Y504651D01*
X664138Y504461D01*
X663791Y504300D01*
X663418Y504168D01*
X663017Y504066D01*
X662590Y503992D01*
X662135Y503949D01*
X661654Y503934D01*
G37*
%LPC*%
G36*
X661636Y505116D02*
X661951Y505126D01*
X662246Y505156D01*
X662520Y505206D01*
X662774Y505276D01*
X663008Y505365D01*
X663221Y505475D01*
X663414Y505604D01*
X663587Y505753D01*
X663740Y505923D01*
X663872Y506112D01*
X663984Y506321D01*
X664075Y506550D01*
X664146Y506799D01*
X664197Y507068D01*
X664227Y507356D01*
X664238Y507665D01*
X664227Y507931D01*
X664195Y508183D01*
X664143Y508420D01*
X664069Y508643D01*
X663974Y508850D01*
X663858Y509044D01*
X663721Y509222D01*
X663563Y509386D01*
X663386Y509533D01*
X663193Y509660D01*
X662983Y509768D01*
X662757Y509856D01*
X662515Y509924D01*
X662256Y509973D01*
X661981Y510002D01*
X661689Y510012D01*
X661389Y510003D01*
X661106Y509976D01*
X660840Y509930D01*
X660592Y509867D01*
X660361Y509785D01*
X660147Y509685D01*
X659950Y509566D01*
X659771Y509430D01*
X659611Y509275D01*
X659472Y509103D01*
X659354Y508914D01*
X659258Y508706D01*
X659184Y508481D01*
X659130Y508238D01*
X659098Y507978D01*
X659088Y507700D01*
X659097Y507374D01*
X659127Y507071D01*
X659176Y506791D01*
X659245Y506534D01*
X659334Y506300D01*
X659442Y506088D01*
X659570Y505900D01*
X659718Y505734D01*
X659886Y505589D01*
X660075Y505464D01*
X660283Y505357D01*
X660513Y505271D01*
X660763Y505203D01*
X661034Y505155D01*
X661325Y505126D01*
X661636Y505116D01*
G37*
G36*
X661671Y511195D02*
X661937Y511203D01*
X662188Y511229D01*
X662423Y511273D01*
X662642Y511334D01*
X662847Y511412D01*
X663035Y511508D01*
X663208Y511620D01*
X663366Y511751D01*
X663507Y511898D01*
X663629Y512060D01*
X663732Y512239D01*
X663816Y512433D01*
X663882Y512643D01*
X663929Y512868D01*
X663957Y513110D01*
X663966Y513367D01*
X663957Y513619D01*
X663930Y513856D01*
X663884Y514076D01*
X663820Y514280D01*
X663739Y514468D01*
X663638Y514640D01*
X663520Y514795D01*
X663384Y514935D01*
X663230Y515058D01*
X663059Y515164D01*
X662872Y515255D01*
X662669Y515329D01*
X662449Y515386D01*
X662212Y515427D01*
X661959Y515452D01*
X661689Y515460D01*
X661411Y515452D01*
X661151Y515427D01*
X660909Y515386D01*
X660685Y515329D01*
X660479Y515256D01*
X660290Y515166D01*
X660120Y515059D01*
X659968Y514937D01*
X659833Y514798D01*
X659717Y514642D01*
X659618Y514471D01*
X659538Y514283D01*
X659475Y514078D01*
X659430Y513857D01*
X659403Y513620D01*
X659394Y513367D01*
X659403Y513090D01*
X659430Y512833D01*
X659476Y512596D01*
X659540Y512378D01*
X659622Y512181D01*
X659722Y512003D01*
X659840Y511845D01*
X659977Y511707D01*
X660130Y511587D01*
X660301Y511483D01*
X660488Y511395D01*
X660691Y511323D01*
X660912Y511267D01*
X661148Y511227D01*
X661401Y511203D01*
X661671Y511195D01*
G37*
%LPD*%
G36*
X679357Y504109D02*
X677431Y504109D01*
X679443Y507162D01*
X680934Y509425D01*
X680591Y509498D01*
X680267Y509591D01*
X679962Y509707D01*
X679676Y509844D01*
X679520Y509936D01*
X679409Y510002D01*
X679161Y510183D01*
X678932Y510384D01*
X678722Y510608D01*
X678535Y510849D01*
X678372Y511104D01*
X678234Y511372D01*
X678121Y511654D01*
X678034Y511950D01*
X677971Y512260D01*
X677934Y512583D01*
X677921Y512920D01*
X677939Y513325D01*
X677992Y513706D01*
X678081Y514065D01*
X678205Y514401D01*
X678364Y514715D01*
X678559Y515005D01*
X678789Y515272D01*
X679055Y515517D01*
X679354Y515736D01*
X679682Y515925D01*
X680040Y516085D01*
X680427Y516217D01*
X680844Y516319D01*
X681291Y516391D01*
X681768Y516435D01*
X682274Y516450D01*
X688081Y516450D01*
X688081Y504109D01*
X686408Y504109D01*
X686408Y509233D01*
X682563Y509233D01*
X679357Y504109D01*
G37*
%LPC*%
G36*
X686408Y510555D02*
X686408Y515110D01*
X682440Y515110D01*
X682107Y515101D01*
X681793Y515074D01*
X681500Y515030D01*
X681226Y514969D01*
X680973Y514889D01*
X680740Y514792D01*
X680527Y514677D01*
X680334Y514545D01*
X680163Y514396D01*
X680014Y514230D01*
X679888Y514049D01*
X679786Y513852D01*
X679706Y513639D01*
X679648Y513409D01*
X679614Y513164D01*
X679603Y512903D01*
X679614Y512632D01*
X679648Y512377D01*
X679704Y512138D01*
X679783Y511914D01*
X679885Y511705D01*
X680009Y511512D01*
X680156Y511335D01*
X680325Y511173D01*
X680515Y511028D01*
X680724Y510903D01*
X680952Y510796D01*
X681198Y510710D01*
X681463Y510642D01*
X681747Y510594D01*
X682049Y510565D01*
X682370Y510555D01*
X686408Y510555D01*
G37*
%LPD*%
G36*
X675713Y504109D02*
X667541Y504109D01*
X667541Y505449D01*
X673979Y505449D01*
X673826Y505759D01*
X673633Y506074D01*
X673397Y506396D01*
X673120Y506723D01*
X672797Y507064D01*
X672422Y507425D01*
X671995Y507806D01*
X671517Y508208D01*
X670676Y508904D01*
X669982Y509502D01*
X669437Y510003D01*
X669039Y510406D01*
X668735Y510761D01*
X668471Y511116D01*
X668246Y511471D01*
X668062Y511825D01*
X667918Y512181D01*
X667816Y512537D01*
X667754Y512894D01*
X667734Y513253D01*
X667749Y513646D01*
X667796Y514017D01*
X667875Y514364D01*
X667984Y514688D01*
X668125Y514989D01*
X668298Y515267D01*
X668502Y515522D01*
X668737Y515753D01*
X669001Y515960D01*
X669292Y516139D01*
X669610Y516290D01*
X669955Y516414D01*
X670327Y516510D01*
X670726Y516579D01*
X671152Y516620D01*
X671605Y516634D01*
X672020Y516620D01*
X672416Y516579D01*
X672793Y516511D01*
X673150Y516415D01*
X673488Y516292D01*
X673806Y516141D01*
X674106Y515963D01*
X674386Y515758D01*
X674642Y515529D01*
X674870Y515282D01*
X675070Y515016D01*
X675241Y514731D01*
X675384Y514427D01*
X675498Y514104D01*
X675585Y513762D01*
X675643Y513402D01*
X674031Y513253D01*
X673994Y513493D01*
X673941Y513720D01*
X673870Y513933D01*
X673783Y514132D01*
X673678Y514317D01*
X673557Y514489D01*
X673419Y514646D01*
X673265Y514790D01*
X673096Y514918D01*
X672916Y515030D01*
X672725Y515124D01*
X672524Y515201D01*
X672311Y515260D01*
X672086Y515303D01*
X671851Y515329D01*
X671605Y515337D01*
X671347Y515329D01*
X671104Y515302D01*
X670875Y515259D01*
X670661Y515197D01*
X670462Y515118D01*
X670276Y515022D01*
X670106Y514908D01*
X669950Y514777D01*
X669810Y514630D01*
X669689Y514468D01*
X669587Y514292D01*
X669503Y514102D01*
X669438Y513898D01*
X669391Y513680D01*
X669363Y513447D01*
X669354Y513200D01*
X669376Y512834D01*
X669441Y512487D01*
X669549Y512159D01*
X669700Y511852D01*
X669886Y511557D01*
X670100Y511269D01*
X670340Y510988D01*
X670607Y510713D01*
X671201Y510170D01*
X671863Y509627D01*
X672563Y509061D01*
X673269Y508449D01*
X673620Y508122D01*
X673962Y507777D01*
X674296Y507413D01*
X674622Y507030D01*
X674932Y506623D01*
X675217Y506186D01*
X675477Y505719D01*
X675713Y505221D01*
X675713Y504109D01*
G37*
G36*
X679357Y542209D02*
X677431Y542209D01*
X679443Y545262D01*
X680934Y547525D01*
X680591Y547598D01*
X680267Y547691D01*
X679962Y547807D01*
X679676Y547944D01*
X679520Y548036D01*
X679409Y548102D01*
X679161Y548283D01*
X678932Y548484D01*
X678722Y548708D01*
X678535Y548949D01*
X678372Y549204D01*
X678234Y549472D01*
X678121Y549754D01*
X678034Y550050D01*
X677971Y550360D01*
X677934Y550683D01*
X677921Y551020D01*
X677939Y551425D01*
X677992Y551806D01*
X678081Y552165D01*
X678205Y552501D01*
X678364Y552815D01*
X678559Y553105D01*
X678789Y553372D01*
X679055Y553617D01*
X679354Y553836D01*
X679682Y554025D01*
X680040Y554185D01*
X680427Y554317D01*
X680844Y554419D01*
X681291Y554491D01*
X681768Y554535D01*
X682274Y554550D01*
X688081Y554550D01*
X688081Y542209D01*
X686408Y542209D01*
X686408Y547333D01*
X682563Y547333D01*
X679357Y542209D01*
G37*
%LPC*%
G36*
X686408Y548655D02*
X686408Y553210D01*
X682440Y553210D01*
X682107Y553201D01*
X681793Y553174D01*
X681500Y553130D01*
X681226Y553069D01*
X680973Y552989D01*
X680740Y552892D01*
X680527Y552777D01*
X680334Y552645D01*
X680163Y552496D01*
X680014Y552330D01*
X679888Y552149D01*
X679786Y551952D01*
X679706Y551739D01*
X679648Y551509D01*
X679614Y551264D01*
X679603Y551003D01*
X679614Y550732D01*
X679648Y550477D01*
X679704Y550238D01*
X679783Y550014D01*
X679885Y549805D01*
X680009Y549612D01*
X680156Y549435D01*
X680325Y549273D01*
X680515Y549128D01*
X680724Y549003D01*
X680952Y548896D01*
X681198Y548810D01*
X681463Y548742D01*
X681747Y548694D01*
X682049Y548665D01*
X682370Y548655D01*
X686408Y548655D01*
G37*
%LPD*%
G36*
X661987Y542034D02*
X661722Y542041D01*
X661466Y542061D01*
X661217Y542094D01*
X660975Y542141D01*
X660742Y542201D01*
X660516Y542274D01*
X660087Y542461D01*
X659689Y542701D01*
X659322Y542995D01*
X658986Y543341D01*
X658680Y543742D01*
X658408Y544192D01*
X658173Y544688D01*
X657973Y545230D01*
X657810Y545818D01*
X657683Y546451D01*
X657592Y547131D01*
X657538Y547857D01*
X657520Y548629D01*
X657536Y549369D01*
X657586Y550062D01*
X657669Y550706D01*
X657785Y551303D01*
X657934Y551851D01*
X658116Y552352D01*
X658331Y552805D01*
X658580Y553210D01*
X658860Y553567D01*
X659172Y553876D01*
X659515Y554138D01*
X659889Y554353D01*
X660294Y554519D01*
X660731Y554638D01*
X661199Y554710D01*
X661444Y554728D01*
X661698Y554734D01*
X662168Y554716D01*
X662612Y554664D01*
X663030Y554578D01*
X663421Y554457D01*
X663785Y554301D01*
X664123Y554110D01*
X664434Y553885D01*
X664719Y553626D01*
X664974Y553336D01*
X665194Y553020D01*
X665381Y552678D01*
X665534Y552311D01*
X665653Y551918D01*
X665737Y551498D01*
X665788Y551053D01*
X665805Y550582D01*
X665790Y550123D01*
X665743Y549687D01*
X665665Y549275D01*
X665556Y548885D01*
X665415Y548519D01*
X665244Y548176D01*
X665041Y547857D01*
X664807Y547560D01*
X664547Y547294D01*
X664266Y547062D01*
X663964Y546867D01*
X663642Y546707D01*
X663299Y546582D01*
X662935Y546493D01*
X662550Y546440D01*
X662144Y546422D01*
X661893Y546429D01*
X661647Y546452D01*
X661406Y546489D01*
X661170Y546541D01*
X660939Y546608D01*
X660714Y546690D01*
X660494Y546787D01*
X660279Y546899D01*
X660074Y547023D01*
X659885Y547157D01*
X659712Y547301D01*
X659554Y547454D01*
X659412Y547617D01*
X659285Y547790D01*
X659174Y547973D01*
X659079Y548165D01*
X659099Y547597D01*
X659141Y547063D01*
X659205Y546562D01*
X659291Y546096D01*
X659400Y545662D01*
X659530Y545263D01*
X659683Y544897D01*
X659858Y544565D01*
X660054Y544269D01*
X660269Y544013D01*
X660503Y543796D01*
X660756Y543619D01*
X661028Y543481D01*
X661320Y543383D01*
X661631Y543324D01*
X661960Y543304D01*
X662157Y543310D01*
X662345Y543328D01*
X662695Y543400D01*
X663009Y543521D01*
X663287Y543689D01*
X663530Y543906D01*
X663737Y544171D01*
X663909Y544484D01*
X664045Y544845D01*
X665551Y544609D01*
X665449Y544281D01*
X665332Y543977D01*
X665199Y543696D01*
X665051Y543438D01*
X664887Y543204D01*
X664708Y542994D01*
X664513Y542806D01*
X664303Y542643D01*
X664076Y542500D01*
X663832Y542376D01*
X663569Y542272D01*
X663288Y542186D01*
X662990Y542119D01*
X662673Y542072D01*
X662339Y542043D01*
X661987Y542034D01*
G37*
%LPC*%
G36*
X661768Y547666D02*
X662041Y547678D01*
X662299Y547715D01*
X662543Y547776D01*
X662773Y547862D01*
X662988Y547972D01*
X663188Y548107D01*
X663374Y548266D01*
X663546Y548449D01*
X663700Y548654D01*
X663833Y548877D01*
X663946Y549117D01*
X664038Y549375D01*
X664110Y549650D01*
X664161Y549943D01*
X664192Y550254D01*
X664203Y550582D01*
X664192Y550904D01*
X664161Y551209D01*
X664110Y551497D01*
X664038Y551768D01*
X663946Y552022D01*
X663833Y552258D01*
X663700Y552478D01*
X663546Y552680D01*
X663374Y552862D01*
X663187Y553019D01*
X662985Y553152D01*
X662768Y553261D01*
X662536Y553346D01*
X662289Y553407D01*
X662027Y553443D01*
X661750Y553455D01*
X661471Y553441D01*
X661205Y553398D01*
X660955Y553327D01*
X660719Y553228D01*
X660497Y553101D01*
X660290Y552945D01*
X660098Y552761D01*
X659920Y552548D01*
X659759Y552313D01*
X659621Y552059D01*
X659503Y551787D01*
X659407Y551496D01*
X659332Y551188D01*
X659279Y550861D01*
X659247Y550516D01*
X659236Y550153D01*
X659258Y549799D01*
X659321Y549465D01*
X659426Y549151D01*
X659574Y548857D01*
X659758Y548588D01*
X659973Y548352D01*
X660220Y548148D01*
X660498Y547977D01*
X660797Y547840D01*
X661109Y547743D01*
X661432Y547685D01*
X661768Y547666D01*
G37*
%LPD*%
G36*
X675713Y542209D02*
X667541Y542209D01*
X667541Y543549D01*
X673979Y543549D01*
X673826Y543859D01*
X673633Y544174D01*
X673397Y544496D01*
X673120Y544823D01*
X672797Y545164D01*
X672422Y545525D01*
X671995Y545906D01*
X671517Y546308D01*
X670676Y547004D01*
X669982Y547602D01*
X669437Y548103D01*
X669039Y548506D01*
X668735Y548861D01*
X668471Y549216D01*
X668246Y549571D01*
X668062Y549925D01*
X667918Y550281D01*
X667816Y550637D01*
X667754Y550994D01*
X667734Y551353D01*
X667749Y551746D01*
X667796Y552117D01*
X667875Y552464D01*
X667984Y552788D01*
X668125Y553089D01*
X668298Y553367D01*
X668502Y553622D01*
X668737Y553853D01*
X669001Y554060D01*
X669292Y554239D01*
X669610Y554390D01*
X669955Y554514D01*
X670327Y554610D01*
X670726Y554679D01*
X671152Y554720D01*
X671605Y554734D01*
X672020Y554720D01*
X672416Y554679D01*
X672793Y554611D01*
X673150Y554515D01*
X673488Y554392D01*
X673806Y554241D01*
X674106Y554063D01*
X674386Y553858D01*
X674642Y553629D01*
X674870Y553382D01*
X675070Y553116D01*
X675241Y552831D01*
X675384Y552527D01*
X675498Y552204D01*
X675585Y551862D01*
X675643Y551502D01*
X674031Y551353D01*
X673994Y551593D01*
X673941Y551820D01*
X673870Y552033D01*
X673783Y552232D01*
X673678Y552417D01*
X673557Y552589D01*
X673419Y552746D01*
X673265Y552890D01*
X673096Y553018D01*
X672916Y553130D01*
X672725Y553224D01*
X672524Y553301D01*
X672311Y553360D01*
X672086Y553403D01*
X671851Y553429D01*
X671605Y553437D01*
X671347Y553429D01*
X671104Y553402D01*
X670875Y553359D01*
X670661Y553297D01*
X670462Y553218D01*
X670276Y553122D01*
X670106Y553008D01*
X669950Y552877D01*
X669810Y552730D01*
X669689Y552568D01*
X669587Y552392D01*
X669503Y552202D01*
X669438Y551998D01*
X669391Y551780D01*
X669363Y551547D01*
X669354Y551300D01*
X669376Y550934D01*
X669441Y550587D01*
X669549Y550259D01*
X669700Y549952D01*
X669886Y549657D01*
X670100Y549369D01*
X670340Y549088D01*
X670607Y548813D01*
X671201Y548270D01*
X671863Y547727D01*
X672563Y547161D01*
X673269Y546549D01*
X673620Y546222D01*
X673962Y545877D01*
X674296Y545513D01*
X674622Y545130D01*
X674932Y544723D01*
X675217Y544286D01*
X675477Y543819D01*
X675713Y543321D01*
X675713Y542209D01*
G37*
G36*
X661680Y580134D02*
X661418Y580140D01*
X661164Y580159D01*
X660918Y580191D01*
X660681Y580236D01*
X660230Y580363D01*
X659811Y580541D01*
X659425Y580770D01*
X659071Y581050D01*
X658750Y581381D01*
X658461Y581763D01*
X658206Y582193D01*
X657984Y582669D01*
X657797Y583190D01*
X657643Y583758D01*
X657524Y584371D01*
X657439Y585029D01*
X657388Y585734D01*
X657371Y586484D01*
X657387Y587246D01*
X657436Y587960D01*
X657517Y588625D01*
X657630Y589243D01*
X657776Y589812D01*
X657955Y590333D01*
X658165Y590806D01*
X658409Y591231D01*
X658686Y591607D01*
X658999Y591932D01*
X659348Y592208D01*
X659732Y592433D01*
X660153Y592608D01*
X660376Y592677D01*
X660609Y592734D01*
X660850Y592777D01*
X661100Y592809D01*
X661359Y592827D01*
X661628Y592834D01*
X661903Y592828D01*
X662169Y592809D01*
X662426Y592778D01*
X662673Y592735D01*
X662911Y592679D01*
X663140Y592611D01*
X663569Y592437D01*
X663960Y592214D01*
X664313Y591942D01*
X664629Y591620D01*
X664908Y591248D01*
X665151Y590827D01*
X665362Y590356D01*
X665540Y589835D01*
X665686Y589265D01*
X665800Y588644D01*
X665881Y587974D01*
X665929Y587254D01*
X665945Y586484D01*
X665929Y585730D01*
X665879Y585022D01*
X665795Y584361D01*
X665678Y583747D01*
X665528Y583179D01*
X665344Y582657D01*
X665127Y582183D01*
X664877Y581754D01*
X664593Y581374D01*
X664276Y581045D01*
X663926Y580767D01*
X663543Y580539D01*
X663127Y580362D01*
X662678Y580235D01*
X662441Y580191D01*
X662196Y580159D01*
X661942Y580140D01*
X661680Y580134D01*
G37*
%LPC*%
G36*
X661663Y581421D02*
X662001Y581440D01*
X662316Y581497D01*
X662607Y581593D01*
X662875Y581726D01*
X663118Y581897D01*
X663338Y582106D01*
X663535Y582353D01*
X663708Y582639D01*
X663859Y582965D01*
X663989Y583336D01*
X664100Y583750D01*
X664190Y584209D01*
X664261Y584711D01*
X664311Y585258D01*
X664341Y585849D01*
X664351Y586484D01*
X664341Y587137D01*
X664312Y587742D01*
X664262Y588299D01*
X664193Y588809D01*
X664103Y589271D01*
X663994Y589686D01*
X663865Y590053D01*
X663716Y590373D01*
X663545Y590650D01*
X663348Y590890D01*
X663125Y591093D01*
X662877Y591259D01*
X662603Y591389D01*
X662303Y591481D01*
X661978Y591536D01*
X661628Y591555D01*
X661285Y591536D01*
X660968Y591480D01*
X660676Y591386D01*
X660409Y591255D01*
X660167Y591086D01*
X659950Y590880D01*
X659758Y590636D01*
X659591Y590355D01*
X659446Y590032D01*
X659321Y589663D01*
X659215Y589248D01*
X659128Y588787D01*
X659061Y588280D01*
X659012Y587727D01*
X658983Y587129D01*
X658974Y586484D01*
X658984Y585861D01*
X659014Y585279D01*
X659065Y584740D01*
X659136Y584242D01*
X659227Y583785D01*
X659338Y583370D01*
X659470Y582997D01*
X659622Y582665D01*
X659795Y582374D01*
X659992Y582121D01*
X660213Y581907D01*
X660456Y581732D01*
X660723Y581596D01*
X661013Y581499D01*
X661326Y581441D01*
X661663Y581421D01*
G37*
%LPD*%
G36*
X679357Y580309D02*
X677431Y580309D01*
X679443Y583362D01*
X680934Y585625D01*
X680591Y585698D01*
X680267Y585791D01*
X679962Y585907D01*
X679676Y586044D01*
X679520Y586136D01*
X679409Y586202D01*
X679161Y586383D01*
X678932Y586584D01*
X678722Y586808D01*
X678535Y587049D01*
X678372Y587304D01*
X678234Y587572D01*
X678121Y587854D01*
X678034Y588150D01*
X677971Y588460D01*
X677934Y588783D01*
X677921Y589120D01*
X677939Y589525D01*
X677992Y589906D01*
X678081Y590265D01*
X678205Y590601D01*
X678364Y590915D01*
X678559Y591205D01*
X678789Y591472D01*
X679055Y591717D01*
X679354Y591936D01*
X679682Y592125D01*
X680040Y592285D01*
X680427Y592417D01*
X680844Y592519D01*
X681291Y592591D01*
X681768Y592635D01*
X682274Y592650D01*
X688081Y592650D01*
X688081Y580309D01*
X686408Y580309D01*
X686408Y585433D01*
X682563Y585433D01*
X679357Y580309D01*
G37*
%LPC*%
G36*
X686408Y586755D02*
X686408Y591310D01*
X682440Y591310D01*
X682107Y591301D01*
X681793Y591274D01*
X681500Y591230D01*
X681226Y591169D01*
X680973Y591089D01*
X680740Y590992D01*
X680527Y590877D01*
X680334Y590745D01*
X680163Y590596D01*
X680014Y590430D01*
X679888Y590249D01*
X679786Y590052D01*
X679706Y589839D01*
X679648Y589609D01*
X679614Y589364D01*
X679603Y589103D01*
X679614Y588832D01*
X679648Y588577D01*
X679704Y588338D01*
X679783Y588114D01*
X679885Y587905D01*
X680009Y587712D01*
X680156Y587535D01*
X680325Y587373D01*
X680515Y587228D01*
X680724Y587103D01*
X680952Y586996D01*
X681198Y586910D01*
X681463Y586842D01*
X681747Y586794D01*
X682049Y586765D01*
X682370Y586755D01*
X686408Y586755D01*
G37*
%LPD*%
G36*
X671614Y580134D02*
X671125Y580149D01*
X670665Y580192D01*
X670233Y580266D01*
X669831Y580368D01*
X669458Y580500D01*
X669114Y580661D01*
X668799Y580851D01*
X668513Y581071D01*
X668259Y581317D01*
X668038Y581588D01*
X667851Y581882D01*
X667699Y582201D01*
X667580Y582544D01*
X667495Y582910D01*
X667444Y583301D01*
X667427Y583716D01*
X667439Y584005D01*
X667475Y584282D01*
X667536Y584546D01*
X667620Y584798D01*
X667728Y585037D01*
X667861Y585263D01*
X668017Y585477D01*
X668198Y585678D01*
X668400Y585863D01*
X668622Y586028D01*
X668862Y586174D01*
X669122Y586300D01*
X669401Y586406D01*
X669699Y586493D01*
X670016Y586559D01*
X670353Y586606D01*
X670353Y586641D01*
X670047Y586715D01*
X669759Y586803D01*
X669491Y586906D01*
X669241Y587024D01*
X669010Y587156D01*
X668798Y587304D01*
X668605Y587467D01*
X668430Y587644D01*
X668275Y587836D01*
X668141Y588042D01*
X668027Y588262D01*
X667934Y588495D01*
X667862Y588742D01*
X667810Y589003D01*
X667779Y589278D01*
X667769Y589567D01*
X667785Y589942D01*
X667833Y590295D01*
X667913Y590627D01*
X668026Y590939D01*
X668171Y591229D01*
X668348Y591497D01*
X668557Y591745D01*
X668798Y591971D01*
X669068Y592173D01*
X669364Y592348D01*
X669686Y592497D01*
X670034Y592618D01*
X670408Y592712D01*
X670807Y592780D01*
X671233Y592820D01*
X671684Y592834D01*
X672099Y592820D01*
X672495Y592781D01*
X672871Y592714D01*
X673229Y592621D01*
X673567Y592502D01*
X673885Y592356D01*
X674185Y592183D01*
X674465Y591984D01*
X674721Y591761D01*
X674949Y591518D01*
X675148Y591253D01*
X675320Y590968D01*
X675463Y590662D01*
X675577Y590335D01*
X675664Y589988D01*
X675722Y589619D01*
X674136Y589497D01*
X674102Y589733D01*
X674050Y589955D01*
X673982Y590164D01*
X673896Y590359D01*
X673794Y590541D01*
X673676Y590709D01*
X673540Y590863D01*
X673387Y591003D01*
X673220Y591128D01*
X673041Y591237D01*
X672849Y591329D01*
X672644Y591404D01*
X672427Y591462D01*
X672198Y591504D01*
X671956Y591529D01*
X671701Y591537D01*
X671423Y591528D01*
X671163Y591502D01*
X670920Y591457D01*
X670695Y591394D01*
X670488Y591313D01*
X670298Y591215D01*
X670126Y591098D01*
X669972Y590964D01*
X669835Y590814D01*
X669717Y590651D01*
X669617Y590475D01*
X669535Y590286D01*
X669471Y590084D01*
X669426Y589869D01*
X669398Y589641D01*
X669389Y589400D01*
X669400Y589158D01*
X669434Y588928D01*
X669489Y588712D01*
X669568Y588510D01*
X669668Y588322D01*
X669791Y588147D01*
X669936Y587985D01*
X670103Y587837D01*
X670290Y587705D01*
X670496Y587590D01*
X670720Y587493D01*
X670962Y587413D01*
X671223Y587351D01*
X671501Y587307D01*
X671798Y587281D01*
X672113Y587272D01*
X672971Y587272D01*
X672971Y585906D01*
X672078Y585906D01*
X671723Y585897D01*
X671390Y585870D01*
X671078Y585826D01*
X670787Y585764D01*
X670518Y585685D01*
X670271Y585588D01*
X670045Y585473D01*
X669840Y585341D01*
X669659Y585193D01*
X669501Y585031D01*
X669368Y584855D01*
X669259Y584665D01*
X669174Y584462D01*
X669113Y584245D01*
X669077Y584014D01*
X669065Y583769D01*
X669076Y583488D01*
X669107Y583226D01*
X669160Y582982D01*
X669235Y582755D01*
X669330Y582546D01*
X669447Y582355D01*
X669585Y582181D01*
X669744Y582026D01*
X669922Y581888D01*
X670115Y581769D01*
X670325Y581668D01*
X670551Y581586D01*
X670792Y581521D01*
X671050Y581476D01*
X671324Y581448D01*
X671614Y581439D01*
X671902Y581447D01*
X672175Y581473D01*
X672432Y581516D01*
X672672Y581576D01*
X672896Y581653D01*
X673105Y581747D01*
X673297Y581858D01*
X673473Y581986D01*
X673633Y582132D01*
X673777Y582294D01*
X673905Y582474D01*
X674016Y582671D01*
X674112Y582884D01*
X674192Y583115D01*
X674255Y583363D01*
X674303Y583628D01*
X675932Y583480D01*
X675865Y583078D01*
X675770Y582703D01*
X675647Y582352D01*
X675495Y582027D01*
X675315Y581727D01*
X675107Y581452D01*
X674870Y581203D01*
X674605Y580979D01*
X674314Y580781D01*
X673999Y580609D01*
X673661Y580464D01*
X673299Y580345D01*
X672913Y580253D01*
X672504Y580187D01*
X672071Y580147D01*
X671614Y580134D01*
G37*
G36*
X679357Y618409D02*
X677431Y618409D01*
X679443Y621462D01*
X680934Y623725D01*
X680591Y623798D01*
X680267Y623891D01*
X679962Y624007D01*
X679676Y624144D01*
X679520Y624236D01*
X679409Y624302D01*
X679161Y624483D01*
X678932Y624684D01*
X678722Y624908D01*
X678535Y625149D01*
X678372Y625404D01*
X678234Y625672D01*
X678121Y625954D01*
X678034Y626250D01*
X677971Y626560D01*
X677934Y626883D01*
X677921Y627220D01*
X677939Y627625D01*
X677992Y628006D01*
X678081Y628365D01*
X678205Y628701D01*
X678364Y629015D01*
X678559Y629305D01*
X678789Y629572D01*
X679055Y629817D01*
X679354Y630036D01*
X679682Y630225D01*
X680040Y630385D01*
X680427Y630517D01*
X680844Y630619D01*
X681291Y630691D01*
X681768Y630735D01*
X682274Y630750D01*
X688081Y630750D01*
X688081Y618409D01*
X686408Y618409D01*
X686408Y623533D01*
X682563Y623533D01*
X679357Y618409D01*
G37*
%LPC*%
G36*
X686408Y624855D02*
X686408Y629410D01*
X682440Y629410D01*
X682107Y629401D01*
X681793Y629374D01*
X681500Y629330D01*
X681226Y629269D01*
X680973Y629189D01*
X680740Y629092D01*
X680527Y628977D01*
X680334Y628845D01*
X680163Y628696D01*
X680014Y628530D01*
X679888Y628349D01*
X679786Y628152D01*
X679706Y627939D01*
X679648Y627709D01*
X679614Y627464D01*
X679603Y627203D01*
X679614Y626932D01*
X679648Y626677D01*
X679704Y626438D01*
X679783Y626214D01*
X679885Y626005D01*
X680009Y625812D01*
X680156Y625635D01*
X680325Y625473D01*
X680515Y625328D01*
X680724Y625203D01*
X680952Y625096D01*
X681198Y625010D01*
X681463Y624942D01*
X681747Y624894D01*
X682049Y624865D01*
X682370Y624855D01*
X686408Y624855D01*
G37*
%LPD*%
G36*
X671614Y618234D02*
X671125Y618249D01*
X670665Y618292D01*
X670233Y618366D01*
X669831Y618468D01*
X669458Y618600D01*
X669114Y618761D01*
X668799Y618951D01*
X668513Y619171D01*
X668259Y619417D01*
X668038Y619688D01*
X667851Y619982D01*
X667699Y620301D01*
X667580Y620644D01*
X667495Y621010D01*
X667444Y621401D01*
X667427Y621816D01*
X667439Y622105D01*
X667475Y622382D01*
X667536Y622646D01*
X667620Y622898D01*
X667728Y623137D01*
X667861Y623363D01*
X668017Y623577D01*
X668198Y623778D01*
X668400Y623963D01*
X668622Y624128D01*
X668862Y624274D01*
X669122Y624400D01*
X669401Y624506D01*
X669699Y624593D01*
X670016Y624659D01*
X670353Y624706D01*
X670353Y624741D01*
X670047Y624815D01*
X669759Y624903D01*
X669491Y625006D01*
X669241Y625124D01*
X669010Y625256D01*
X668798Y625404D01*
X668605Y625567D01*
X668430Y625744D01*
X668275Y625936D01*
X668141Y626142D01*
X668027Y626362D01*
X667934Y626595D01*
X667862Y626842D01*
X667810Y627103D01*
X667779Y627378D01*
X667769Y627667D01*
X667785Y628042D01*
X667833Y628395D01*
X667913Y628727D01*
X668026Y629039D01*
X668171Y629329D01*
X668348Y629597D01*
X668557Y629845D01*
X668798Y630071D01*
X669068Y630273D01*
X669364Y630448D01*
X669686Y630597D01*
X670034Y630718D01*
X670408Y630812D01*
X670807Y630880D01*
X671233Y630920D01*
X671684Y630934D01*
X672099Y630920D01*
X672495Y630881D01*
X672871Y630814D01*
X673229Y630721D01*
X673567Y630602D01*
X673885Y630456D01*
X674185Y630283D01*
X674465Y630084D01*
X674721Y629861D01*
X674949Y629618D01*
X675148Y629353D01*
X675320Y629068D01*
X675463Y628762D01*
X675577Y628435D01*
X675664Y628088D01*
X675722Y627719D01*
X674136Y627597D01*
X674102Y627833D01*
X674050Y628055D01*
X673982Y628264D01*
X673896Y628459D01*
X673794Y628641D01*
X673676Y628809D01*
X673540Y628963D01*
X673387Y629103D01*
X673220Y629228D01*
X673041Y629337D01*
X672849Y629429D01*
X672644Y629504D01*
X672427Y629562D01*
X672198Y629604D01*
X671956Y629629D01*
X671701Y629637D01*
X671423Y629628D01*
X671163Y629602D01*
X670920Y629557D01*
X670695Y629494D01*
X670488Y629413D01*
X670298Y629315D01*
X670126Y629198D01*
X669972Y629064D01*
X669835Y628914D01*
X669717Y628751D01*
X669617Y628575D01*
X669535Y628386D01*
X669471Y628184D01*
X669426Y627969D01*
X669398Y627741D01*
X669389Y627500D01*
X669400Y627258D01*
X669434Y627028D01*
X669489Y626812D01*
X669568Y626610D01*
X669668Y626422D01*
X669791Y626247D01*
X669936Y626085D01*
X670103Y625937D01*
X670290Y625805D01*
X670496Y625690D01*
X670720Y625593D01*
X670962Y625513D01*
X671223Y625451D01*
X671501Y625407D01*
X671798Y625381D01*
X672113Y625372D01*
X672971Y625372D01*
X672971Y624006D01*
X672078Y624006D01*
X671723Y623997D01*
X671390Y623970D01*
X671078Y623926D01*
X670787Y623864D01*
X670518Y623785D01*
X670271Y623688D01*
X670045Y623573D01*
X669840Y623441D01*
X669659Y623293D01*
X669501Y623131D01*
X669368Y622955D01*
X669259Y622765D01*
X669174Y622562D01*
X669113Y622345D01*
X669077Y622114D01*
X669065Y621869D01*
X669076Y621588D01*
X669107Y621326D01*
X669160Y621082D01*
X669235Y620855D01*
X669330Y620646D01*
X669447Y620455D01*
X669585Y620281D01*
X669744Y620126D01*
X669922Y619988D01*
X670115Y619869D01*
X670325Y619768D01*
X670551Y619686D01*
X670792Y619621D01*
X671050Y619576D01*
X671324Y619548D01*
X671614Y619539D01*
X671902Y619547D01*
X672175Y619573D01*
X672432Y619616D01*
X672672Y619676D01*
X672896Y619753D01*
X673105Y619847D01*
X673297Y619958D01*
X673473Y620086D01*
X673633Y620232D01*
X673777Y620394D01*
X673905Y620574D01*
X674016Y620771D01*
X674112Y620984D01*
X674192Y621215D01*
X674255Y621463D01*
X674303Y621728D01*
X675932Y621580D01*
X675865Y621178D01*
X675770Y620803D01*
X675647Y620452D01*
X675495Y620127D01*
X675315Y619827D01*
X675107Y619552D01*
X674870Y619303D01*
X674605Y619079D01*
X674314Y618881D01*
X673999Y618709D01*
X673661Y618564D01*
X673299Y618445D01*
X672913Y618353D01*
X672504Y618287D01*
X672071Y618247D01*
X671614Y618234D01*
G37*
G36*
X665280Y618409D02*
X657546Y618409D01*
X657546Y619749D01*
X660550Y619749D01*
X660550Y630750D01*
X662004Y630750D01*
X664921Y628744D01*
X664921Y627255D01*
X662136Y629243D01*
X662136Y619749D01*
X665280Y619749D01*
X665280Y618409D01*
G37*
G36*
X679357Y656509D02*
X677431Y656509D01*
X679443Y659562D01*
X680934Y661825D01*
X680591Y661898D01*
X680267Y661991D01*
X679962Y662107D01*
X679676Y662244D01*
X679520Y662336D01*
X679409Y662402D01*
X679161Y662583D01*
X678932Y662784D01*
X678722Y663008D01*
X678535Y663249D01*
X678372Y663504D01*
X678234Y663772D01*
X678121Y664054D01*
X678034Y664350D01*
X677971Y664660D01*
X677934Y664983D01*
X677921Y665320D01*
X677939Y665725D01*
X677992Y666106D01*
X678081Y666465D01*
X678205Y666801D01*
X678364Y667115D01*
X678559Y667405D01*
X678789Y667672D01*
X679055Y667917D01*
X679354Y668136D01*
X679682Y668325D01*
X680040Y668485D01*
X680427Y668617D01*
X680844Y668719D01*
X681291Y668791D01*
X681768Y668835D01*
X682274Y668850D01*
X688081Y668850D01*
X688081Y656509D01*
X686408Y656509D01*
X686408Y661633D01*
X682563Y661633D01*
X679357Y656509D01*
G37*
%LPC*%
G36*
X686408Y662955D02*
X686408Y667510D01*
X682440Y667510D01*
X682107Y667501D01*
X681793Y667474D01*
X681500Y667430D01*
X681226Y667369D01*
X680973Y667289D01*
X680740Y667192D01*
X680527Y667077D01*
X680334Y666945D01*
X680163Y666796D01*
X680014Y666630D01*
X679888Y666449D01*
X679786Y666252D01*
X679706Y666039D01*
X679648Y665809D01*
X679614Y665564D01*
X679603Y665303D01*
X679614Y665032D01*
X679648Y664777D01*
X679704Y664538D01*
X679783Y664314D01*
X679885Y664105D01*
X680009Y663912D01*
X680156Y663735D01*
X680325Y663573D01*
X680515Y663428D01*
X680724Y663303D01*
X680952Y663196D01*
X681198Y663110D01*
X681463Y663042D01*
X681747Y662994D01*
X682049Y662965D01*
X682370Y662955D01*
X686408Y662955D01*
G37*
%LPD*%
G36*
X671614Y656334D02*
X671125Y656349D01*
X670665Y656392D01*
X670233Y656466D01*
X669831Y656568D01*
X669458Y656700D01*
X669114Y656861D01*
X668799Y657051D01*
X668513Y657271D01*
X668259Y657517D01*
X668038Y657788D01*
X667851Y658082D01*
X667699Y658401D01*
X667580Y658744D01*
X667495Y659110D01*
X667444Y659501D01*
X667427Y659916D01*
X667439Y660205D01*
X667475Y660482D01*
X667536Y660746D01*
X667620Y660998D01*
X667728Y661237D01*
X667861Y661463D01*
X668017Y661677D01*
X668198Y661878D01*
X668400Y662063D01*
X668622Y662228D01*
X668862Y662374D01*
X669122Y662500D01*
X669401Y662606D01*
X669699Y662693D01*
X670016Y662759D01*
X670353Y662806D01*
X670353Y662841D01*
X670047Y662915D01*
X669759Y663003D01*
X669491Y663106D01*
X669241Y663224D01*
X669010Y663356D01*
X668798Y663504D01*
X668605Y663667D01*
X668430Y663844D01*
X668275Y664036D01*
X668141Y664242D01*
X668027Y664462D01*
X667934Y664695D01*
X667862Y664942D01*
X667810Y665203D01*
X667779Y665478D01*
X667769Y665767D01*
X667785Y666142D01*
X667833Y666495D01*
X667913Y666827D01*
X668026Y667139D01*
X668171Y667429D01*
X668348Y667697D01*
X668557Y667945D01*
X668798Y668171D01*
X669068Y668373D01*
X669364Y668548D01*
X669686Y668697D01*
X670034Y668818D01*
X670408Y668912D01*
X670807Y668980D01*
X671233Y669020D01*
X671684Y669034D01*
X672099Y669020D01*
X672495Y668981D01*
X672871Y668914D01*
X673229Y668821D01*
X673567Y668702D01*
X673885Y668556D01*
X674185Y668383D01*
X674465Y668184D01*
X674721Y667961D01*
X674949Y667718D01*
X675148Y667453D01*
X675320Y667168D01*
X675463Y666862D01*
X675577Y666535D01*
X675664Y666188D01*
X675722Y665819D01*
X674136Y665697D01*
X674102Y665933D01*
X674050Y666155D01*
X673982Y666364D01*
X673896Y666559D01*
X673794Y666741D01*
X673676Y666909D01*
X673540Y667063D01*
X673387Y667203D01*
X673220Y667328D01*
X673041Y667437D01*
X672849Y667529D01*
X672644Y667604D01*
X672427Y667662D01*
X672198Y667704D01*
X671956Y667729D01*
X671701Y667737D01*
X671423Y667728D01*
X671163Y667702D01*
X670920Y667657D01*
X670695Y667594D01*
X670488Y667513D01*
X670298Y667415D01*
X670126Y667298D01*
X669972Y667164D01*
X669835Y667014D01*
X669717Y666851D01*
X669617Y666675D01*
X669535Y666486D01*
X669471Y666284D01*
X669426Y666069D01*
X669398Y665841D01*
X669389Y665600D01*
X669400Y665358D01*
X669434Y665128D01*
X669489Y664912D01*
X669568Y664710D01*
X669668Y664522D01*
X669791Y664347D01*
X669936Y664185D01*
X670103Y664037D01*
X670290Y663905D01*
X670496Y663790D01*
X670720Y663693D01*
X670962Y663613D01*
X671223Y663551D01*
X671501Y663507D01*
X671798Y663481D01*
X672113Y663472D01*
X672971Y663472D01*
X672971Y662106D01*
X672078Y662106D01*
X671723Y662097D01*
X671390Y662070D01*
X671078Y662026D01*
X670787Y661964D01*
X670518Y661885D01*
X670271Y661788D01*
X670045Y661673D01*
X669840Y661541D01*
X669659Y661393D01*
X669501Y661231D01*
X669368Y661055D01*
X669259Y660865D01*
X669174Y660662D01*
X669113Y660445D01*
X669077Y660214D01*
X669065Y659969D01*
X669076Y659688D01*
X669107Y659426D01*
X669160Y659182D01*
X669235Y658955D01*
X669330Y658746D01*
X669447Y658555D01*
X669585Y658381D01*
X669744Y658226D01*
X669922Y658088D01*
X670115Y657969D01*
X670325Y657868D01*
X670551Y657786D01*
X670792Y657721D01*
X671050Y657676D01*
X671324Y657648D01*
X671614Y657639D01*
X671902Y657647D01*
X672175Y657673D01*
X672432Y657716D01*
X672672Y657776D01*
X672896Y657853D01*
X673105Y657947D01*
X673297Y658058D01*
X673473Y658186D01*
X673633Y658332D01*
X673777Y658494D01*
X673905Y658674D01*
X674016Y658871D01*
X674112Y659084D01*
X674192Y659315D01*
X674255Y659563D01*
X674303Y659828D01*
X675932Y659680D01*
X675865Y659278D01*
X675770Y658903D01*
X675647Y658552D01*
X675495Y658227D01*
X675315Y657927D01*
X675107Y657652D01*
X674870Y657403D01*
X674605Y657179D01*
X674314Y656981D01*
X673999Y656809D01*
X673661Y656664D01*
X673299Y656545D01*
X672913Y656453D01*
X672504Y656387D01*
X672071Y656347D01*
X671614Y656334D01*
G37*
G36*
X665744Y656509D02*
X657572Y656509D01*
X657572Y657849D01*
X664010Y657849D01*
X663858Y658159D01*
X663664Y658474D01*
X663428Y658796D01*
X663151Y659123D01*
X662828Y659464D01*
X662453Y659825D01*
X662027Y660206D01*
X661549Y660608D01*
X660707Y661304D01*
X660014Y661902D01*
X659468Y662403D01*
X659070Y662806D01*
X658766Y663161D01*
X658502Y663516D01*
X658278Y663871D01*
X658093Y664225D01*
X657950Y664581D01*
X657847Y664937D01*
X657786Y665294D01*
X657765Y665653D01*
X657781Y666046D01*
X657828Y666417D01*
X657906Y666764D01*
X658016Y667088D01*
X658157Y667389D01*
X658329Y667667D01*
X658533Y667922D01*
X658768Y668153D01*
X659032Y668360D01*
X659323Y668539D01*
X659641Y668690D01*
X659986Y668814D01*
X660358Y668910D01*
X660757Y668979D01*
X661183Y669020D01*
X661636Y669034D01*
X662051Y669020D01*
X662447Y668979D01*
X662824Y668911D01*
X663181Y668815D01*
X663519Y668692D01*
X663838Y668541D01*
X664137Y668363D01*
X664417Y668158D01*
X664673Y667929D01*
X664901Y667682D01*
X665101Y667416D01*
X665272Y667131D01*
X665415Y666827D01*
X665530Y666504D01*
X665616Y666162D01*
X665674Y665802D01*
X664062Y665653D01*
X664026Y665893D01*
X663972Y666120D01*
X663901Y666333D01*
X663814Y666532D01*
X663710Y666717D01*
X663589Y666889D01*
X663451Y667046D01*
X663296Y667190D01*
X663127Y667318D01*
X662948Y667430D01*
X662757Y667524D01*
X662555Y667601D01*
X662342Y667660D01*
X662118Y667703D01*
X661883Y667729D01*
X661636Y667737D01*
X661379Y667729D01*
X661135Y667702D01*
X660907Y667659D01*
X660693Y667597D01*
X660493Y667518D01*
X660308Y667422D01*
X660137Y667308D01*
X659981Y667177D01*
X659841Y667030D01*
X659720Y666868D01*
X659618Y666692D01*
X659534Y666502D01*
X659469Y666298D01*
X659423Y666080D01*
X659395Y665847D01*
X659385Y665600D01*
X659407Y665234D01*
X659472Y664887D01*
X659580Y664559D01*
X659731Y664252D01*
X659918Y663957D01*
X660131Y663669D01*
X660371Y663388D01*
X660638Y663113D01*
X661232Y662570D01*
X661895Y662027D01*
X662594Y661461D01*
X663300Y660849D01*
X663651Y660522D01*
X663993Y660177D01*
X664328Y659813D01*
X664654Y659430D01*
X664963Y659023D01*
X665248Y658586D01*
X665508Y658119D01*
X665744Y657621D01*
X665744Y656509D01*
G37*
G36*
X679357Y694609D02*
X677431Y694609D01*
X679443Y697662D01*
X680934Y699925D01*
X680591Y699998D01*
X680267Y700091D01*
X679962Y700207D01*
X679676Y700344D01*
X679520Y700436D01*
X679409Y700502D01*
X679161Y700683D01*
X678932Y700884D01*
X678722Y701108D01*
X678535Y701349D01*
X678372Y701604D01*
X678234Y701872D01*
X678121Y702154D01*
X678034Y702450D01*
X677971Y702760D01*
X677934Y703083D01*
X677921Y703420D01*
X677939Y703825D01*
X677992Y704206D01*
X678081Y704565D01*
X678205Y704901D01*
X678364Y705215D01*
X678559Y705505D01*
X678789Y705772D01*
X679055Y706017D01*
X679354Y706236D01*
X679682Y706425D01*
X680040Y706585D01*
X680427Y706717D01*
X680844Y706819D01*
X681291Y706891D01*
X681768Y706935D01*
X682274Y706950D01*
X688081Y706950D01*
X688081Y694609D01*
X686408Y694609D01*
X686408Y699733D01*
X682563Y699733D01*
X679357Y694609D01*
G37*
%LPC*%
G36*
X686408Y701055D02*
X686408Y705610D01*
X682440Y705610D01*
X682107Y705601D01*
X681793Y705574D01*
X681500Y705530D01*
X681226Y705469D01*
X680973Y705389D01*
X680740Y705292D01*
X680527Y705177D01*
X680334Y705045D01*
X680163Y704896D01*
X680014Y704730D01*
X679888Y704549D01*
X679786Y704352D01*
X679706Y704139D01*
X679648Y703909D01*
X679614Y703664D01*
X679603Y703403D01*
X679614Y703132D01*
X679648Y702877D01*
X679704Y702638D01*
X679783Y702414D01*
X679885Y702205D01*
X680009Y702012D01*
X680156Y701835D01*
X680325Y701673D01*
X680515Y701528D01*
X680724Y701403D01*
X680952Y701296D01*
X681198Y701210D01*
X681463Y701142D01*
X681747Y701094D01*
X682049Y701065D01*
X682370Y701055D01*
X686408Y701055D01*
G37*
%LPD*%
G36*
X661645Y694434D02*
X661156Y694449D01*
X660696Y694492D01*
X660265Y694566D01*
X659863Y694668D01*
X659490Y694800D01*
X659146Y694961D01*
X658831Y695151D01*
X658545Y695371D01*
X658290Y695617D01*
X658069Y695888D01*
X657883Y696182D01*
X657730Y696501D01*
X657611Y696844D01*
X657526Y697210D01*
X657475Y697601D01*
X657458Y698016D01*
X657470Y698305D01*
X657507Y698582D01*
X657567Y698846D01*
X657651Y699098D01*
X657760Y699337D01*
X657892Y699563D01*
X658049Y699777D01*
X658229Y699978D01*
X658431Y700163D01*
X658653Y700328D01*
X658893Y700474D01*
X659153Y700600D01*
X659432Y700706D01*
X659730Y700793D01*
X660047Y700859D01*
X660384Y700906D01*
X660384Y700941D01*
X660078Y701015D01*
X659791Y701103D01*
X659522Y701206D01*
X659273Y701324D01*
X659042Y701456D01*
X658829Y701604D01*
X658636Y701767D01*
X658461Y701944D01*
X658306Y702136D01*
X658172Y702342D01*
X658058Y702562D01*
X657965Y702795D01*
X657893Y703042D01*
X657841Y703303D01*
X657810Y703578D01*
X657800Y703867D01*
X657816Y704242D01*
X657864Y704595D01*
X657945Y704927D01*
X658057Y705239D01*
X658202Y705529D01*
X658379Y705797D01*
X658588Y706045D01*
X658829Y706271D01*
X659099Y706473D01*
X659395Y706648D01*
X659717Y706797D01*
X660065Y706918D01*
X660439Y707012D01*
X660838Y707080D01*
X661264Y707120D01*
X661715Y707134D01*
X662130Y707120D01*
X662526Y707081D01*
X662903Y707014D01*
X663260Y706921D01*
X663598Y706802D01*
X663917Y706656D01*
X664216Y706483D01*
X664496Y706284D01*
X664752Y706061D01*
X664980Y705818D01*
X665180Y705553D01*
X665351Y705268D01*
X665494Y704962D01*
X665609Y704635D01*
X665695Y704288D01*
X665753Y703919D01*
X664167Y703797D01*
X664133Y704033D01*
X664081Y704255D01*
X664013Y704464D01*
X663928Y704659D01*
X663826Y704841D01*
X663707Y705009D01*
X663571Y705163D01*
X663419Y705303D01*
X663251Y705428D01*
X663072Y705537D01*
X662880Y705629D01*
X662675Y705704D01*
X662458Y705762D01*
X662229Y705804D01*
X661987Y705829D01*
X661733Y705837D01*
X661455Y705828D01*
X661194Y705802D01*
X660952Y705757D01*
X660726Y705694D01*
X660519Y705613D01*
X660329Y705515D01*
X660157Y705398D01*
X660003Y705264D01*
X659866Y705114D01*
X659748Y704951D01*
X659648Y704775D01*
X659566Y704586D01*
X659502Y704384D01*
X659457Y704169D01*
X659429Y703941D01*
X659420Y703700D01*
X659432Y703458D01*
X659465Y703228D01*
X659521Y703012D01*
X659599Y702810D01*
X659699Y702622D01*
X659822Y702447D01*
X659967Y702285D01*
X660134Y702137D01*
X660322Y702005D01*
X660527Y701890D01*
X660751Y701793D01*
X660994Y701713D01*
X661254Y701651D01*
X661533Y701607D01*
X661829Y701581D01*
X662144Y701572D01*
X663003Y701572D01*
X663003Y700206D01*
X662109Y700206D01*
X661754Y700197D01*
X661421Y700170D01*
X661109Y700126D01*
X660818Y700064D01*
X660549Y699985D01*
X660302Y699888D01*
X660076Y699773D01*
X659871Y699641D01*
X659690Y699493D01*
X659532Y699331D01*
X659399Y699155D01*
X659290Y698965D01*
X659205Y698762D01*
X659145Y698545D01*
X659108Y698314D01*
X659096Y698069D01*
X659107Y697788D01*
X659139Y697526D01*
X659192Y697282D01*
X659266Y697055D01*
X659361Y696846D01*
X659478Y696655D01*
X659616Y696481D01*
X659775Y696326D01*
X659953Y696188D01*
X660146Y696069D01*
X660356Y695968D01*
X660582Y695886D01*
X660824Y695821D01*
X661081Y695776D01*
X661355Y695748D01*
X661645Y695739D01*
X661934Y695747D01*
X662206Y695773D01*
X662463Y695816D01*
X662703Y695876D01*
X662928Y695953D01*
X663136Y696047D01*
X663328Y696158D01*
X663504Y696286D01*
X663664Y696432D01*
X663808Y696594D01*
X663936Y696774D01*
X664048Y696971D01*
X664143Y697184D01*
X664223Y697415D01*
X664286Y697663D01*
X664334Y697928D01*
X665963Y697780D01*
X665896Y697378D01*
X665801Y697003D01*
X665678Y696652D01*
X665526Y696327D01*
X665346Y696027D01*
X665138Y695752D01*
X664901Y695503D01*
X664636Y695279D01*
X664345Y695081D01*
X664030Y694909D01*
X663692Y694764D01*
X663330Y694645D01*
X662944Y694553D01*
X662535Y694487D01*
X662102Y694447D01*
X661645Y694434D01*
G37*
G36*
X671614Y694434D02*
X671125Y694449D01*
X670665Y694492D01*
X670233Y694566D01*
X669831Y694668D01*
X669458Y694800D01*
X669114Y694961D01*
X668799Y695151D01*
X668513Y695371D01*
X668259Y695617D01*
X668038Y695888D01*
X667851Y696182D01*
X667699Y696501D01*
X667580Y696844D01*
X667495Y697210D01*
X667444Y697601D01*
X667427Y698016D01*
X667439Y698305D01*
X667475Y698582D01*
X667536Y698846D01*
X667620Y699098D01*
X667728Y699337D01*
X667861Y699563D01*
X668017Y699777D01*
X668198Y699978D01*
X668400Y700163D01*
X668622Y700328D01*
X668862Y700474D01*
X669122Y700600D01*
X669401Y700706D01*
X669699Y700793D01*
X670016Y700859D01*
X670353Y700906D01*
X670353Y700941D01*
X670047Y701015D01*
X669759Y701103D01*
X669491Y701206D01*
X669241Y701324D01*
X669010Y701456D01*
X668798Y701604D01*
X668605Y701767D01*
X668430Y701944D01*
X668275Y702136D01*
X668141Y702342D01*
X668027Y702562D01*
X667934Y702795D01*
X667862Y703042D01*
X667810Y703303D01*
X667779Y703578D01*
X667769Y703867D01*
X667785Y704242D01*
X667833Y704595D01*
X667913Y704927D01*
X668026Y705239D01*
X668171Y705529D01*
X668348Y705797D01*
X668557Y706045D01*
X668798Y706271D01*
X669068Y706473D01*
X669364Y706648D01*
X669686Y706797D01*
X670034Y706918D01*
X670408Y707012D01*
X670807Y707080D01*
X671233Y707120D01*
X671684Y707134D01*
X672099Y707120D01*
X672495Y707081D01*
X672871Y707014D01*
X673229Y706921D01*
X673567Y706802D01*
X673885Y706656D01*
X674185Y706483D01*
X674465Y706284D01*
X674721Y706061D01*
X674949Y705818D01*
X675148Y705553D01*
X675320Y705268D01*
X675463Y704962D01*
X675577Y704635D01*
X675664Y704288D01*
X675722Y703919D01*
X674136Y703797D01*
X674102Y704033D01*
X674050Y704255D01*
X673982Y704464D01*
X673896Y704659D01*
X673794Y704841D01*
X673676Y705009D01*
X673540Y705163D01*
X673387Y705303D01*
X673220Y705428D01*
X673041Y705537D01*
X672849Y705629D01*
X672644Y705704D01*
X672427Y705762D01*
X672198Y705804D01*
X671956Y705829D01*
X671701Y705837D01*
X671423Y705828D01*
X671163Y705802D01*
X670920Y705757D01*
X670695Y705694D01*
X670488Y705613D01*
X670298Y705515D01*
X670126Y705398D01*
X669972Y705264D01*
X669835Y705114D01*
X669717Y704951D01*
X669617Y704775D01*
X669535Y704586D01*
X669471Y704384D01*
X669426Y704169D01*
X669398Y703941D01*
X669389Y703700D01*
X669400Y703458D01*
X669434Y703228D01*
X669489Y703012D01*
X669568Y702810D01*
X669668Y702622D01*
X669791Y702447D01*
X669936Y702285D01*
X670103Y702137D01*
X670290Y702005D01*
X670496Y701890D01*
X670720Y701793D01*
X670962Y701713D01*
X671223Y701651D01*
X671501Y701607D01*
X671798Y701581D01*
X672113Y701572D01*
X672971Y701572D01*
X672971Y700206D01*
X672078Y700206D01*
X671723Y700197D01*
X671390Y700170D01*
X671078Y700126D01*
X670787Y700064D01*
X670518Y699985D01*
X670271Y699888D01*
X670045Y699773D01*
X669840Y699641D01*
X669659Y699493D01*
X669501Y699331D01*
X669368Y699155D01*
X669259Y698965D01*
X669174Y698762D01*
X669113Y698545D01*
X669077Y698314D01*
X669065Y698069D01*
X669076Y697788D01*
X669107Y697526D01*
X669160Y697282D01*
X669235Y697055D01*
X669330Y696846D01*
X669447Y696655D01*
X669585Y696481D01*
X669744Y696326D01*
X669922Y696188D01*
X670115Y696069D01*
X670325Y695968D01*
X670551Y695886D01*
X670792Y695821D01*
X671050Y695776D01*
X671324Y695748D01*
X671614Y695739D01*
X671902Y695747D01*
X672175Y695773D01*
X672432Y695816D01*
X672672Y695876D01*
X672896Y695953D01*
X673105Y696047D01*
X673297Y696158D01*
X673473Y696286D01*
X673633Y696432D01*
X673777Y696594D01*
X673905Y696774D01*
X674016Y696971D01*
X674112Y697184D01*
X674192Y697415D01*
X674255Y697663D01*
X674303Y697928D01*
X675932Y697780D01*
X675865Y697378D01*
X675770Y697003D01*
X675647Y696652D01*
X675495Y696327D01*
X675315Y696027D01*
X675107Y695752D01*
X674870Y695503D01*
X674605Y695279D01*
X674314Y695081D01*
X673999Y694909D01*
X673661Y694764D01*
X673299Y694645D01*
X672913Y694553D01*
X672504Y694487D01*
X672071Y694447D01*
X671614Y694434D01*
G37*
D10*
X414020Y-152400D02*
X414020Y-177800D01*
X388620Y-177800D01*
X388620Y-152400D01*
X414020Y-152400D01*
D11*
X382270Y-165100D02*
X325120Y-165100D01*
D10*
X414020Y-177800D02*
X414020Y-203200D01*
X388620Y-203200D01*
X388620Y-177800D01*
D11*
X382270Y-190500D02*
X325120Y-190500D01*
D10*
X414020Y-203200D02*
X414020Y-228600D01*
X388620Y-228600D01*
X388620Y-203200D01*
D11*
X382270Y-215900D02*
X325120Y-215900D01*
D10*
X414020Y-228600D02*
X414020Y-254000D01*
X388620Y-254000D01*
X388620Y-228600D01*
D11*
X382270Y-241300D02*
X325120Y-241300D01*
D10*
X414020Y-254000D02*
X414020Y-279400D01*
X388620Y-279400D01*
X388620Y-254000D01*
D11*
X382270Y-266700D02*
X325120Y-266700D01*
D10*
X414020Y-279400D02*
X414020Y-304800D01*
X388620Y-304800D01*
X388620Y-279400D01*
D11*
X382270Y-292100D02*
X325120Y-292100D01*
D10*
X414020Y-304800D02*
X414020Y-330200D01*
X388620Y-330200D01*
X388620Y-304800D01*
D11*
X382270Y-317500D02*
X325120Y-317500D01*
D10*
X414020Y-330200D02*
X414020Y-355600D01*
X388620Y-355600D01*
X388620Y-330200D01*
D11*
X382270Y-342900D02*
X325120Y-342900D01*
D10*
X414020Y-355600D02*
X414020Y-381000D01*
X388620Y-381000D01*
X388620Y-355600D01*
D11*
X382270Y-368300D02*
X325120Y-368300D01*
D10*
X414020Y-381000D02*
X414020Y-406400D01*
X388620Y-406400D01*
X388620Y-381000D01*
D11*
X382270Y-393700D02*
X325120Y-393700D01*
D10*
X414020Y-406400D02*
X414020Y-431800D01*
X388620Y-431800D01*
X388620Y-406400D01*
D11*
X382270Y-419100D02*
X325120Y-419100D01*
D10*
X414020Y-431800D02*
X414020Y-457200D01*
X388620Y-457200D01*
X388620Y-431800D01*
D11*
X382270Y-444500D02*
X325120Y-444500D01*
D12*
X386080Y-165100D03*
X386080Y-190500D03*
X386080Y-215900D03*
X386080Y-241300D03*
X386080Y-266700D03*
X386080Y-292100D03*
X386080Y-317500D03*
X386080Y-342900D03*
X386080Y-368300D03*
X386080Y-393700D03*
X386080Y-419100D03*
X386080Y-444500D03*
D13*
X419100Y-165100D03*
X419100Y-190500D03*
X419100Y-215900D03*
X419100Y-241300D03*
X419100Y-266700D03*
X419100Y-292100D03*
X419100Y-317500D03*
X419100Y-342900D03*
X419100Y-368300D03*
X419100Y-393700D03*
X419100Y-419100D03*
X419100Y-444500D03*
D10*
X618490Y-74930D02*
X618490Y-49530D01*
X618490Y-74930D02*
X593090Y-74930D01*
X593090Y-49530D01*
X618490Y-49530D01*
D11*
X586740Y-62230D02*
X529590Y-62230D01*
D10*
X618490Y-74930D02*
X618490Y-100330D01*
X593090Y-100330D01*
X593090Y-74930D01*
D11*
X586740Y-87630D02*
X529590Y-87630D01*
D10*
X618490Y-100330D02*
X618490Y-125730D01*
X593090Y-125730D01*
X593090Y-100330D01*
D11*
X586740Y-113030D02*
X529590Y-113030D01*
D10*
X618490Y-125730D02*
X618490Y-151130D01*
X593090Y-151130D01*
X593090Y-125730D01*
D11*
X586740Y-138430D02*
X529590Y-138430D01*
D10*
X618490Y-151130D02*
X618490Y-176530D01*
X593090Y-176530D01*
X593090Y-151130D01*
D11*
X586740Y-163830D02*
X529590Y-163830D01*
D10*
X618490Y-176530D02*
X618490Y-201930D01*
X593090Y-201930D01*
X593090Y-176530D01*
D11*
X586740Y-189230D02*
X529590Y-189230D01*
D10*
X618490Y-201930D02*
X618490Y-227330D01*
X593090Y-227330D01*
X593090Y-201930D01*
D11*
X586740Y-214630D02*
X529590Y-214630D01*
D10*
X618490Y-227330D02*
X618490Y-252730D01*
X593090Y-252730D01*
X593090Y-227330D01*
D11*
X586740Y-240030D02*
X529590Y-240030D01*
D10*
X618490Y-252730D02*
X618490Y-278130D01*
X593090Y-278130D01*
X593090Y-252730D01*
D11*
X586740Y-265430D02*
X529590Y-265430D01*
D10*
X618490Y-278130D02*
X618490Y-303530D01*
X593090Y-303530D01*
X593090Y-278130D01*
D11*
X586740Y-290830D02*
X529590Y-290830D01*
D10*
X618490Y-303530D02*
X618490Y-328930D01*
X593090Y-328930D01*
X593090Y-303530D01*
D11*
X586740Y-316230D02*
X529590Y-316230D01*
D10*
X618490Y-328930D02*
X618490Y-354330D01*
X593090Y-354330D01*
X593090Y-328930D01*
D11*
X586740Y-341630D02*
X529590Y-341630D01*
D10*
X618490Y-354330D02*
X618490Y-379730D01*
X593090Y-379730D01*
X593090Y-354330D01*
D11*
X586740Y-367030D02*
X529590Y-367030D01*
D10*
X618490Y-379730D02*
X618490Y-405130D01*
X593090Y-405130D01*
X593090Y-379730D01*
D11*
X586740Y-392430D02*
X529590Y-392430D01*
D10*
X618490Y-405130D02*
X618490Y-430530D01*
X593090Y-430530D01*
X593090Y-405130D01*
D11*
X586740Y-417830D02*
X529590Y-417830D01*
D10*
X618490Y-430530D02*
X618490Y-455930D01*
X593090Y-455930D01*
X593090Y-430530D01*
D11*
X586740Y-443230D02*
X529590Y-443230D01*
D12*
X590550Y-62230D03*
X590550Y-87630D03*
X590550Y-113030D03*
X590550Y-138430D03*
X590550Y-163830D03*
X590550Y-189230D03*
X590550Y-214630D03*
X590550Y-240030D03*
X590550Y-265430D03*
X590550Y-290830D03*
X590550Y-316230D03*
X590550Y-341630D03*
X590550Y-367030D03*
X590550Y-392430D03*
X590550Y-417830D03*
X590550Y-443230D03*
D13*
X623570Y-62230D03*
X623570Y-87630D03*
X623570Y-113030D03*
X623570Y-138430D03*
X623570Y-163830D03*
X623570Y-189230D03*
X623570Y-214630D03*
X623570Y-240030D03*
X623570Y-265430D03*
X623570Y-290830D03*
X623570Y-316230D03*
X623570Y-341630D03*
X623570Y-367030D03*
X623570Y-392430D03*
X623570Y-417830D03*
X623570Y-443230D03*
D14*
X620350Y523159D02*
X598850Y523159D01*
X598850Y543641D02*
X620350Y543641D01*
X620350Y561259D02*
X598850Y561259D01*
X598850Y581741D02*
X620350Y581741D01*
X620350Y599359D02*
X598850Y599359D01*
X598850Y619841D02*
X620350Y619841D01*
X620350Y637459D02*
X598850Y637459D01*
X598850Y657941D02*
X620350Y657941D01*
X620350Y675559D02*
X598850Y675559D01*
X598850Y696041D02*
X620350Y696041D01*
X620350Y713659D02*
X598850Y713659D01*
X598850Y734141D02*
X620350Y734141D01*
X662350Y523159D02*
X683850Y523159D01*
X683850Y543641D02*
X662350Y543641D01*
X662350Y561259D02*
X683850Y561259D01*
X683850Y581741D02*
X662350Y581741D01*
X662350Y599359D02*
X683850Y599359D01*
X683850Y619841D02*
X662350Y619841D01*
X662350Y637459D02*
X683850Y637459D01*
X683850Y657941D02*
X662350Y657941D01*
X662350Y675559D02*
X683850Y675559D01*
X683850Y696041D02*
X662350Y696041D01*
X662350Y713659D02*
X683850Y713659D01*
X683850Y734141D02*
X662350Y734141D01*
M02*
