G04 EAGLE Gerber RS-274X export*
G75*
%MOMM*%
%FSLAX34Y34*%
%LPD*%
%INSolderpaste Top*%
%IPPOS*%
%AMOC8*
5,1,8,0,0,1.08239X$1,22.5*%
G01*
G04 Define Apertures*
%ADD10R,2.715300X1.164600*%
%ADD11R,1.860300X0.897900*%
%ADD12R,1.860300X3.189100*%
%ADD13R,2.050000X2.050000*%
%ADD14R,1.420200X1.031200*%
%ADD15R,1.031200X1.420200*%
%ADD16R,1.473200X0.355600*%
D10*
X63500Y683746D03*
X63500Y713254D03*
D11*
X108950Y734200D03*
X108950Y711200D03*
X108950Y688200D03*
D12*
X170450Y711200D03*
D13*
X1051329Y16904D03*
X989829Y16904D03*
X1051329Y126904D03*
X989829Y126904D03*
D14*
X76200Y870255D03*
X76200Y851865D03*
X567690Y863905D03*
X567690Y845515D03*
X623570Y862635D03*
X623570Y844245D03*
X683260Y862635D03*
X683260Y844245D03*
X737870Y863905D03*
X737870Y845515D03*
X801370Y863905D03*
X801370Y845515D03*
X861060Y862635D03*
X861060Y844245D03*
D15*
X638505Y673100D03*
X656895Y673100D03*
X244805Y685800D03*
X263195Y685800D03*
X194005Y-165100D03*
X212395Y-165100D03*
D14*
X127000Y870255D03*
X127000Y851865D03*
X899594Y249394D03*
X899594Y231004D03*
X196850Y-47955D03*
X196850Y-66345D03*
X180340Y868985D03*
X180340Y850595D03*
X236220Y868985D03*
X236220Y850595D03*
X289560Y868985D03*
X289560Y850595D03*
X345440Y867715D03*
X345440Y849325D03*
X398780Y866445D03*
X398780Y848055D03*
X450850Y866445D03*
X450850Y848055D03*
X511810Y863905D03*
X511810Y845515D03*
D16*
X422910Y669036D03*
X422910Y675386D03*
X422910Y681990D03*
X422910Y688340D03*
X422910Y694944D03*
X422910Y701548D03*
X422910Y707898D03*
X422910Y714502D03*
X422910Y720852D03*
X422910Y727456D03*
X422910Y734060D03*
X422910Y740410D03*
X422910Y747014D03*
X422910Y753364D03*
X364490Y753364D03*
X364490Y747014D03*
X364490Y740410D03*
X364490Y734060D03*
X364490Y727456D03*
X364490Y720852D03*
X364490Y714502D03*
X364490Y707898D03*
X364490Y701548D03*
X364490Y694944D03*
X364490Y688340D03*
X364490Y681990D03*
X364490Y675386D03*
X364490Y669036D03*
D15*
X168605Y127000D03*
X186995Y127000D03*
M02*
